<?xml version="1.0" standalone="no"?>
<!DOCTYPE svg PUBLIC "-//W3C//DTD SVG 1.1//EN" "http://www.w3.org/Graphics/SVG/1.1/DTD/svg11.dtd" >
<svg>
<metadata>
Created by FontForge 20120731 at Tue Aug 27 23:52:05 2019
 By www
Copyright (c) 2016 by Fontsmith Ltd. All rights reserved. This font may not be altered in any way without prior permission of Fontsmith Ltd.
</metadata>
<defs>
<font id="FSSiena-Regular" horiz-adv-x="0" >
  <font-face 
    font-family="FS Siena Regular"
    font-weight="400"
    font-stretch="normal"
    units-per-em="1000"
    panose-1="2 11 6 4 7 4 2 8 2 3"
    ascent="800"
    descent="-200"
    x-height="458"
    cap-height="616"
    bbox="-443 -205 1139 846"
    underline-thickness="52"
    underline-position="-58"
    unicode-range="U+0020-FB02"
  />
<missing-glyph horiz-adv-x="664" 
d="M100 650h464v-650h-464v650zM490 604h-316l159 -237zM304 325l-157 237v-474zM518 562l-158 -237l158 -237v474zM490 47l-157 236l-159 -236h316z" />
    <glyph glyph-name="fi" unicode="fi" horiz-adv-x="571" 
d="M489 0h-91v418h-206v-418h-88v418h-89v40h89q2 102 59 159q57 58 155 58q39 0 70 -10q34 -11 56 -27l-20 -35q-22 15 -47 23q-29 9 -54 9q-63 0 -97 -42q-34 -43 -34 -117v-18h297v-458z" />
    <glyph glyph-name="fl" unicode="fl" horiz-adv-x="574" 
d="M495 661v-661h-89v619q-38 16 -78 16q-66 0 -100 -42q-36 -43 -36 -117v-18h123v-40h-123v-418h-88v418h-89v40h89q2 100 60 159q58 58 158 58q43 0 85 -14h88z" />
    <glyph glyph-name="partialdiff" unicode="fb" horiz-adv-x="889" 
d="M794 411q52 -61 52 -170q0 -78 -28 -134q-28 -57 -75 -89q-49 -32 -107 -32q-52 0 -93 21q-41 20 -59 61l-18 -68h-60v619q-38 16 -78 16q-66 0 -100 -42q-36 -43 -36 -117v-18h123v-40h-123v-418h-88v418h-89v40h89q2 100 60 159q58 58 158 58q43 0 85 -14h88v-261
q30 36 72 54t89 18q86 0 138 -61zM718 97q32 58 32 142q0 80 -28 132q-28 51 -95 51q-39 0 -74 -21q-35 -20 -58 -59v-138q0 -80 33 -122q31 -43 88 -43q69 0 102 58z" />
    <glyph glyph-name="percent.osf" unicode="ff" horiz-adv-x="620" 
d="M519 595q-25 -40 -25 -116v-21h133v-40h-133v-418h-88v418h-214v-418h-88v418h-89v40h89q2 99 47 153t133 54q27 0 50 -5q20 -6 44 -20l-20 -35q-32 20 -68 20q-53 0 -75 -40q-23 -41 -23 -115v-12h214v8q0 98 48 154q46 55 140 55q59 0 101 -27l-20 -36q-35 23 -75 23
q-57 0 -81 -40z" />
    <glyph glyph-name="perthousand.osf" unicode="ffb" horiz-adv-x="1182" 
d="M1087 411q52 -61 52 -170q0 -78 -28 -134q-28 -57 -75 -89q-49 -32 -107 -32q-53 0 -93 21q-41 20 -59 61l-18 -68h-60v619q-38 16 -78 16q-65 0 -100 -42q-36 -43 -36 -117v-18h123v-40h-123v-418h-88v418h-205v-418h-88v418h-89v40h89q2 99 47 153t133 54q27 0 50 -5
q20 -6 44 -20l-20 -35q-32 20 -68 20q-53 0 -75 -40q-23 -41 -23 -115v-12h205q1 100 60 159q58 58 158 58q43 0 85 -14h88v-261q30 36 72 54t89 18q86 0 138 -61zM1011 97q32 58 32 142q0 80 -28 132q-28 51 -95 51q-40 0 -74 -21q-35 -20 -58 -59v-138q0 -81 33 -123
t90 -42q69 0 100 58z" />
    <glyph glyph-name="pi" unicode="ffh" horiz-adv-x="1182" 
d="M1077 418q41 -55 41 -146v-272h-89v247q0 76 -20 125q-19 48 -80 48q-62 0 -96 -52q-36 -52 -36 -145v-223h-89v619q-38 16 -78 16q-66 0 -100 -42q-36 -43 -36 -117v-18h123v-40h-123v-418h-88v418h-214v-418h-88v418h-89v40h89q2 99 47 153t133 54q27 0 50 -5
q20 -6 44 -20l-20 -35q-32 20 -68 20q-53 0 -75 -40q-23 -41 -23 -115v-12h214q2 100 60 159q58 58 158 58q43 0 85 -14h88v-278q23 44 64 66q43 23 90 23q85 0 126 -54z" />
    <glyph glyph-name="product" unicode="ffi" horiz-adv-x="873" 
d="M791 0h-91v418h-206v-418h-88v418h-214v-418h-88v418h-89v40h89q2 99 47 153t133 54q27 0 50 -5q20 -6 44 -20l-20 -35q-32 20 -68 20q-53 0 -75 -40q-23 -41 -23 -115v-12h214q2 102 59 159q57 58 155 58q39 0 70 -10q34 -11 56 -27l-20 -35q-22 15 -47 23q-29 9 -54 9
q-63 0 -97 -42q-34 -43 -34 -117v-18h297v-458z" />
    <glyph glyph-name="racute" unicode="ffj" horiz-adv-x="874" 
d="M801 111q0 -113 -33 -184q-34 -71 -117 -108l-18 31q46 31 62 73q17 43 17 126v369h-211v-418h-89v418h-220v-418h-88v418h-89v40h89q2 99 47 153t133 54q27 0 50 -5q20 -6 44 -20l-20 -35q-32 20 -68 20q-53 0 -75 -40q-23 -41 -23 -115v-12h220q2 102 59 159
q57 58 155 58q39 0 70 -10q33 -11 57 -27l-21 -35q-20 15 -46 23q-28 9 -55 9q-61 0 -96 -42q-34 -43 -34 -117v-18h300v-347z" />
    <glyph glyph-name="Racute" unicode="ffk" horiz-adv-x="1119" 
d="M845 224h-48v-224h-89v619q-38 16 -78 16q-66 0 -100 -42q-36 -43 -36 -117v-18h123v-40h-123v-418h-88v418h-214v-418h-88v418h-89v40h89q2 99 47 153t133 54q27 0 50 -5q20 -6 44 -20l-20 -35q-32 20 -68 20q-53 0 -75 -40q-23 -41 -23 -115v-12h214q2 100 60 159
q58 58 158 58q43 0 85 -14h88v-391h53q63 66 145 188h89q-85 -110 -179 -193l203 -265h-100z" />
    <glyph glyph-name="radical" unicode="ffl" horiz-adv-x="876" 
d="M797 661v-661h-89v619q-38 16 -78 16q-66 0 -100 -42q-36 -43 -36 -117v-18h123v-40h-123v-418h-88v418h-214v-418h-88v418h-89v40h89q2 99 47 153t133 54q27 0 50 -5q20 -6 44 -20l-20 -35q-32 20 -68 20q-53 0 -75 -40q-23 -41 -23 -115v-12h214q2 100 60 159
q58 58 158 58q43 0 85 -14h88z" />
    <glyph glyph-name="rcaron" unicode="fft" horiz-adv-x="955" 
d="M935 27q-24 -21 -53 -31q-26 -10 -59 -10q-71 0 -100 50t-29 138v244h-200v-418h-88v418h-214v-418h-88v418h-89v40h89q2 99 47 153t133 54q27 0 50 -5q20 -6 44 -20l-20 -35q-32 20 -68 20q-53 0 -75 -40q-23 -41 -23 -115v-12h214v8q0 98 48 154q46 55 139 55
q49 0 87 -23l-20 -35q-30 18 -61 18q-57 0 -81 -40q-24 -41 -24 -116v-21h200v125h89v-125h133v-40h-133v-232q0 -77 13 -113q12 -39 52 -39q16 0 33 7q19 8 33 19z" />
    <glyph glyph-name="Rcaron" unicode="fh" horiz-adv-x="880" 
d="M775 418q41 -55 41 -146v-272h-89v247q0 76 -20 125q-20 48 -80 48q-62 0 -96 -52q-36 -52 -36 -145v-223h-89v619q-38 16 -78 16q-66 0 -100 -42q-36 -43 -36 -117v-18h123v-40h-123v-418h-88v418h-89v40h89q2 100 60 159q58 58 158 58q43 0 85 -14h88v-278q23 44 64 66
q43 23 90 23q85 0 126 -54z" />
    <glyph glyph-name="rcommaaccent" unicode="f&#x12b;" horiz-adv-x="593" 
d="M147 620q43 55 126 55q21 0 38 -4q19 -5 29 -12l-14 -36q-20 12 -47 12q-48 0 -67 -40q-20 -42 -20 -115v-22h133v-40h-133v-418h-88v418h-89v40h89v7q0 100 43 155zM583 618v-49h-232v49h232zM420 458h91v-458h-91v458z" />
    <glyph glyph-name="Rcommaaccent" unicode="fj" horiz-adv-x="566" 
d="M493 111q0 -113 -33 -184q-34 -71 -117 -108l-18 31q45 31 61 73q17 43 17 126v369h-211v-418h-88v418h-89v40h89q2 102 59 159q57 58 155 58q39 0 70 -10q34 -11 56 -27l-20 -35q-22 15 -47 23q-29 9 -54 9q-63 0 -97 -42q-34 -43 -34 -117v-18h301v-347z" />
    <glyph glyph-name="ring.case" unicode="fk" horiz-adv-x="817" 
d="M543 224h-48v-224h-89v619q-38 16 -78 16q-66 0 -100 -42q-36 -43 -36 -117v-18h123v-40h-123v-418h-88v418h-89v40h89q2 100 60 159q58 58 158 58q43 0 85 -14h88v-391h53q63 66 145 188h89q-85 -110 -179 -193l203 -265h-100z" />
    <glyph glyph-name="s_t.dlig" unicode="f&#x13e;" horiz-adv-x="584" 
d="M495 661v-661h-89v619q-38 16 -78 16q-66 0 -100 -42q-36 -43 -36 -117v-18h123v-40h-123v-418h-88v418h-89v40h89q2 100 60 159q58 58 158 58q43 0 85 -14h88zM549 509q2 70 10 152h75q-31 -87 -47 -152h-38z" />
    <glyph glyph-name="s_tcaron.dlig" unicode="ft" horiz-adv-x="654" 
d="M634 27q-50 -41 -112 -41q-72 0 -100 49q-29 50 -29 139v244h-201v-418h-88v418h-89v40h89v8q0 99 46 154t135 55q49 0 86 -23l-19 -35q-30 18 -61 18q-54 0 -76 -40q-23 -41 -23 -116v-21h201v125h89v-125h133v-40h-133v-232q0 -77 13 -113q12 -39 52 -39q16 0 33 7
q19 8 33 19z" />
    <glyph glyph-name=".notdef" horiz-adv-x="664" 
d="M100 650h464v-650h-464v650zM490 604h-316l159 -237zM304 325l-157 237v-474zM518 562l-158 -237l158 -237v474zM490 47l-157 236l-159 -236h316z" />
    <glyph glyph-name=".null" 
 />
    <glyph glyph-name="nonmarkingreturn" horiz-adv-x="630" 
d="M544 305q46 -47 46 -126q0 -57 -26 -101q-27 -44 -72 -68q-46 -24 -102 -24q-77 0 -142 49l30 43q26 -23 55 -35q27 -11 58 -11q47 0 75 39q28 38 28 98q0 59 -31 97q-31 39 -91 39q-37 0 -76 -15v44q40 52 157 200l28 35h-290v-569h-92v616h449v-58l-172 -208q17 3 34 3
q87 0 134 -48z" />
    <glyph glyph-name="space" unicode=" " horiz-adv-x="218" 
 />
    <glyph glyph-name="exclam" unicode="!" horiz-adv-x="285" 
d="M85 616h114q-21 -260 -30 -429h-56q-7 167 -28 429zM100 2q-16 15 -16 39t17 41q17 15 43 15q27 0 42 -15q15 -16 15 -41q0 -23 -15 -39q-16 -16 -43 -16t-43 16z" />
    <glyph glyph-name="quotedbl" unicode="&#x22;" horiz-adv-x="209" 
d="M5 616h87l-5 -36q-10 -68 -21 -155h-37q-12 111 -24 191zM117 616h87q-14 -100 -25 -191h-38q-12 111 -24 191z" />
    <glyph glyph-name="numbersign" unicode="#" horiz-adv-x="631" 
d="M486 404l-47 -173h134l-14 -54h-135l-48 -177h-63l49 177h-167l-48 -177h-63l48 177h-122l13 54h124l47 173h-136l14 54h137l43 158h63l-43 -158h167l43 158h62l-43 -158h120l-13 -54h-122zM424 404h-167l-47 -173h166z" />
    <glyph glyph-name="dollar" unicode="$" horiz-adv-x="469" 
d="M387 68q-40 -38 -119 -46v-78h-40v76q-48 0 -97 15q-48 13 -81 40l29 43q37 -26 75 -38q38 -13 74 -13v203l-59 29q-112 57 -112 146q0 64 46 104q44 39 125 47v65h40v-64q40 -1 78 -12q38 -12 64 -31l-24 -46q-23 19 -55 31q-35 12 -63 13v-203l42 -23q60 -32 89 -68
q29 -37 29 -91q0 -60 -41 -99zM162 419q19 -21 66 -49v182q-41 -4 -63 -26q-22 -21 -22 -53q0 -34 19 -54zM324 98q18 20 18 46q0 34 -18 58q-17 23 -56 46v-177q36 7 56 27z" />
    <glyph glyph-name="percent" unicode="%" horiz-adv-x="627" 
d="M90 384q-31 20 -45 50q-15 30 -15 63t16 64q15 31 45 50q29 19 71 19q62 0 95 -39q33 -41 33 -93q0 -33 -15 -63q-14 -30 -44 -50q-31 -20 -70 -20q-43 0 -71 19zM476 616h67l-402 -616h-66zM207 425q14 30 14 73q0 44 -15 73t-45 29q-29 0 -46 -30q-16 -29 -16 -73
q0 -43 17 -72q17 -30 46 -30q30 0 45 30zM397 6q-31 20 -45 50q-15 30 -15 63t16 64q15 31 45 50q29 19 71 19q62 0 95 -39q33 -41 33 -93q0 -34 -15 -64q-14 -30 -44 -50q-31 -20 -70 -20q-40 0 -71 20zM514 47q15 29 15 73q0 43 -15 73q-17 29 -46 29q-30 0 -46 -30
q-16 -29 -16 -73q0 -43 17 -72q17 -30 46 -30q30 0 45 30z" />
    <glyph glyph-name="ampersand" unicode="&#x26;" horiz-adv-x="598" 
d="M474 0l-53 64q-77 -78 -199 -78q-77 0 -125 42q-49 40 -49 120q0 61 41 108q41 48 109 74l-9 11q-72 85 -72 147q0 65 49 104q50 38 126 38t114 -34q39 -34 39 -89q0 -50 -43 -94q-44 -45 -106 -68l151 -185q39 66 39 160l-1 25h59q0 -53 -18 -111q-18 -57 -53 -105
l106 -129h-105zM223 573q-24 -24 -24 -62q0 -30 18 -60q14 -27 50 -71l6 -8q45 22 69 60t24 75q0 39 -22 64t-60 25t-61 -23zM396 93l-173 208q-83 -56 -83 -140q0 -53 36 -88q35 -35 92 -35q77 0 128 55z" />
    <glyph glyph-name="quotesingle" unicode="'" horiz-adv-x="99" 
d="M11 574l-6 42h89q-18 -118 -25 -191h-40q-8 71 -18 149z" />
    <glyph glyph-name="parenleft" unicode="(" horiz-adv-x="289" 
d="M92 16q-43 96 -43 209t43 214q44 102 128 177h51q-59 -74 -90 -176q-32 -105 -32 -215q0 -112 31 -211q32 -101 91 -172h-51q-84 75 -128 174z" />
    <glyph glyph-name="parenright" unicode=")" horiz-adv-x="289" 
d="M197 443q43 -96 43 -210t-43 -213q-44 -103 -128 -178h-51q61 76 91 176q31 102 31 215q0 112 -31 211q-32 101 -91 172h51q85 -76 128 -173z" />
    <glyph glyph-name="asterisk" unicode="*" horiz-adv-x="273" 
d="M120 460l3 27q-21 -14 -86 -65l-32 73q78 14 107 20l-17 12l-72 51l59 53q23 -47 52 -95q16 46 32 104l70 -41q-23 -21 -62 -62l-14 -15l43 -1q4 0 66 2l-16 -79q-43 24 -100 48q16 -48 36 -104l-80 -8q6 34 11 80z" />
    <glyph glyph-name="plus" unicode="+" horiz-adv-x="534" 
d="M474 206h-178v-192h-58v192h-178v48h178v190h58v-190h178v-48z" />
    <glyph glyph-name="comma" unicode="," horiz-adv-x="187" 
d="M148 73q18 -24 18 -65q0 -58 -31 -98q-32 -43 -88 -65l-17 30q43 24 62 51q19 25 19 61v8q-14 -8 -27 -8q-21 0 -35 14q-13 13 -13 38t18 42q16 16 41 16q33 0 53 -24z" />
    <glyph glyph-name="hyphen" unicode="-" horiz-adv-x="284" 
d="M40 255h204v-51h-204v51z" />
    <glyph glyph-name="period" unicode="." horiz-adv-x="188" 
d="M51 2q-16 15 -16 39t17 41q16 15 43 15t42 -15q15 -16 15 -41q0 -23 -15 -39q-16 -16 -43 -16t-43 16z" />
    <glyph glyph-name="slash" unicode="/" horiz-adv-x="329" 
d="M271 616h58l-271 -774h-58z" />
    <glyph glyph-name="zero" unicode="0" horiz-adv-x="582" 
d="M162 31q-50 44 -74 117q-24 74 -24 160q0 85 29 160q28 73 84 118q55 44 128 44q77 0 126 -43q50 -44 74 -116q23 -75 23 -162q0 -84 -29 -159q-29 -74 -83 -119q-56 -45 -129 -45q-75 0 -125 45zM398 115q33 83 33 194q0 114 -29 195q-30 80 -100 80q-75 0 -108 -81
q-33 -83 -33 -195q0 -114 30 -195q29 -81 99 -81q75 0 108 83z" />
    <glyph glyph-name="one" unicode="1" horiz-adv-x="353" 
d="M264 616v-616h-91v499q-59 -26 -127 -44l-11 32q57 27 103 59q48 32 86 70h40z" />
    <glyph glyph-name="two" unicode="2" horiz-adv-x="480" 
d="M353 287q-76 -89 -230 -211h306v-76h-394v60q103 89 161 147q60 60 101 127q40 64 40 129q0 51 -32 85q-33 33 -92 33q-35 0 -68 -12q-34 -14 -71 -42l-27 39q42 32 91 48q48 16 100 16q95 0 144 -46t49 -118q0 -88 -78 -179z" />
    <glyph glyph-name="three" unicode="3" horiz-adv-x="489" 
d="M401 304q49 -48 49 -124q0 -58 -29 -102q-31 -44 -81 -68q-52 -24 -116 -24q-56 0 -98 13q-46 13 -82 40l29 44q34 -26 69 -38q33 -13 78 -13q62 0 98 37t36 101q0 62 -33 98q-35 36 -102 36q-37 0 -77 -15v44q66 71 205 215h-280v68h354v-66q-116 -107 -208 -204
q22 6 44 6q95 0 144 -48z" />
    <glyph glyph-name="four" unicode="4" horiz-adv-x="506" 
d="M490 140h-67v-140h-88v140h-315v59q91 84 151 194q58 106 75 223h109q-18 -67 -56 -141q-41 -78 -96 -150q-54 -71 -117 -122h249v168h88v-168h67v-63z" />
    <glyph glyph-name="five" unicode="5" horiz-adv-x="491" 
d="M398 335q53 -56 53 -142q0 -60 -29 -107q-30 -49 -81 -74q-54 -26 -116 -26q-56 0 -98 13q-46 13 -82 40l29 44q60 -51 146 -51q63 0 99 41q35 41 35 113q0 70 -38 111q-39 40 -106 40q-69 0 -123 -24v303h345v-70h-293v-172q45 16 103 16q102 0 156 -55z" />
    <glyph glyph-name="six" unicode="6" horiz-adv-x="557" 
d="M460 345q53 -53 53 -140q0 -67 -30 -116q-31 -51 -80 -76q-51 -27 -110 -27q-122 0 -175 80q-54 79 -54 211q0 104 34 182q35 80 101 126q68 45 160 45q75 0 125 -29l-28 -45q-38 26 -101 26q-92 0 -145 -65t-58 -189q29 29 76 50q42 19 92 19q88 0 140 -52zM393 77
q33 48 33 115q0 63 -32 109q-32 45 -96 45q-40 0 -78 -18t-68 -54q1 -127 37 -187q35 -59 107 -59q64 0 97 49z" />
    <glyph glyph-name="seven" unicode="7" horiz-adv-x="419" 
d="M405 616v-73q-91 -95 -140 -222q-50 -129 -50 -278v-43h-90v39q0 122 58 256q57 134 168 248h-327v73h381z" />
    <glyph glyph-name="eight" unicode="8" horiz-adv-x="541" 
d="M461 253q31 -38 31 -96q0 -47 -28 -85q-28 -40 -78 -63q-52 -23 -115 -23q-96 0 -154 44q-58 43 -58 116q0 54 38 101q38 45 104 65q-54 28 -85 64q-32 37 -32 92q0 45 25 82t71 59q45 21 104 21q86 0 138 -39t52 -106q0 -47 -37 -87q-37 -42 -95 -61l25 -13
q61 -32 94 -71zM196 425q29 -28 79 -54l28 -14q41 24 63 58t22 72q0 44 -28 75q-28 30 -83 30q-50 0 -79 -28q-30 -28 -30 -72q0 -40 28 -67zM370 57q34 28 34 76q0 46 -29 75q-27 27 -93 61l-45 24q-41 -20 -63 -56q-22 -37 -22 -84q0 -57 37 -91q38 -35 93 -35q53 0 88 30
z" />
    <glyph glyph-name="nine" unicode="9" horiz-adv-x="556" 
d="M457 549q52 -79 52 -214q0 -102 -31 -180q-32 -80 -92 -124q-61 -46 -149 -46q-42 0 -81 9q-40 7 -67 24l23 46q31 -16 62 -23q34 -9 67 -9q85 0 133 72q46 70 48 194q-30 -34 -74 -54q-45 -20 -94 -20q-88 0 -140 52q-53 53 -53 139q0 65 31 114q32 49 83 74
q52 26 110 26q119 0 172 -80zM358 295q36 20 64 57q-3 123 -36 179q-33 55 -104 55q-44 0 -73 -22q-30 -22 -46 -59q-16 -35 -16 -76q0 -63 33 -108t96 -45q47 0 82 19z" />
    <glyph glyph-name="colon" unicode=":" horiz-adv-x="188" 
d="M51 2q-16 15 -16 39t17 41q16 15 43 15t42 -15q15 -16 15 -41q0 -23 -15 -39q-16 -16 -43 -16t-43 16zM51 308q-16 15 -16 39t17 41q17 15 43 15q27 0 42 -15q15 -16 15 -41q0 -23 -15 -39q-16 -16 -43 -16t-43 16z" />
    <glyph glyph-name="semicolon" unicode=";" horiz-adv-x="187" 
d="M148 73q18 -24 18 -65q0 -58 -31 -98q-32 -43 -88 -65l-17 30q43 24 62 51q19 25 19 61v8q-14 -8 -27 -8q-21 0 -35 14q-13 13 -13 38t18 42q16 16 41 16q33 0 53 -24zM58 306q-16 15 -16 39t17 41q16 15 43 15t42 -15q15 -16 15 -41q0 -23 -15 -39q-16 -16 -43 -16
t-43 16z" />
    <glyph glyph-name="less" unicode="&#x3c;" horiz-adv-x="534" 
d="M457 388l-317 -157l317 -158v-58l-388 192v45l388 193v-57z" />
    <glyph glyph-name="equal" unicode="=" horiz-adv-x="534" 
d="M60 351h414v-50h-414v50zM60 161h414v-50h-414v50z" />
    <glyph glyph-name="greater" unicode="&#x3e;" horiz-adv-x="534" 
d="M465 253v-45l-388 -193v57l317 158l-317 157v58z" />
    <glyph glyph-name="question" unicode="?" horiz-adv-x="407" 
d="M142 234q0 69 43 115q2 2 6.5 6t12 11.5t14.5 13.5q35 32 49 53q14 22 14 57q0 38 -26 66q-28 26 -72 26q-76 0 -134 -61l-30 38q32 31 80 51q49 20 103 20q84 0 130 -38q45 -38 45 -97q0 -33 -16 -61q-17 -30 -38 -49q-28 -24 -58 -48q-39 -30 -53 -65q-15 -35 -12 -85
h-53q-5 28 -5 47zM134 2q-18 16 -18 39q0 24 17 41q17 15 43 15q27 0 42 -15q15 -16 15 -41q0 -23 -14 -39q-13 -16 -40 -16q-28 0 -45 16z" />
    <glyph glyph-name="at" unicode="@" horiz-adv-x="838" 
d="M506 285q1 52 -19 80q-22 28 -70 28q-65 0 -121 -36l-17 37q28 21 71 33q44 11 81 11q76 0 113 -36t35 -107l-4 -128q0 -36 10 -55q11 -20 41 -20q56 0 83 55q27 54 27 136q0 88 -37 155q-37 66 -104 102t-152 36q-93 0 -166 -42t-117 -122q-43 -79 -43 -191
q0 -106 38 -182q37 -76 105 -115t160 -39q68 0 127 18q57 18 111 63l26 -37q-115 -95 -279 -95q-119 0 -205 50q-84 49 -127 136q-43 85 -43 193q0 117 53 212q53 94 149 146q98 53 224 53q94 0 178 -35q81 -34 133 -109q51 -75 51 -187q0 -67 -21 -123q-23 -58 -69 -92
q-49 -35 -122 -35q-36 0 -62 16q-28 17 -35 50q-16 -31 -50 -48q-36 -17 -78 -17q-52 0 -87 28q-37 28 -37 84q0 60 47 93q47 32 127 32q38 0 75 -8v12zM475 123q28 29 29 86l1 30q-31 7 -63 7q-105 0 -105 -82q0 -32 20 -52q19 -19 47 -19q44 0 71 30z" />
    <glyph glyph-name="A" unicode="A" horiz-adv-x="589" 
d="M398 184h-231l-66 -184h-72l249 616h56l231 -616h-103zM383 227l-98 284l-102 -284h200z" />
    <glyph glyph-name="B" unicode="B" horiz-adv-x="564" 
d="M477 278q39 -40 39 -104q0 -89 -70 -135q-71 -47 -191 -47q-79 0 -156 12v611q57 9 141 9q233 0 233 -148q0 -52 -28 -90t-80 -55q72 -12 112 -53zM342 557q-34 28 -105 28q-20 0 -46 -2v-239h46q140 0 140 124q0 60 -35 89zM371 66q46 33 46 101q0 137 -170 137h-56
v-266q36 -6 63 -6q71 0 117 34z" />
    <glyph glyph-name="C" unicode="C" horiz-adv-x="567" 
d="M205 24q-71 38 -108 108q-38 71 -38 169q0 99 43 173q44 76 118 116q73 40 166 40q98 0 168 -42l-28 -48q-59 41 -138 41q-72 0 -123 -36q-52 -37 -77 -97q-27 -62 -27 -137q0 -121 57 -197q56 -77 163 -77q89 0 151 48l25 -40q-40 -31 -87 -44q-48 -15 -99 -15
q-95 0 -166 38z" />
    <glyph glyph-name="D" unicode="D" horiz-adv-x="686" 
d="M549 541q86 -84 86 -223q0 -89 -37 -162q-38 -74 -120 -119q-83 -46 -216 -46q-89 0 -163 11v612q66 10 167 10q195 0 283 -83zM475 116q60 80 60 200q0 118 -63 192q-63 73 -215 73q-37 0 -65 -5v-535q50 -5 75 -5q146 0 208 80z" />
    <glyph glyph-name="E" unicode="E" horiz-adv-x="503" 
d="M463 56v-56h-364v616h359v-55q-88 8 -183 8h-84v-235h36q97 0 182 5v-55q-85 5 -182 5h-36v-241h89q95 0 183 8z" />
    <glyph glyph-name="F" unicode="F" horiz-adv-x="465" 
d="M193 569v-236h36q122 0 177 4v-55q-55 4 -177 4h-36v-286h-94v616h357v-55q-75 8 -183 8h-80z" />
    <glyph glyph-name="G" unicode="G" horiz-adv-x="655" 
d="M595 316v-264q-41 -32 -101 -48q-62 -18 -125 -18q-90 0 -161 38q-70 37 -109 108q-40 70 -40 168t43 172q42 75 117 117q76 41 170 41q119 0 194 -51l-29 -48q-71 51 -161 51q-74 0 -127 -35t-80 -96q-28 -60 -28 -141q0 -74 27 -136q25 -62 78 -99q52 -38 125 -38
q66 0 118 30v204h-141v45h230z" />
    <glyph glyph-name="H" unicode="H" horiz-adv-x="708" 
d="M619 616v-616h-94v296h-332v-296h-94v616h94v-273h332v273h94z" />
    <glyph glyph-name="I" unicode="I" horiz-adv-x="282" 
d="M99 616h94v-616h-94v616z" />
    <glyph glyph-name="J" unicode="J" horiz-adv-x="285" 
d="M28 -92q46 28 66 76q19 45 19 127v505h93v-459q0 -111 -37 -176q-36 -66 -124 -104z" />
    <glyph glyph-name="K" unicode="K" horiz-adv-x="583" 
d="M238 298h-45v-298h-94v616h94v-271h51q57 60 114 135q58 76 94 136h99q-41 -56 -111 -134q-81 -90 -130 -136l253 -346h-110z" />
    <glyph glyph-name="L" unicode="L" horiz-adv-x="441" 
d="M432 59v-59h-333v616h94v-565h48q85 0 191 8z" />
    <glyph glyph-name="M" unicode="M" horiz-adv-x="826" 
d="M662 0l-26 482l-206 -437h-56l-210 435l-18 -480h-62l41 616h78l225 -475l221 475h72l32 -616h-91z" />
    <glyph glyph-name="N" unicode="N" horiz-adv-x="673" 
d="M589 616v-616h-49l-390 466v-466h-56v616h50l390 -468v468h55z" />
    <glyph glyph-name="O" unicode="O" horiz-adv-x="734" 
d="M203 25q-69 37 -107 110q-37 70 -37 168q0 94 43 168q44 76 116 117q72 42 156 42q97 0 168 -38q69 -38 107 -110q37 -71 37 -169q0 -95 -43 -168q-44 -75 -115 -117q-74 -42 -158 -42q-96 0 -167 39zM484 71q49 39 76 103q26 64 26 133q0 74 -23 138q-22 62 -70 102
q-49 38 -117 38q-66 0 -115 -39q-51 -40 -76 -102q-27 -64 -27 -135q0 -74 23 -138q23 -63 71 -101q46 -39 116 -39q67 0 116 40z" />
    <glyph glyph-name="P" unicode="P" horiz-adv-x="511" 
d="M433 578q68 -47 68 -143q0 -64 -33 -110q-32 -46 -92 -70q-57 -25 -135 -25q-22 0 -48 2v-232h-94v615q54 9 138 9q128 0 196 -46zM360 315q42 44 42 122q0 70 -40 109t-127 39q-18 0 -42 -2v-310q34 -2 37 -2q88 0 130 44z" />
    <glyph glyph-name="Q" unicode="Q" horiz-adv-x="742" 
d="M772 -98q-35 -32 -82 -54q-51 -23 -111 -23q-92 0 -154 40q-64 40 -104 124q-123 13 -193 97q-69 83 -69 217q0 94 43 168q44 76 116 117q72 42 156 42q97 0 168 -38q69 -38 107 -110q37 -71 37 -169q0 -84 -34 -152q-34 -69 -94 -113t-133 -57q24 -60 66 -90t99 -30
q88 0 157 63zM181 171q23 -63 71 -101q46 -39 116 -39q67 0 116 40q49 39 76 103q26 64 26 133q0 74 -23 138q-22 62 -70 102q-49 38 -117 38q-66 0 -115 -39q-51 -40 -76 -102q-27 -64 -27 -135q0 -74 23 -138z" />
    <glyph glyph-name="R" unicode="R" horiz-adv-x="573" 
d="M422 0l-155 260h-15q-6 0 -60 2v-262h-93v615q54 9 138 9q123 0 191 -45q67 -45 67 -136q0 -60 -37 -103q-39 -45 -99 -64l176 -276h-113zM356 339q41 39 41 105q0 69 -36 105t-114 36q-33 0 -55 -3v-280q18 -2 38 -2q86 0 126 39z" />
    <glyph glyph-name="S" unicode="S" horiz-adv-x="492" 
d="M134 2q-50 16 -84 45l31 48q34 -30 77 -45q40 -15 83 -15q57 0 92 30q34 28 34 77q0 43 -28 71t-88 58l-75 38q-61 31 -86 71q-25 38 -25 89q0 73 56 117t149 44q52 0 96 -12t74 -33l-25 -47q-64 46 -137 46q-58 0 -93 -24t-35 -68q0 -39 22 -61q25 -25 84 -55l76 -40
q63 -32 91 -71q28 -40 28 -98q0 -82 -58 -131q-59 -50 -157 -50q-55 0 -102 16z" />
    <glyph glyph-name="T" unicode="T" horiz-adv-x="490" 
d="M490 616v-55q-11 1 -27 3t-26.5 3t-18.5 1q-18 1 -68 1h-54v-569h-93v569h-54q-50 0 -67 -1q-4 0 -72 -7v55h480z" />
    <glyph glyph-name="U" unicode="U" horiz-adv-x="643" 
d="M151 56q-62 71 -62 192v368h93v-338q0 -107 39 -173q37 -67 123 -67q96 0 134 57q38 56 38 160v361h58v-373q0 -119 -60 -188t-177 -69q-125 0 -186 70z" />
    <glyph glyph-name="V" unicode="V" horiz-adv-x="569" 
d="M556 616q-122 -361 -238 -616h-50l-244 616h103l193 -503q85 217 151 503h85z" />
    <glyph glyph-name="W" unicode="W" horiz-adv-x="876" 
d="M857 616q-61 -208 -105 -345q-43 -135 -96 -271h-51l-151 464q-34 -117 -78 -247q-46 -135 -83 -217h-51l-213 616h102l158 -487q63 170 150 487h54l161 -481q74 244 118 481h85z" />
    <glyph glyph-name="X" unicode="X" horiz-adv-x="607" 
d="M467 0l-167 260q-102 -168 -151 -260h-100q44 63 151 204l70 95l-215 317h111l165 -244q71 107 145 244h91q-107 -153 -208 -280l218 -336h-110z" />
    <glyph glyph-name="Y" unicode="Y" horiz-adv-x="537" 
d="M329 272v-272h-94v267l-221 349h105l186 -297q103 199 147 297h81q-99 -180 -204 -344z" />
    <glyph glyph-name="Z" unicode="Z" horiz-adv-x="545" 
d="M501 574l-342 -528h139q124 0 201 6v-52h-445v41l333 530h-130q-127 0 -201 -6v51h445v-42z" />
    <glyph glyph-name="bracketleft" unicode="[" horiz-adv-x="308" 
d="M78 616h210v-45h-117v-684h117v-45h-210v774z" />
    <glyph glyph-name="backslash" unicode="\" horiz-adv-x="329" 
d="M271 -158l-271 774h58l271 -774h-58z" />
    <glyph glyph-name="bracketright" unicode="]" horiz-adv-x="308" 
d="M230 -158h-210v45h117v684h-117v45h210v-774z" />
    <glyph glyph-name="asciicircum" unicode="^" horiz-adv-x="534" 
d="M408 275l-141 273l-141 -273h-64l181 341h48l181 -341h-64z" />
    <glyph glyph-name="underscore" unicode="_" horiz-adv-x="480" 
d="M40 -19h400v-55h-400v55z" />
    <glyph glyph-name="grave" unicode="`" horiz-adv-x="543" 
d="M157 602l52 58q64 -47 146 -119l-17 -24q-54 27 -181 85z" />
    <glyph glyph-name="a" unicode="a" horiz-adv-x="498" 
d="M390 424q44 -49 44 -145v-279h-59l-21 77q-22 -46 -64 -68q-43 -23 -96 -23q-65 0 -112 35t-47 102q0 77 58 117q59 39 158 39q50 0 96 -8v16q0 67 -24 102q-26 35 -88 35q-37 0 -73 -13q-37 -13 -70 -39l-23 42q33 26 85 43q50 15 96 15q95 0 140 -48zM310 80
q37 40 37 120v34q-32 7 -70 7q-72 0 -112 -28t-40 -82q0 -42 26 -68q25 -25 66 -25q55 0 93 42z" />
    <glyph glyph-name="b" unicode="b" horiz-adv-x="562" 
d="M427 445q43 -27 67 -79q24 -53 24 -125q0 -77 -27 -134q-28 -57 -75 -89q-49 -32 -107 -32q-53 0 -93 21q-41 20 -59 60l-19 -67h-59v661h89v-260q30 36 72 54q42 17 89 17q55 0 98 -27zM391 97q32 59 32 142q0 80 -28 132q-29 51 -95 51q-40 0 -75 -21q-34 -21 -57 -59
v-138q0 -81 33 -123q31 -42 89 -42q68 0 101 58z" />
    <glyph glyph-name="c" unicode="c" horiz-adv-x="445" 
d="M104 51q-60 65 -60 171q0 69 32 128q32 57 87 90q56 32 128 32q81 0 132 -36l-23 -42q-43 34 -96 34q-54 0 -92 -29q-38 -30 -54 -75q-17 -46 -17 -93q0 -89 39 -141q38 -54 120 -54q60 0 104 38l22 -37q-28 -25 -65 -37q-42 -14 -86 -14q-112 0 -171 65z" />
    <glyph glyph-name="d" unicode="d" horiz-adv-x="562" 
d="M483 661v-661h-58l-23 83q-20 -46 -61 -71q-44 -26 -97 -26q-92 0 -146 63t-54 176q0 74 30 131q30 56 81 86t112 30q81 0 127 -52v241h89zM360 88q34 49 34 135v136q-42 65 -115 65q-69 0 -104 -56q-36 -56 -36 -139q0 -78 32 -134q31 -57 92 -57q62 0 97 50z" />
    <glyph glyph-name="e" unicode="e" horiz-adv-x="498" 
d="M456 229h-317q2 -87 42 -139q41 -54 116 -54q35 0 64 9t57 30l23 -37q-64 -52 -161 -52q-117 0 -176 68q-60 68 -60 174q0 68 28 123q29 56 80 88q51 33 117 33q95 0 143 -57q47 -58 47 -148q0 -20 -3 -38zM177 388q-34 -47 -38 -119h223q2 12 2 25q0 57 -23 100
q-23 41 -77 41t-87 -47z" />
    <glyph glyph-name="f" unicode="f" horiz-adv-x="318" 
d="M217 595q-25 -40 -25 -116v-21h133v-40h-133v-418h-88v418h-89v40h89v8q0 98 48 154q46 55 140 55q59 0 101 -27l-20 -36q-35 23 -75 23q-57 0 -81 -40z" />
    <glyph glyph-name="g" unicode="g" horiz-adv-x="544" 
d="M483 458v-418q0 -116 -57 -180q-59 -65 -172 -65q-83 0 -149 36l24 47q61 -35 127 -35q74 0 106 45q32 46 32 130v64q-16 -39 -59 -64q-41 -25 -95 -25q-93 0 -144 64q-52 62 -52 172q0 74 29 130q28 55 80 84t113 29q98 0 144 -72l16 58h57zM359 93q35 47 35 131v130
q-43 70 -115 70q-71 0 -105 -55q-35 -56 -35 -140q0 -75 32 -130q31 -54 93 -54q59 0 95 48z" />
    <glyph glyph-name="h" unicode="h" horiz-adv-x="552" 
d="M448 418q40 -53 40 -146v-272h-89v247q0 77 -20 126q-20 47 -80 47q-61 0 -95 -52q-36 -52 -36 -145v-223h-89v661h89v-278q23 44 64 66q43 23 89 23q87 0 127 -54z" />
    <glyph glyph-name="i" unicode="i" horiz-adv-x="255" 
d="M84 556q-15 14 -15 37q0 24 15 39q13 15 43 15q29 0 45 -15q15 -15 15 -38t-16 -38q-17 -15 -44 -15q-28 0 -43 15zM82 458h91v-458h-91v458z" />
    <glyph glyph-name="j" unicode="j" horiz-adv-x="249" 
d="M87 556q-15 14 -15 37q0 24 15 39q14 15 43 15q28 0 45 -15q15 -15 15 -38t-16 -38t-44 -15t-43 15zM8 -150q46 31 62 73q17 43 17 126v409h89v-347q0 -113 -32 -185q-31 -69 -115 -107z" />
    <glyph glyph-name="k" unicode="k" horiz-adv-x="489" 
d="M215 224h-47v-224h-89v661h89v-391h52q64 64 146 188h88q-85 -109 -178 -193l203 -265h-100z" />
    <glyph glyph-name="l" unicode="l" horiz-adv-x="246" 
d="M79 661h89v-661h-89v661z" />
    <glyph glyph-name="m" unicode="m" horiz-adv-x="854" 
d="M783 273v-273h-89v249q0 77 -17 125q-16 46 -71 46q-58 0 -91 -48q-34 -49 -34 -137v-235h-89v249q0 79 -18 125q-19 46 -77 46q-57 0 -91 -51q-36 -51 -36 -138v-231h-89v458h59l23 -83q22 46 68 72q44 25 94 25q55 0 91 -27q37 -29 50 -72q23 48 67 73q44 26 89 26
q161 0 161 -199z" />
    <glyph glyph-name="n" unicode="n" horiz-adv-x="563" 
d="M452 418q40 -53 40 -146v-272h-89v247q0 79 -19 126q-20 47 -80 47q-62 0 -96 -52q-36 -52 -36 -142v-226h-91v458h59l23 -84q26 48 68 73q43 25 95 25q86 0 126 -54z" />
    <glyph glyph-name="o" unicode="o" horiz-adv-x="545" 
d="M105 50q-61 64 -61 179q0 70 32 126q31 55 83 86t113 31q106 0 168 -63q61 -64 61 -179q0 -71 -31 -126q-32 -56 -84 -87t-114 -31q-106 0 -167 64zM371 86q35 61 35 144q0 85 -32 144q-33 58 -101 58q-65 0 -99 -60q-35 -61 -35 -143q0 -85 33 -144q32 -59 100 -59
q64 0 99 60z" />
    <glyph glyph-name="p" unicode="p" horiz-adv-x="562" 
d="M465 411q53 -62 53 -170q0 -78 -28 -134q-28 -58 -76 -89q-49 -32 -108 -32q-44 0 -81 17q-36 17 -57 51v-245h-89v649h58l18 -65q31 41 75 60q42 19 91 19q90 0 144 -61zM391 97q32 58 32 141q0 80 -28 132t-95 52q-40 0 -74 -21q-36 -21 -58 -61v-135q0 -82 34 -123
q33 -43 88 -43q68 0 101 58z" />
    <glyph glyph-name="q" unicode="q" horiz-adv-x="552" 
d="M483 458v-649h-89v266q-18 -41 -60 -65t-93 -24q-94 0 -145 64q-52 64 -52 175q0 77 30 132q28 54 80 85q50 30 113 30q93 0 143 -71l16 57h57zM359 86q35 49 35 134v135q-22 36 -52 53q-29 16 -62 16q-71 0 -106 -56q-35 -58 -35 -143q0 -76 32 -132q31 -55 93 -55
q59 0 95 48z" />
    <glyph glyph-name="r" unicode="r" horiz-adv-x="338" 
d="M333 463v-68q-16 3 -35 3q-60 0 -93 -37t-33 -113v-248h-91v458h59l24 -87q20 43 56 69q38 26 84 26q14 0 29 -3z" />
    <glyph glyph-name="s" unicode="s" horiz-adv-x="416" 
d="M125 -3q-43 11 -81 39l24 44q65 -46 137 -46q44 0 70 18t26 52q0 30 -19 48q-21 18 -65 37l-60 27q-100 45 -100 126q0 62 48 96q47 34 122 34q82 0 138 -34l-20 -45q-53 35 -116 35q-43 0 -69 -17t-26 -46q0 -25 17 -42t54 -35l73 -34q52 -24 76 -55q23 -32 23 -73
q0 -65 -48 -103q-47 -37 -121 -37q-37 0 -83 11z" />
    <glyph glyph-name="t" unicode="t" horiz-adv-x="364" 
d="M344 27q-24 -21 -53 -31q-26 -10 -59 -10q-72 0 -100 49t-28 139v244h-89v40h89v125h88v-125h133v-40h-133v-232q0 -77 13 -113q12 -39 52 -39q16 0 33 7q19 8 33 19z" />
    <glyph glyph-name="u" unicode="u" horiz-adv-x="561" 
d="M482 458v-458h-59l-24 85q-22 -47 -66 -73t-93 -26q-84 0 -125 54q-41 53 -41 145v273h89v-248q0 -76 20 -124q20 -47 79 -47q60 0 94 52q35 52 35 139v228h91z" />
    <glyph glyph-name="v" unicode="v" horiz-adv-x="446" 
d="M441 458q-111 -301 -190 -458h-56l-186 458h97l140 -364q27 64 65 180q33 106 51 184h79z" />
    <glyph glyph-name="w" unicode="w" horiz-adv-x="687" 
d="M677 458q-75 -268 -159 -458h-62l-107 323q-57 -184 -121 -323h-61l-158 458h93l119 -364q53 138 118 364h48l120 -363q53 151 93 363h77z" />
    <glyph glyph-name="x" unicode="x" horiz-adv-x="475" 
d="M352 0l-129 190q-66 -114 -107 -190h-87q70 97 167 224l-161 234h101l120 -176q63 98 103 176h86q-91 -122 -162 -209l172 -249h-103z" />
    <glyph glyph-name="y" unicode="y" horiz-adv-x="547" 
d="M481 458v-409q0 -254 -232 -254q-83 0 -144 36l23 47q64 -35 127 -35q75 0 106 45q31 44 31 131v66q-16 -41 -57 -67q-40 -25 -91 -25q-170 0 -170 201v264h89v-242q0 -76 21 -122q21 -48 81 -48q56 0 92 51q35 52 35 136v225h89z" />
    <glyph glyph-name="z" unicode="z" horiz-adv-x="429" 
d="M390 420l-240 -376l238 1v-45h-341v38l241 377l-243 -2v45h345v-38z" />
    <glyph glyph-name="braceleft" unicode="{" horiz-adv-x="320" 
d="M190 581q-18 -17 -18 -57q0 -18 6 -36q4 -13 20 -52q16 -36 23 -58t7 -50q0 -37 -16 -62q-17 -27 -48 -37q31 -10 48 -37q16 -25 16 -62q0 -28 -7 -49q-7 -22 -23 -59q-16 -40 -20 -51q-6 -20 -6 -37q0 -40 18 -57q19 -17 55 -17q21 0 36 6v-30q-24 -8 -50 -8
q-67 0 -106 30q-40 28 -40 86q0 22 6 41q5 18 21 55q14 33 21 54q7 18 7 43q0 31 -15 51t-47 20h-10v42h10q32 0 47 20t15 51q0 24 -7 45q-9 24 -21 53q-15 37 -20 54q-7 18 -7 41q0 57 40 87q40 29 106 29q26 0 50 -8v-30q-15 6 -36 6q-36 0 -55 -17z" />
    <glyph glyph-name="bar" unicode="|" horiz-adv-x="254" 
d="M98 661h58v-852h-58v852z" />
    <glyph glyph-name="braceright" unicode="}" horiz-adv-x="320" 
d="M252 250v-42h-10q-32 0 -47 -20t-15 -51q0 -24 7 -44q7 -23 21 -54q10 -25 21 -53q6 -21 6 -42q0 -58 -39 -86q-40 -30 -107 -30q-26 0 -50 8v30q15 -6 36 -6q36 0 55 17q18 17 18 57q0 18 -6 37q-4 11 -20 51q-13 29 -22 59q-8 24 -8 49q0 37 16 62q17 27 48 37
q-31 10 -48 37q-16 25 -16 62q0 24 8 50q11 32 22 58q16 39 20 52q6 18 6 36q0 40 -18 57q-19 17 -55 17q-21 0 -36 -6v30q24 8 50 8q66 0 107 -29q39 -30 39 -87q0 -22 -6 -41q-5 -18 -21 -55q-10 -25 -21 -53q-7 -20 -7 -44q0 -31 15 -51t47 -20h10z" />
    <glyph glyph-name="asciitilde" unicode="~" horiz-adv-x="534" 
d="M40 203q26 45 54 66t73 21q29 0 63 -15l91 -35q26 -9 33 -11q10 -3 23 -3q22 0 40 12t40 46l37 -23q-26 -46 -53 -66q-29 -21 -73 -21q-23 0 -62 14l-90 35q-18 6 -34 12q-12 3 -24 3q-22 0 -41 -11q-17 -11 -40 -48z" />
    <glyph glyph-name="tcaron" unicode="&#xa0;" horiz-adv-x="218" 
 />
    <glyph glyph-name="exclamdown" unicode="&#xa1;" horiz-adv-x="285" 
d="M185 457q16 -16 16 -40q0 -25 -16 -40q-16 -16 -44 -16q-27 0 -42 16q-15 15 -15 40q0 23 16 39q15 16 42 16q26 0 43 -15zM200 -158h-114q21 260 30 429h56q7 -167 28 -429z" />
    <glyph glyph-name="cent" unicode="&#xa2;" horiz-adv-x="466" 
d="M389 91q-38 -14 -78 -17v-88h-41v87q-108 4 -167 72q-59 67 -59 173q0 64 29 117t80 85q53 33 117 37v73h41v-72q84 -3 134 -36l-24 -42q-43 31 -110 34v-391q37 2 64 11q29 11 50 27l23 -37q-22 -19 -59 -33zM172 190q32 -55 98 -65v387q-65 -11 -97 -65
q-33 -54 -33 -120q0 -82 32 -137z" />
    <glyph glyph-name="sterling" unicode="&#xa3;" horiz-adv-x="456" 
d="M208 146q-25 -46 -67 -71h290v-75h-382v60q48 23 74 65q24 41 24 93q0 35 -11 79h-82v41h67q0 2 -1.5 5.5t-4.5 11t-5 14.5q-10 27 -14 48q-5 27 -5 49q0 44 23 82t67 60t110 22q85 0 144 -41l-25 -41q-56 42 -124 42q-53 0 -84 -29q-30 -30 -30 -81q0 -29 7 -50
q6 -23 21 -61l12 -31h150v-41h-137q7 -29 7 -57q0 -50 -24 -94z" />
    <glyph glyph-name="currency" unicode="&#xa4;" horiz-adv-x="527" 
d="M414 180l66 -67l-28 -28l-68 65q-49 -40 -120 -40q-68 0 -121 41l-67 -66l-29 28l67 67q-40 50 -40 123q0 72 39 122l-66 66l29 28l66 -63q53 41 122 41q72 0 122 -42l66 64l28 -28l-64 -66q38 -52 38 -122q0 -73 -40 -123zM357 201q34 37 34 102q0 66 -34 104
q-35 38 -93 38t-93 -38q-35 -40 -35 -104t35 -102q35 -39 93 -39t93 39z" />
    <glyph glyph-name="yen" unicode="&#xa5;" horiz-adv-x="535" 
d="M330 308h106v-39h-112v-62h112v-39h-112v-168h-89v168h-112v39h112v62h-112v39h102l-211 308h105l183 -269q62 107 80 140q31 56 68 129h81q-77 -130 -201 -308z" />
    <glyph glyph-name="brokenbar" unicode="&#xa6;" horiz-adv-x="254" 
d="M98 661h58v-353h-58v353zM98 162h58v-353h-58v353z" />
    <glyph glyph-name="section" unicode="&#xa7;" horiz-adv-x="444" 
d="M383 -29q0 -69 -46 -106t-121 -37q-88 0 -149 48l27 40q28 -22 60 -33q33 -11 60 -11q42 0 68 20q25 19 25 50q0 33 -17 53q-18 20 -62 47l-81 49q-55 32 -81 65q-27 34 -27 81q0 41 27 76q24 32 68 56q-63 51 -63 116q0 69 47 107t120 38q88 0 149 -48l-27 -40
q-28 22 -60 33q-33 11 -60 11q-42 0 -67 -21q-26 -21 -26 -50q0 -33 18 -53q16 -20 61 -48l81 -49q53 -31 81 -65q27 -33 27 -79q0 -41 -27 -75q-29 -37 -70 -58q65 -50 65 -117zM279 115l11 -7q45 38 45 83q0 35 -21 59q-23 23 -70 51l-69 41l-11 7q-44 -36 -44 -82
q0 -37 22 -60q20 -24 68 -52z" />
    <glyph glyph-name="dieresis" unicode="&#xa8;" horiz-adv-x="543" 
d="M125 553q-13 13 -13 35t14 38q14 14 36 14t35 -15q14 -16 14 -36q0 -19 -14 -35q-15 -16 -37 -16t-35 15zM303 553q-14 14 -14 35t14 37q13 15 37 15q21 0 35 -14q13 -14 13 -37q0 -19 -14 -35q-13 -16 -36 -16q-22 0 -35 15z" />
    <glyph glyph-name="copyright" unicode="&#xa9;" horiz-adv-x="587" 
d="M156 191q-61 33 -96 92t-35 134t35 134q34 58 96 91t139 33t138 -33q62 -33 96 -91t34 -134t-34 -134q-35 -59 -96 -92t-138 -33t-139 33zM409 224q50 29 78 79q28 49 28 114t-28 114q-29 49 -78 78q-49 28 -114 28q-66 0 -115 -28q-50 -28 -79 -78q-28 -49 -28 -114
t28 -114q28 -51 79 -79q49 -28 115 -28q65 0 114 28zM192 319q-38 38 -38 100q0 41 20 76q20 33 56 53q34 19 81 19q53 0 88 -24l-16 -28q-26 20 -64 20q-49 0 -71 -33q-24 -33 -24 -76q0 -49 22 -78q22 -30 68 -30q42 0 71 24l17 -26q-17 -16 -45 -25q-26 -10 -57 -10
q-70 0 -108 38z" />
    <glyph glyph-name="ordfeminine" unicode="&#xaa;" horiz-adv-x="374" 
d="M253 549v11q0 37 -16 56q-16 18 -58 18q-49 0 -95 -36l-21 35q24 19 63 31q38 11 68 11q72 0 104 -31q32 -32 32 -92v-201h-52l-14 52q-17 -32 -45 -47q-30 -15 -67 -15q-48 0 -79 27q-31 25 -31 74q0 56 40 84t111 28q23 0 60 -5zM232 412q21 28 21 83v24q-17 4 -46 4
q-42 0 -67 -19t-25 -55q0 -30 18 -48q17 -18 41 -18q35 0 58 29zM331 298v-42h-283v42h283z" />
    <glyph glyph-name="guillemotleft" unicode="&#xab;" horiz-adv-x="348" 
d="M100 230q54 -78 86 -138l-31 -18q-54 64 -144 150v2q79 76 144 149l31 -15q-26 -50 -86 -130zM257 230q54 -78 86 -138l-31 -18q-54 64 -144 150v2q79 76 144 149l31 -15q-26 -50 -86 -130z" />
    <glyph glyph-name="logicalnot" unicode="&#xac;" horiz-adv-x="534" 
d="M406 301h-356v50h414v-240h-58v190z" />
    <glyph glyph-name="sterling.osf" unicode="&#xad;" horiz-adv-x="284" 
d="M40 255h204v-51h-204v51z" />
    <glyph glyph-name="registered" unicode="&#xae;" horiz-adv-x="586" 
d="M432 643q61 -33 96 -92q34 -58 34 -134t-34 -134q-35 -59 -96 -92q-62 -33 -138 -33q-78 0 -139 33q-60 32 -95 92q-35 59 -35 134t35 134q35 60 95 92q61 33 139 33q76 0 138 -33zM408 224q50 29 78 79q28 49 28 114q0 66 -28 115q-28 50 -78 78q-49 28 -114 28
q-66 0 -115 -28t-78 -78q-28 -49 -28 -115q0 -65 28 -114q28 -50 78 -79q49 -28 115 -28q65 0 114 28zM391 433q-16 -22 -47 -33l75 -106h-74l-64 97q-4 0 -26 2v-99h-66v267q18 4 41 5q17 1 43 1q67 0 102 -21q33 -21 33 -66q0 -25 -17 -47zM269 425q37 0 55 15
q17 15 17 41q0 27 -15 41q-14 13 -48 13q-11 0 -23 -2v-107q3 -1 14 -1z" />
    <glyph glyph-name="macron" unicode="&#xaf;" horiz-adv-x="543" 
d="M133 618h234v-49h-234v49z" />
    <glyph glyph-name="degree" unicode="&#xb0;" horiz-adv-x="246" 
d="M54 526q-25 25 -25 62t25 62t69 25q45 0 70 -25t25 -62t-25 -62t-71 -25q-44 0 -68 25zM155 540q12 16 12 42q0 33 -11 53q-10 19 -32 19q-21 0 -32 -18q-11 -20 -11 -48t11 -47q10 -19 31 -19q20 0 32 18z" />
    <glyph glyph-name="plusminus" unicode="&#xb1;" horiz-adv-x="534" 
d="M474 324v-48h-177v-173h-58v173h-179v48h179v172h58v-172h177zM60 48h414v-48h-414v48z" />
    <glyph glyph-name="twosuperior" unicode="&#xb2;" horiz-adv-x="355" 
d="M255 524q-51 -57 -143 -122h194v-62h-271v49q92 72 146 131q48 54 48 108q0 30 -18 50q-19 18 -55 18q-49 0 -95 -37l-21 34q28 22 65 36q34 12 70 12q62 0 97 -29q34 -28 34 -77q0 -54 -51 -111z" />
    <glyph glyph-name="threesuperior" unicode="&#xb3;" horiz-adv-x="357" 
d="M286 537q32 -29 32 -78q0 -57 -43 -91t-113 -34q-66 0 -118 29l22 43q23 -17 44 -24q22 -8 47 -8q38 0 62 21q23 21 23 57q0 35 -22 54q-23 20 -64 20q-24 0 -47 -9v38q63 68 125 123h-175v56h240v-49q-50 -43 -132 -122q15 3 27 3q58 0 92 -29z" />
    <glyph glyph-name="acute" unicode="&#xb4;" horiz-adv-x="543" 
d="M170 538q34 36 123 119l59 -45q-69 -35 -166 -95z" />
    <glyph glyph-name="mu" unicode="&#xb5;" horiz-adv-x="591" 
d="M586 20q-40 -34 -90 -34q-34 0 -56 19q-22 17 -28 65q-25 -42 -65 -63q-39 -21 -88 -21q-50 0 -90 29v-206h-90v649h90v-240q0 -84 24 -132q23 -48 85 -48q58 0 94 48q35 49 35 121v251h91v-354q0 -32 7 -46q7 -16 23 -16q18 0 37 15z" />
    <glyph glyph-name="paragraph" unicode="&#xb6;" horiz-adv-x="550" 
d="M531 569h-61v-485q0 -129 -51 -192q-51 -64 -171 -64q-50 0 -95 15q-44 13 -79 42l33 43q67 -52 151 -52q83 0 119 49q36 48 36 152v492h-85v-414h-50q-76 0 -132 29q-57 28 -87 81t-30 120q0 69 30 122t87 81q55 28 132 28h253v-47z" />
    <glyph glyph-name="periodcentered" unicode="&#xb7;" horiz-adv-x="188" 
d="M51 186q-16 15 -16 39t17 41q17 15 43 15q27 0 42 -15q15 -17 15 -41q0 -23 -15 -39q-16 -16 -43 -16t-43 16z" />
    <glyph glyph-name="cedilla" unicode="&#xb8;" horiz-adv-x="543" 
d="M309 -65q20 -18 20 -49q0 -35 -26 -56q-25 -21 -69 -21q-34 0 -61 12l11 37q20 -11 48 -11q16 0 27 7q12 8 12 23q0 14 -11 22q-10 7 -27 7q-23 0 -34 -3l28 97h41l-15 -48h3q31 0 53 -17z" />
    <glyph glyph-name="onesuperior" unicode="&#xb9;" horiz-adv-x="295" 
d="M206 734v-394h-76v304q-42 -22 -83 -31l-12 29q76 39 131 92h40z" />
    <glyph glyph-name="ordmasculine" unicode="&#xba;" horiz-adv-x="373" 
d="M66 385q-42 43 -42 122q0 49 23 89q23 38 60 59q38 20 83 20q76 0 118 -42q41 -44 41 -124q0 -50 -22 -87q-22 -38 -61 -60q-37 -22 -83 -22q-75 0 -117 45zM246 413q22 41 22 97q0 60 -18 97q-19 37 -60 37q-40 0 -63 -39q-22 -40 -22 -97t19 -96q20 -41 59 -41
q41 0 63 42zM41 298h283v-42h-283v42z" />
    <glyph glyph-name="guillemotright" unicode="&#xbb;" horiz-adv-x="348" 
d="M180 227q-79 -76 -144 -149l-31 15q26 50 86 130q-54 78 -86 138l31 18q54 -65 144 -150v-2zM337 229v-2q-79 -76 -144 -149l-31 15q26 50 86 130q-54 78 -86 138l31 18q54 -65 144 -150z" />
    <glyph glyph-name="onequarter" unicode="&#xbc;" horiz-adv-x="791" 
d="M135 223v304q-31 -18 -84 -32l-12 30q75 37 132 91h39v-393h-75zM629 616l-401 -616h-67l402 616h66zM781 79h-41v-79h-70v79h-205v49q130 121 165 266h90q-23 -65 -78 -140q-55 -73 -122 -124h150v100h70v-100h41v-51z" />
    <glyph glyph-name="onehalf" unicode="&#xbd;" horiz-adv-x="852" 
d="M135 223v304q-31 -18 -84 -32l-12 30q75 37 132 91h39v-393h-75zM629 616l-401 -616h-67l402 616h66zM742 184q-51 -57 -143 -122h194v-62h-271v49q96 75 145 130t49 109q0 31 -19 50q-19 18 -57 18q-46 0 -92 -37l-21 33q27 22 64 37q35 12 71 12q62 0 97 -29
q34 -28 34 -78q0 -53 -51 -110z" />
    <glyph glyph-name="threequarters" unicode="&#xbe;" horiz-adv-x="848" 
d="M261 250q-43 -34 -113 -34q-66 0 -118 29l22 43q19 -15 43 -23q22 -8 48 -8q38 0 62 21q23 20 23 56q0 35 -22 54q-23 20 -64 20q-24 0 -47 -9v38q58 63 125 124h-175v55h240v-49q-65 -55 -131 -121q14 3 26 3q58 0 92 -29q32 -30 32 -78q0 -58 -43 -92zM686 616
l-402 -616h-66l401 616h67zM838 79h-42v-79h-69v79h-206v49q132 123 166 266h89q-21 -65 -78 -140q-55 -73 -122 -124h151v100h69v-100h42v-51z" />
    <glyph glyph-name="questiondown" unicode="&#xbf;" horiz-adv-x="383" 
d="M260 457q18 -17 18 -39q0 -25 -16 -40q-16 -16 -44 -16q-27 0 -42 16q-15 15 -15 40q0 23 14 40q13 15 40 15q28 0 45 -16zM252 225q0 -69 -43 -115q-2 -2 -6.5 -6t-12 -11.5t-14.5 -13.5q-35 -32 -48 -52q-15 -23 -15 -58q0 -39 27 -65q26 -27 71 -27q76 0 134 61
l30 -38q-33 -31 -79 -50q-50 -21 -104 -21q-84 0 -130 38q-45 37 -45 97q0 33 17 62q18 30 38 48q21 20 57 48q39 30 54 65q14 36 11 85h53q5 -28 5 -47z" />
    <glyph glyph-name="Agrave" unicode="&#xc0;" horiz-adv-x="589" 
d="M398 184h-231l-66 -184h-72l249 616h56l231 -616h-103zM383 227l-98 284l-102 -284h200zM170 747l46 56q100 -61 155 -109l-18 -24q-67 32 -183 77z" />
    <glyph glyph-name="Aacute" unicode="&#xc1;" horiz-adv-x="589" 
d="M398 184h-231l-66 -184h-72l249 616h56l231 -616h-103zM383 227l-98 284l-102 -284h200zM242 691q48 42 141 109l57 -49q-128 -55 -184 -82z" />
    <glyph glyph-name="Acircumflex" unicode="&#xc2;" horiz-adv-x="589" 
d="M398 184h-231l-66 -184h-72l249 616h56l231 -616h-103zM383 227l-98 284l-102 -284h200zM407 675l-108 66l-107 -66l-19 22q72 64 114 104h28q42 -40 114 -104z" />
    <glyph glyph-name="Atilde" unicode="&#xc3;" horiz-adv-x="589" 
d="M398 184h-231l-66 -184h-72l249 616h56l231 -616h-103zM383 227l-98 284l-102 -284h200zM161 700q37 88 87 88q13 0 22 -3q2 -1 4.5 -2t4 -2t3.5 -2l4 -2l4 -2l4 -2l1 -1l39 -23q19 -13 30 -13q12 0 23 11q12 12 24 35l29 -15q-15 -41 -38 -64q-22 -24 -49 -24
q-16 0 -25 4q-11 5 -22 13l-38 26q-16 12 -30 12q-12 0 -23 -12q-9 -10 -25 -39z" />
    <glyph glyph-name="Adieresis" unicode="&#xc4;" horiz-adv-x="589" 
d="M398 184h-231l-66 -184h-72l249 616h56l231 -616h-103zM383 227l-98 284l-102 -284h200zM176 695q-13 13 -13 35t14 38q14 14 36 14q21 0 35 -15q14 -16 14 -36q0 -19 -14 -35q-15 -16 -37 -16q-21 0 -35 15zM354 695q-14 14 -14 35t14 37q14 15 37 15q21 0 35 -14
q13 -14 13 -37q0 -19 -14 -35q-13 -16 -36 -16q-21 0 -35 15z" />
    <glyph glyph-name="Aring" unicode="&#xc5;" horiz-adv-x="589" 
d="M398 184h-231l-66 -184h-72l249 616h56l231 -616h-103zM383 227l-98 284l-102 -284h200zM233 689q-25 19 -25 53q0 36 27 58q27 21 65 21q45 0 70 -19q24 -20 24 -57q0 -33 -27 -54q-29 -21 -66 -21q-45 0 -68 19zM331 711q11 14 11 35t-9 36q-10 15 -32 15
q-20 0 -30 -16q-11 -17 -11 -36q0 -49 41 -49q19 0 30 15z" />
    <glyph glyph-name="AE" unicode="&#xc6;" horiz-adv-x="811" 
d="M771 56v-56h-356v186h-219l-106 -186h-81l372 616h389v-55q-67 6 -85 7q-25 1 -96 1h-82v-235h28q70 0 182 5v-55q-112 5 -182 5h-28v-241h82q94 0 182 8zM415 228v341h-2l-194 -341h196z" />
    <glyph glyph-name="Ccedilla" unicode="&#xc7;" horiz-adv-x="567" 
d="M422 -65q20 -18 20 -49q0 -35 -26 -56t-69 -21q-34 0 -61 12l11 37q20 -11 48 -11q16 0 27 7q12 8 12 23q0 14 -11 22q-10 7 -27 7q-24 0 -34 -3l24 84q-129 10 -203 94q-74 83 -74 220q0 99 43 173q44 76 118 116q73 40 166 40q98 0 168 -42l-28 -48q-59 41 -138 41
q-72 0 -123 -36q-52 -37 -77 -97q-27 -62 -27 -137q0 -121 57 -197q56 -77 163 -77q89 0 151 48l25 -40q-40 -30 -84 -43q-45 -14 -96 -16l-11 -34h3q31 0 53 -17z" />
    <glyph glyph-name="Egrave" unicode="&#xc8;" horiz-adv-x="503" 
d="M463 56v-56h-364v616h359v-55q-88 8 -183 8h-84v-235h36q97 0 182 5v-55q-85 5 -182 5h-36v-241h89q95 0 183 8zM152 747l46 56q100 -61 155 -109l-18 -24q-67 32 -183 77z" />
    <glyph glyph-name="Eacute" unicode="&#xc9;" horiz-adv-x="503" 
d="M463 56v-56h-364v616h359v-55q-88 8 -183 8h-84v-235h36q97 0 182 5v-55q-85 5 -182 5h-36v-241h89q95 0 183 8zM224 691q48 42 141 109l57 -49q-128 -55 -184 -82z" />
    <glyph glyph-name="Ecircumflex" unicode="&#xca;" horiz-adv-x="503" 
d="M463 56v-56h-364v616h359v-55q-88 8 -183 8h-84v-235h36q97 0 182 5v-55q-85 5 -182 5h-36v-241h89q95 0 183 8zM389 675l-108 66l-107 -66l-19 22q72 64 114 104h28q42 -40 114 -104z" />
    <glyph glyph-name="Edieresis" unicode="&#xcb;" horiz-adv-x="503" 
d="M463 56v-56h-364v616h359v-55q-88 8 -183 8h-84v-235h36q97 0 182 5v-55q-85 5 -182 5h-36v-241h89q95 0 183 8zM158 695q-13 13 -13 35t14 38q14 14 36 14q21 0 35 -15q14 -16 14 -36q0 -19 -14 -35q-15 -16 -37 -16q-21 0 -35 15zM336 695q-14 14 -14 35t14 37
q14 15 37 15q21 0 35 -14q13 -14 13 -37q0 -19 -14 -35q-13 -16 -36 -16q-21 0 -35 15z" />
    <glyph glyph-name="Igrave" unicode="&#xcc;" horiz-adv-x="282" 
d="M99 616h94v-616h-94v616zM14 747l46 56q100 -61 155 -109l-18 -24q-67 32 -183 77z" />
    <glyph glyph-name="Iacute" unicode="&#xcd;" horiz-adv-x="282" 
d="M99 616h94v-616h-94v616zM86 691q48 42 141 109l57 -49q-128 -55 -184 -82z" />
    <glyph glyph-name="Icircumflex" unicode="&#xce;" horiz-adv-x="282" 
d="M99 616h94v-616h-94v616zM251 675l-108 66l-107 -66l-19 22q72 64 114 104h28q42 -40 114 -104z" />
    <glyph glyph-name="Idieresis" unicode="&#xcf;" horiz-adv-x="282" 
d="M99 616h94v-616h-94v616zM20 695q-13 13 -13 35t14 38q14 14 36 14q21 0 35 -15q14 -16 14 -36q0 -19 -14 -35q-15 -16 -37 -16t-35 15zM198 695q-14 14 -14 35t14 37q13 15 37 15q21 0 35 -14q13 -14 13 -37q0 -19 -14 -35q-13 -16 -36 -16q-21 0 -35 15z" />
    <glyph glyph-name="Eth" unicode="&#xd0;" horiz-adv-x="699" 
d="M562 541q86 -84 86 -223q0 -89 -37 -162q-38 -74 -120 -119q-83 -46 -216 -46q-89 0 -163 11v297h-77v42h77v273q66 10 167 10q195 0 283 -83zM488 116q60 80 60 200q0 118 -63 192q-63 73 -215 73q-37 0 -65 -5v-235h147v-42h-147v-258q50 -5 75 -5q146 0 208 80z" />
    <glyph glyph-name="Ntilde" unicode="&#xd1;" horiz-adv-x="673" 
d="M589 616v-616h-49l-390 466v-466h-56v616h50l390 -468v468h55zM206 700q37 88 87 88q13 0 22 -3q2 -1 4.5 -2t4 -2t3.5 -2l4 -2l4 -2t3 -2l2 -1l39 -23q19 -13 30 -13q12 0 23 11q12 12 24 35l29 -15q-15 -41 -38 -64q-23 -24 -49 -24q-16 0 -25 4q-11 5 -22 13l-38 26
q-17 12 -30 12t-23 -12q-9 -10 -25 -39z" />
    <glyph glyph-name="Ograve" unicode="&#xd2;" horiz-adv-x="734" 
d="M203 25q-69 37 -107 110q-37 70 -37 168q0 94 43 168q44 76 116 117q72 42 156 42q97 0 168 -38q69 -38 107 -110q37 -71 37 -169q0 -95 -43 -168q-44 -75 -115 -117q-74 -42 -158 -42q-96 0 -167 39zM484 71q49 39 76 103q26 64 26 133q0 74 -23 138q-22 62 -70 102
q-49 38 -117 38q-66 0 -115 -39q-51 -40 -76 -102q-27 -64 -27 -135q0 -74 23 -138q23 -63 71 -101q46 -39 116 -39q67 0 116 40zM244 747l46 56q100 -61 155 -109l-18 -24q-67 32 -183 77z" />
    <glyph glyph-name="Oacute" unicode="&#xd3;" horiz-adv-x="734" 
d="M203 25q-69 37 -107 110q-37 70 -37 168q0 94 43 168q44 76 116 117q72 42 156 42q97 0 168 -38q69 -38 107 -110q37 -71 37 -169q0 -95 -43 -168q-44 -75 -115 -117q-74 -42 -158 -42q-96 0 -167 39zM484 71q49 39 76 103q26 64 26 133q0 74 -23 138q-22 62 -70 102
q-49 38 -117 38q-66 0 -115 -39q-51 -40 -76 -102q-27 -64 -27 -135q0 -74 23 -138q23 -63 71 -101q46 -39 116 -39q67 0 116 40zM316 691q48 42 141 109l57 -49q-128 -55 -184 -82z" />
    <glyph glyph-name="Ocircumflex" unicode="&#xd4;" horiz-adv-x="734" 
d="M203 25q-69 37 -107 110q-37 70 -37 168q0 94 43 168q44 76 116 117q72 42 156 42q97 0 168 -38q69 -38 107 -110q37 -71 37 -169q0 -95 -43 -168q-44 -75 -115 -117q-74 -42 -158 -42q-96 0 -167 39zM484 71q49 39 76 103q26 64 26 133q0 74 -23 138q-22 62 -70 102
q-49 38 -117 38q-66 0 -115 -39q-51 -40 -76 -102q-27 -64 -27 -135q0 -74 23 -138q23 -63 71 -101q46 -39 116 -39q67 0 116 40zM481 675l-108 66l-107 -66l-19 22q72 64 114 104h28q42 -40 114 -104z" />
    <glyph glyph-name="Otilde" unicode="&#xd5;" horiz-adv-x="734" 
d="M203 25q-69 37 -107 110q-37 70 -37 168q0 94 43 168q44 76 116 117q72 42 156 42q97 0 168 -38q69 -38 107 -110q37 -71 37 -169q0 -95 -43 -168q-44 -75 -115 -117q-74 -42 -158 -42q-96 0 -167 39zM484 71q49 39 76 103q26 64 26 133q0 74 -23 138q-22 62 -70 102
q-49 38 -117 38q-66 0 -115 -39q-51 -40 -76 -102q-27 -64 -27 -135q0 -74 23 -138q23 -63 71 -101q46 -39 116 -39q67 0 116 40zM235 700q37 88 87 88q13 0 22 -3q2 -1 4.5 -2t4 -2t3.5 -2l4 -2l4 -2l4 -2l1 -1l39 -23q19 -13 30 -13q12 0 23 11q12 12 24 35l29 -15
q-15 -41 -38 -64q-22 -24 -49 -24q-16 0 -25 4q-11 5 -22 13l-38 26q-16 12 -30 12q-12 0 -23 -12q-9 -10 -25 -39z" />
    <glyph glyph-name="Odieresis" unicode="&#xd6;" horiz-adv-x="734" 
d="M203 25q-69 37 -107 110q-37 70 -37 168q0 94 43 168q44 76 116 117q72 42 156 42q97 0 168 -38q69 -38 107 -110q37 -71 37 -169q0 -95 -43 -168q-44 -75 -115 -117q-74 -42 -158 -42q-96 0 -167 39zM484 71q49 39 76 103q26 64 26 133q0 74 -23 138q-22 62 -70 102
q-49 38 -117 38q-66 0 -115 -39q-51 -40 -76 -102q-27 -64 -27 -135q0 -74 23 -138q23 -63 71 -101q46 -39 116 -39q67 0 116 40zM250 695q-13 13 -13 35t14 38q14 14 36 14q21 0 35 -15q14 -16 14 -36q0 -19 -14 -35q-15 -16 -37 -16q-21 0 -35 15zM428 695q-14 14 -14 35
t14 37q14 15 37 15q21 0 35 -14q13 -14 13 -37q0 -19 -14 -35q-13 -16 -36 -16q-21 0 -35 15z" />
    <glyph glyph-name="multiply" unicode="&#xd7;" horiz-adv-x="534" 
d="M423 26l-157 162l-156 -162l-37 36l158 162l-158 163l38 37l156 -161l157 161l36 -36l-157 -162l158 -163z" />
    <glyph glyph-name="Oslash" unicode="&#xd8;" horiz-adv-x="734" 
d="M608 540q39 -42 58 -98q20 -60 20 -129q0 -95 -43 -168q-44 -75 -115 -117q-74 -42 -158 -42q-120 0 -196 57l-49 -57h-66l77 90q-38 40 -57 99q-20 58 -20 128q0 94 43 168q44 76 116 117q72 42 156 42q120 0 196 -57l50 57h66zM194 141l328 377q-55 67 -146 67
q-66 0 -116 -39q-51 -40 -76 -102q-27 -64 -27 -135q0 -98 37 -168zM550 475l-328 -377q55 -67 146 -67q68 0 117 39t76 103q26 64 26 134q0 101 -37 168z" />
    <glyph glyph-name="Ugrave" unicode="&#xd9;" horiz-adv-x="643" 
d="M151 56q-62 71 -62 192v368h93v-338q0 -107 39 -173q37 -67 123 -67q96 0 134 57q38 56 38 160v361h58v-373q0 -119 -60 -188t-177 -69q-125 0 -186 70zM220 747l46 56q100 -61 155 -109l-18 -24q-67 32 -183 77z" />
    <glyph glyph-name="Uacute" unicode="&#xda;" horiz-adv-x="643" 
d="M151 56q-62 71 -62 192v368h93v-338q0 -107 39 -173q37 -67 123 -67q96 0 134 57q38 56 38 160v361h58v-373q0 -119 -60 -188t-177 -69q-125 0 -186 70zM292 691q48 42 141 109l57 -49q-128 -55 -184 -82z" />
    <glyph glyph-name="Ucircumflex" unicode="&#xdb;" horiz-adv-x="643" 
d="M151 56q-62 71 -62 192v368h93v-338q0 -107 39 -173q37 -67 123 -67q96 0 134 57q38 56 38 160v361h58v-373q0 -119 -60 -188t-177 -69q-125 0 -186 70zM457 675l-108 66l-107 -66l-19 22q72 64 114 104h28q42 -40 114 -104z" />
    <glyph glyph-name="Udieresis" unicode="&#xdc;" horiz-adv-x="643" 
d="M151 56q-62 71 -62 192v368h93v-338q0 -107 39 -173q37 -67 123 -67q96 0 134 57q38 56 38 160v361h58v-373q0 -119 -60 -188t-177 -69q-125 0 -186 70zM226 695q-13 13 -13 35t14 38q14 14 36 14q21 0 35 -15q14 -16 14 -36q0 -19 -14 -35q-15 -16 -37 -16q-21 0 -35 15
zM404 695q-14 14 -14 35t14 37q14 15 37 15q21 0 35 -14q13 -14 13 -37q0 -19 -14 -35q-13 -16 -36 -16q-21 0 -35 15z" />
    <glyph glyph-name="Yacute" unicode="&#xdd;" horiz-adv-x="537" 
d="M329 272v-272h-94v267l-221 349h105l186 -297q103 199 147 297h81q-99 -180 -204 -344zM227 691q48 42 141 109l57 -49q-128 -55 -184 -82z" />
    <glyph glyph-name="Thorn" unicode="&#xde;" horiz-adv-x="511" 
d="M433 463q68 -47 68 -143q0 -62 -33 -109t-92 -71q-57 -25 -135 -25q-22 0 -48 2v-117h-94v616h94v-109q22 2 45 2q127 0 195 -46zM360 201q42 43 42 122q0 69 -40 108t-126 39q-19 0 -43 -2v-309q16 -2 37 -2q88 0 130 44z" />
    <glyph glyph-name="germandbls" unicode="&#xdf;" horiz-adv-x="559" 
d="M516 204q23 -34 23 -79q0 -62 -47 -100q-46 -39 -117 -39q-79 0 -134 38l25 46q53 -38 106 -38q42 0 66 21q23 20 23 52q0 37 -22 59q-23 23 -74 53q-50 31 -69 53q-19 19 -19 48q0 20 12 40t37 46q34 38 52 70q17 31 17 70q0 42 -22 67t-67 25q-63 0 -88 -43
q-26 -44 -26 -124v-469h-89v418h-88v40h88q2 104 55 160q54 57 157 57q71 0 115 -28q45 -29 45 -93q0 -40 -21 -72q-21 -30 -61 -68q-26 -24 -35 -36q-11 -14 -11 -27q-1 -13 10 -23q9 -9 39 -28l40 -26q55 -37 80 -70z" />
    <glyph glyph-name="agrave" unicode="&#xe0;" horiz-adv-x="498" 
d="M390 424q44 -49 44 -145v-279h-59l-21 77q-22 -46 -64 -68q-43 -23 -96 -23q-65 0 -112 35t-47 102q0 77 58 117q59 39 158 39q50 0 96 -8v16q0 67 -24 102q-26 35 -88 35q-37 0 -73 -13q-37 -13 -70 -39l-23 42q33 26 85 43q50 15 96 15q95 0 140 -48zM310 80
q37 40 37 120v34q-32 7 -70 7q-72 0 -112 -28t-40 -82q0 -42 26 -68q25 -25 66 -25q55 0 93 42zM104 602l52 58q64 -47 146 -119l-17 -24q-54 27 -181 85z" />
    <glyph glyph-name="aacute" unicode="&#xe1;" horiz-adv-x="498" 
d="M390 424q44 -49 44 -145v-279h-59l-21 77q-22 -46 -64 -68q-43 -23 -96 -23q-65 0 -112 35t-47 102q0 77 58 117q59 39 158 39q50 0 96 -8v16q0 67 -24 102q-26 35 -88 35q-37 0 -73 -13q-37 -13 -70 -39l-23 42q33 26 85 43q50 15 96 15q95 0 140 -48zM310 80
q37 40 37 120v34q-32 7 -70 7q-72 0 -112 -28t-40 -82q0 -42 26 -68q25 -25 66 -25q55 0 93 42zM196 538q34 36 123 119l59 -45q-69 -35 -166 -95z" />
    <glyph glyph-name="acircumflex" unicode="&#xe2;" horiz-adv-x="498" 
d="M390 424q44 -49 44 -145v-279h-59l-21 77q-22 -46 -64 -68q-43 -23 -96 -23q-65 0 -112 35t-47 102q0 77 58 117q59 39 158 39q50 0 96 -8v16q0 67 -24 102q-26 35 -88 35q-37 0 -73 -13q-37 -13 -70 -39l-23 42q33 26 85 43q50 15 96 15q95 0 140 -48zM310 80
q37 40 37 120v34q-32 7 -70 7q-72 0 -112 -28t-40 -82q0 -42 26 -68q25 -25 66 -25q55 0 93 42zM351 532q-45 28 -90 60l-17 12q-64 -46 -108 -72l-19 23q59 53 114 111h28q55 -58 114 -111z" />
    <glyph glyph-name="atilde" unicode="&#xe3;" horiz-adv-x="498" 
d="M390 424q44 -49 44 -145v-279h-59l-21 77q-22 -46 -64 -68q-43 -23 -96 -23q-65 0 -112 35t-47 102q0 77 58 117q59 39 158 39q50 0 96 -8v16q0 67 -24 102q-26 35 -88 35q-37 0 -73 -13q-37 -13 -70 -39l-23 42q33 26 85 43q50 15 96 15q95 0 140 -48zM310 80
q37 40 37 120v34q-32 7 -70 7q-72 0 -112 -28t-40 -82q0 -42 26 -68q25 -25 66 -25q55 0 93 42zM267 536q-14 6 -22 13l-38 29q-16 13 -30 13q-13 0 -23 -13q-13 -17 -25 -42l-29 17q38 92 87 92q17 0 26 -4q12 -5 21 -13l39 -25q2 -2 8 -5l8 -4q8 -5 14 -5q11 0 22 12
q9 9 25 38l29 -15q-14 -42 -38 -67q-22 -25 -49 -25q-16 0 -25 4z" />
    <glyph glyph-name="adieresis" unicode="&#xe4;" horiz-adv-x="498" 
d="M390 424q44 -49 44 -145v-279h-59l-21 77q-22 -46 -64 -68q-43 -23 -96 -23q-65 0 -112 35t-47 102q0 77 58 117q59 39 158 39q50 0 96 -8v16q0 67 -24 102q-26 35 -88 35q-37 0 -73 -13q-37 -13 -70 -39l-23 42q33 26 85 43q50 15 96 15q95 0 140 -48zM310 80
q37 40 37 120v34q-32 7 -70 7q-72 0 -112 -28t-40 -82q0 -42 26 -68q25 -25 66 -25q55 0 93 42zM120 553q-13 13 -13 35t14 38q14 14 36 14q21 0 35 -15q14 -16 14 -36q0 -19 -14 -35q-15 -16 -37 -16q-21 0 -35 15zM298 553q-14 14 -14 35t14 37q14 15 37 15q21 0 35 -14
q13 -14 13 -37q0 -19 -14 -35q-13 -16 -36 -16q-21 0 -35 15z" />
    <glyph glyph-name="aring" unicode="&#xe5;" horiz-adv-x="498" 
d="M390 424q44 -49 44 -145v-279h-59l-21 77q-22 -46 -64 -68q-43 -23 -96 -23q-65 0 -112 35t-47 102q0 77 58 117q59 39 158 39q50 0 96 -8v16q0 67 -24 102q-26 35 -88 35q-37 0 -73 -13q-37 -13 -70 -39l-23 42q33 26 85 43q50 15 96 15q95 0 140 -48zM310 80
q37 40 37 120v34q-32 7 -70 7q-72 0 -112 -28t-40 -82q0 -42 26 -68q25 -25 66 -25q55 0 93 42zM177 536q-25 19 -25 53q0 35 27 58q27 21 65 21q45 0 70 -19q24 -19 24 -57q0 -33 -27 -54q-29 -21 -66 -21q-45 0 -68 19zM275 558q11 14 11 35t-9 36q-10 15 -32 15
q-20 0 -30 -16q-11 -17 -11 -36q0 -49 41 -49q19 0 30 15z" />
    <glyph glyph-name="ae" unicode="&#xe6;" horiz-adv-x="788" 
d="M746 230h-311q1 -85 42 -139q39 -55 115 -55q34 0 61 9q28 9 56 30l22 -37q-33 -27 -70 -39q-36 -13 -86 -13q-74 0 -123 28q-51 27 -78 76q-24 -52 -72 -78q-49 -26 -108 -26q-65 0 -112 35t-47 102q0 72 58 109t158 37h96v18q0 67 -24 102q-26 35 -88 35q-37 0 -73 -13
q-37 -13 -70 -39l-23 42q33 26 85 43q50 15 96 15q113 0 155 -68q30 32 71 50q40 18 89 18q93 0 139 -57q46 -58 46 -148q0 -22 -4 -37zM474 389q-34 -47 -39 -120h218q2 12 2 25q0 59 -22 100q-23 41 -71 41q-55 0 -88 -46zM310 80q37 40 37 120v30h-70q-72 0 -112 -26
q-40 -25 -40 -78q0 -40 26 -64q25 -24 66 -24q55 0 93 42z" />
    <glyph glyph-name="ccedilla" unicode="&#xe7;" horiz-adv-x="445" 
d="M329 -65q20 -18 20 -49q0 -35 -26 -56q-25 -21 -69 -21q-34 0 -61 12l11 37q20 -11 48 -11q16 0 27 7q12 8 12 23q0 14 -11 22q-10 7 -27 7q-24 0 -34 -3l24 84q-97 10 -148 73t-51 162q0 69 32 128q32 57 87 90q56 32 128 32q81 0 132 -36l-23 -42q-43 34 -96 34
q-54 0 -92 -29q-38 -30 -54 -75q-17 -46 -17 -93q0 -89 39 -141q38 -54 120 -54q60 0 104 38l22 -37q-20 -20 -61 -35t-81 -16l-11 -34h3q31 0 53 -17z" />
    <glyph glyph-name="egrave" unicode="&#xe8;" horiz-adv-x="498" 
d="M456 229h-317q2 -87 42 -139q41 -54 116 -54q35 0 64 9t57 30l23 -37q-64 -52 -161 -52q-117 0 -176 68q-60 68 -60 174q0 68 28 123q29 56 80 88q51 33 117 33q95 0 143 -57q47 -58 47 -148q0 -20 -3 -38zM177 388q-34 -47 -38 -119h223q2 12 2 25q0 57 -23 100
q-23 41 -77 41t-87 -47zM120 602l52 58q64 -47 146 -119l-17 -24q-54 27 -181 85z" />
    <glyph glyph-name="eacute" unicode="&#xe9;" horiz-adv-x="498" 
d="M456 229h-317q2 -87 42 -139q41 -54 116 -54q35 0 64 9t57 30l23 -37q-64 -52 -161 -52q-117 0 -176 68q-60 68 -60 174q0 68 28 123q29 56 80 88q51 33 117 33q95 0 143 -57q47 -58 47 -148q0 -20 -3 -38zM177 388q-34 -47 -38 -119h223q2 12 2 25q0 57 -23 100
q-23 41 -77 41t-87 -47zM212 538q34 36 123 119l59 -45q-69 -35 -166 -95z" />
    <glyph glyph-name="ecircumflex" unicode="&#xea;" horiz-adv-x="498" 
d="M456 229h-317q2 -87 42 -139q41 -54 116 -54q35 0 64 9t57 30l23 -37q-64 -52 -161 -52q-117 0 -176 68q-60 68 -60 174q0 68 28 123q29 56 80 88q51 33 117 33q95 0 143 -57q47 -58 47 -148q0 -20 -3 -38zM177 388q-34 -47 -38 -119h223q2 12 2 25q0 57 -23 100
q-23 41 -77 41t-87 -47zM367 532q-45 28 -90 60l-17 12q-64 -46 -108 -72l-19 23q59 53 114 111h28q55 -58 114 -111z" />
    <glyph glyph-name="edieresis" unicode="&#xeb;" horiz-adv-x="498" 
d="M456 229h-317q2 -87 42 -139q41 -54 116 -54q35 0 64 9t57 30l23 -37q-64 -52 -161 -52q-117 0 -176 68q-60 68 -60 174q0 68 28 123q29 56 80 88q51 33 117 33q95 0 143 -57q47 -58 47 -148q0 -20 -3 -38zM177 388q-34 -47 -38 -119h223q2 12 2 25q0 57 -23 100
q-23 41 -77 41t-87 -47zM136 553q-13 13 -13 35t14 38q14 14 36 14q21 0 35 -15q14 -16 14 -36q0 -19 -14 -35q-15 -16 -37 -16q-21 0 -35 15zM314 553q-14 14 -14 35t14 37q14 15 37 15q21 0 35 -14q13 -14 13 -37q0 -19 -14 -35q-13 -16 -36 -16q-21 0 -35 15z" />
    <glyph glyph-name="igrave" unicode="&#xec;" horiz-adv-x="256" 
d="M83 458h90v-458h-90v458zM-13 602l52 58q64 -47 146 -119l-17 -24q-54 27 -181 85z" />
    <glyph glyph-name="iacute" unicode="&#xed;" horiz-adv-x="256" 
d="M83 458h90v-458h-90v458zM79 538q34 36 123 119l59 -45q-69 -35 -166 -95z" />
    <glyph glyph-name="icircumflex" unicode="&#xee;" horiz-adv-x="256" 
d="M83 458h90v-458h-90v458zM234 532q-45 28 -90 60l-17 12q-65 -46 -108 -72l-19 23q58 53 114 111h28q56 -58 114 -111z" />
    <glyph glyph-name="idieresis" unicode="&#xef;" horiz-adv-x="256" 
d="M83 458h90v-458h-90v458zM3 553q-13 13 -13 35t14 38q14 14 36 14t35 -15q14 -16 14 -36q0 -19 -14 -35q-15 -16 -37 -16t-35 15zM181 553q-14 14 -14 35t14 37q13 15 37 15q21 0 35 -14q13 -14 13 -37q0 -19 -14 -35q-13 -16 -36 -16q-22 0 -35 15z" />
    <glyph glyph-name="eth" unicode="&#xf0;" horiz-adv-x="540" 
d="M459 462q37 -81 37 -182q0 -92 -29 -159q-28 -64 -82 -100q-53 -35 -125 -35q-96 0 -156 62t-60 175q0 69 32 125q31 53 84 85q53 30 113 30q68 0 112 -38q-24 93 -90 148l-149 -68l-16 35l129 59q-56 34 -131 47l14 30q92 -10 170 -53l117 53l17 -35l-96 -43
q72 -54 109 -136zM367 96q35 64 35 180q0 46 -4 74q-22 33 -54 50q-32 15 -62 15q-72 0 -107 -57q-36 -58 -36 -134q0 -81 34 -136q33 -55 88 -55q71 0 106 63z" />
    <glyph glyph-name="ntilde" unicode="&#xf1;" horiz-adv-x="563" 
d="M452 418q40 -53 40 -146v-272h-89v247q0 79 -19 126q-20 47 -80 47q-62 0 -96 -52q-36 -52 -36 -142v-226h-91v458h59l23 -84q26 48 68 73q43 25 95 25q86 0 126 -54zM319 536q-14 6 -22 13l-38 29q-16 13 -30 13q-13 0 -23 -13q-13 -17 -25 -42l-29 17q38 92 87 92
q17 0 26 -4q12 -5 21 -13l39 -25q2 -2 7.5 -5t8.5 -4q8 -5 14 -5q11 0 22 12q9 9 25 38l29 -15q-14 -42 -38 -67q-22 -25 -49 -25q-16 0 -25 4z" />
    <glyph glyph-name="ograve" unicode="&#xf2;" horiz-adv-x="545" 
d="M105 50q-61 64 -61 179q0 70 32 126q31 55 83 86t113 31q106 0 168 -63q61 -64 61 -179q0 -71 -31 -126q-32 -56 -84 -87t-114 -31q-106 0 -167 64zM371 86q35 61 35 144q0 85 -32 144q-33 58 -101 58q-65 0 -99 -60q-35 -61 -35 -143q0 -85 33 -144q32 -59 100 -59
q64 0 99 60zM131 602l52 58q64 -47 146 -119l-17 -24q-54 27 -181 85z" />
    <glyph glyph-name="oacute" unicode="&#xf3;" horiz-adv-x="545" 
d="M105 50q-61 64 -61 179q0 70 32 126q31 55 83 86t113 31q106 0 168 -63q61 -64 61 -179q0 -71 -31 -126q-32 -56 -84 -87t-114 -31q-106 0 -167 64zM371 86q35 61 35 144q0 85 -32 144q-33 58 -101 58q-65 0 -99 -60q-35 -61 -35 -143q0 -85 33 -144q32 -59 100 -59
q64 0 99 60zM223 538q34 36 123 119l59 -45q-69 -35 -166 -95z" />
    <glyph glyph-name="ocircumflex" unicode="&#xf4;" horiz-adv-x="545" 
d="M105 50q-61 64 -61 179q0 70 32 126q31 55 83 86t113 31q106 0 168 -63q61 -64 61 -179q0 -71 -31 -126q-32 -56 -84 -87t-114 -31q-106 0 -167 64zM371 86q35 61 35 144q0 85 -32 144q-33 58 -101 58q-65 0 -99 -60q-35 -61 -35 -143q0 -85 33 -144q32 -59 100 -59
q64 0 99 60zM378 532q-45 28 -90 60l-17 12q-65 -46 -108 -72l-19 23q58 53 114 111h28q56 -58 114 -111z" />
    <glyph glyph-name="otilde" unicode="&#xf5;" horiz-adv-x="545" 
d="M105 50q-61 64 -61 179q0 70 32 126q31 55 83 86t113 31q106 0 168 -63q61 -64 61 -179q0 -71 -31 -126q-32 -56 -84 -87t-114 -31q-106 0 -167 64zM371 86q35 61 35 144q0 85 -32 144q-33 58 -101 58q-65 0 -99 -60q-35 -61 -35 -143q0 -85 33 -144q32 -59 100 -59
q64 0 99 60zM294 536q-14 6 -22 13l-38 29q-16 13 -30 13q-13 0 -23 -13q-13 -17 -25 -42l-29 17q38 92 87 92q17 0 26 -4q12 -5 21 -13l39 -25q2 -2 7.5 -5t8.5 -4q8 -5 14 -5q12 0 22 12q9 9 25 38l29 -15q-14 -42 -38 -67q-22 -25 -49 -25q-16 0 -25 4z" />
    <glyph glyph-name="odieresis" unicode="&#xf6;" horiz-adv-x="545" 
d="M105 50q-61 64 -61 179q0 70 32 126q31 55 83 86t113 31q106 0 168 -63q61 -64 61 -179q0 -71 -31 -126q-32 -56 -84 -87t-114 -31q-106 0 -167 64zM371 86q35 61 35 144q0 85 -32 144q-33 58 -101 58q-65 0 -99 -60q-35 -61 -35 -143q0 -85 33 -144q32 -59 100 -59
q64 0 99 60zM147 553q-13 13 -13 35t14 38q14 14 36 14t35 -15q14 -16 14 -36q0 -19 -14 -35q-15 -16 -37 -16t-35 15zM325 553q-14 14 -14 35t14 37q13 15 37 15q21 0 35 -14q13 -14 13 -37q0 -19 -14 -35q-13 -16 -36 -16q-22 0 -35 15z" />
    <glyph glyph-name="divide" unicode="&#xf7;" horiz-adv-x="534" 
d="M231 356q-16 16 -16 38q0 21 16 37q15 15 36 15t38 -15q15 -15 15 -37t-15 -38q-16 -16 -38 -16q-21 0 -36 16zM60 255h414v-50h-414v50zM231 28q-16 15 -16 37t16 38q15 16 36 16q22 0 38 -16q15 -17 15 -38q0 -22 -15 -37q-16 -16 -38 -16q-21 0 -36 16z" />
    <glyph glyph-name="oslash" unicode="&#xf8;" horiz-adv-x="545" 
d="M447 401q54 -63 54 -171q0 -71 -31 -126q-32 -56 -84 -87t-114 -31q-83 0 -142 42l-36 -42h-56l60 71q-54 65 -54 172q0 70 32 126q31 55 83 86t113 31q84 0 143 -42l36 42h56zM154 123l217 256q-35 54 -98 54q-65 0 -100 -60q-35 -61 -35 -144q0 -61 16 -106zM391 335
l-217 -256q35 -53 98 -53q66 0 100 60q35 61 35 144q0 61 -16 105z" />
    <glyph glyph-name="ugrave" unicode="&#xf9;" horiz-adv-x="561" 
d="M482 458v-458h-59l-24 85q-22 -47 -66 -73t-93 -26q-84 0 -125 54q-41 53 -41 145v273h89v-248q0 -76 20 -124q20 -47 79 -47q60 0 94 52q35 52 35 139v228h91zM138 602l52 58q64 -47 146 -119l-17 -24q-54 27 -181 85z" />
    <glyph glyph-name="uacute" unicode="&#xfa;" horiz-adv-x="561" 
d="M482 458v-458h-59l-24 85q-22 -47 -66 -73t-93 -26q-84 0 -125 54q-41 53 -41 145v273h89v-248q0 -76 20 -124q20 -47 79 -47q60 0 94 52q35 52 35 139v228h91zM230 538q34 36 123 119l59 -45q-69 -35 -166 -95z" />
    <glyph glyph-name="ucircumflex" unicode="&#xfb;" horiz-adv-x="561" 
d="M482 458v-458h-59l-24 85q-22 -47 -66 -73t-93 -26q-84 0 -125 54q-41 53 -41 145v273h89v-248q0 -76 20 -124q20 -47 79 -47q60 0 94 52q35 52 35 139v228h91zM385 532q-45 28 -90 60l-17 12q-64 -46 -108 -72l-19 23q59 53 114 111h28q55 -58 114 -111z" />
    <glyph glyph-name="udieresis" unicode="&#xfc;" horiz-adv-x="561" 
d="M482 458v-458h-59l-24 85q-22 -47 -66 -73t-93 -26q-84 0 -125 54q-41 53 -41 145v273h89v-248q0 -76 20 -124q20 -47 79 -47q60 0 94 52q35 52 35 139v228h91zM154 553q-13 13 -13 35t14 38q14 14 36 14q21 0 35 -15q14 -16 14 -36q0 -19 -14 -35q-15 -16 -37 -16
q-21 0 -35 15zM332 553q-14 14 -14 35t14 37q14 15 37 15q21 0 35 -14q13 -14 13 -37q0 -19 -14 -35q-13 -16 -36 -16q-21 0 -35 15z" />
    <glyph glyph-name="yacute" unicode="&#xfd;" horiz-adv-x="547" 
d="M481 458v-409q0 -254 -232 -254q-83 0 -144 36l23 47q64 -35 127 -35q75 0 106 45q31 44 31 131v66q-16 -41 -57 -67q-40 -25 -91 -25q-170 0 -170 201v264h89v-242q0 -76 21 -122q21 -48 81 -48q56 0 92 51q35 52 35 136v225h89zM224 538q34 36 123 119l59 -45
q-69 -35 -166 -95z" />
    <glyph glyph-name="thorn" unicode="&#xfe;" horiz-adv-x="562" 
d="M465 411q53 -62 53 -170q0 -77 -27 -135q-28 -58 -76 -89q-49 -31 -110 -31q-42 0 -79 17q-36 16 -58 50v-244h-89v852h89v-260q32 36 72 54q42 17 81 17q90 0 144 -61zM391 97q32 58 32 141q0 80 -28 132t-95 52q-40 0 -75 -21q-36 -23 -57 -61v-136q0 -81 34 -122
q33 -43 88 -43q68 0 101 58z" />
    <glyph glyph-name="ydieresis" unicode="&#xff;" horiz-adv-x="547" 
d="M481 458v-409q0 -254 -232 -254q-83 0 -144 36l23 47q64 -35 127 -35q75 0 106 45q31 44 31 131v66q-16 -41 -57 -67q-40 -25 -91 -25q-170 0 -170 201v264h89v-242q0 -76 21 -122q21 -48 81 -48q56 0 92 51q35 52 35 136v225h89zM148 553q-13 13 -13 35t14 38
q14 14 36 14q21 0 35 -15q14 -16 14 -36q0 -19 -14 -35q-15 -16 -37 -16q-21 0 -35 15zM326 553q-14 14 -14 35t14 37q14 15 37 15q21 0 35 -14q13 -14 13 -37q0 -19 -14 -35q-13 -16 -36 -16q-21 0 -35 15z" />
    <glyph glyph-name="acaron" unicode="&#x100;" horiz-adv-x="589" 
d="M398 184h-231l-66 -184h-72l249 616h56l231 -616h-103zM383 227l-98 284l-102 -284h200zM184 754h234v-49h-234v49z" />
    <glyph glyph-name="f_lcaron.liga" unicode="&#x101;" horiz-adv-x="498" 
d="M390 424q44 -49 44 -145v-279h-59l-21 77q-22 -46 -64 -68q-43 -23 -96 -23q-65 0 -112 35t-47 102q0 77 58 117q59 39 158 39q50 0 96 -8v16q0 67 -24 102q-26 35 -88 35q-37 0 -73 -13q-37 -13 -70 -39l-23 42q33 26 85 43q50 15 96 15q95 0 140 -48zM310 80
q37 40 37 120v34q-32 7 -70 7q-72 0 -112 -28t-40 -82q0 -42 26 -68q25 -25 66 -25q55 0 93 42zM128 618h234v-49h-234v49z" />
    <glyph glyph-name="abreve" unicode="&#x102;" horiz-adv-x="589" 
d="M398 184h-231l-66 -184h-72l249 616h56l231 -616h-103zM383 227l-98 284l-102 -284h200zM226 699q-37 22 -54 65l27 14q43 -48 105 -48q58 0 101 49l25 -13q-17 -45 -51 -67q-34 -24 -77 -24q-40 0 -76 24z" />
    <glyph glyph-name="f_j.liga" unicode="&#x103;" horiz-adv-x="498" 
d="M390 424q44 -49 44 -145v-279h-59l-21 77q-22 -46 -64 -68q-43 -23 -96 -23q-65 0 -112 35t-47 102q0 77 58 117q59 39 158 39q50 0 96 -8v16q0 67 -24 102q-26 35 -88 35q-37 0 -73 -13q-37 -13 -70 -39l-23 42q33 26 85 43q50 15 96 15q95 0 140 -48zM310 80
q37 40 37 120v34q-32 7 -70 7q-72 0 -112 -28t-40 -82q0 -42 26 -68q25 -25 66 -25q55 0 93 42zM172 554q-35 26 -51 77l26 14q22 -34 46 -47q25 -14 55 -14t53 14q21 13 44 48l24 -14q-17 -53 -49 -78t-74 -25q-40 0 -74 25z" />
    <glyph glyph-name="Acaron" unicode="&#x104;" horiz-adv-x="589" 
d="M551 -138l13 -30q-31 -23 -72 -23q-32 0 -49 16q-19 15 -19 45q0 25 23 59q22 33 76 71h-61l-64 184h-231l-66 -184h-72l249 616h56l231 -616q-35 -27 -54 -56q-19 -28 -19 -56q0 -16 8 -24q7 -9 22 -9q16 0 29 7zM383 227l-98 283l-102 -283h200z" />
    <glyph glyph-name="f_t.liga" unicode="&#x105;" horiz-adv-x="498" 
d="M380 -56q-19 -28 -19 -56q0 -16 8 -24q7 -9 22 -9q16 0 29 7l13 -30q-31 -23 -72 -23q-32 0 -49 16q-19 15 -19 45q0 25 23 59q22 33 76 71h-17l-21 77q-22 -46 -64 -68q-43 -23 -96 -23q-65 0 -112 35t-47 102q0 77 58 117q59 39 158 39q50 0 96 -8v16q0 67 -24 102
q-26 35 -88 35q-37 0 -73 -13q-37 -13 -70 -39l-23 42q33 26 85 43q50 15 96 15q95 0 140 -48q44 -49 44 -145v-279q-35 -27 -54 -56zM310 80q37 40 37 120v34q-32 7 -70 7q-72 0 -112 -28t-40 -82q0 -42 26 -68q25 -25 66 -25q55 0 93 42z" />
    <glyph glyph-name="acutecomb" unicode="&#x106;" horiz-adv-x="567" 
d="M205 24q-71 38 -108 108q-38 71 -38 169q0 99 43 173q44 76 118 116q73 40 166 40q98 0 168 -42l-28 -48q-59 41 -138 41q-72 0 -123 -36q-52 -37 -77 -97q-27 -62 -27 -137q0 -121 57 -197q56 -77 163 -77q89 0 151 48l25 -40q-40 -31 -87 -44q-48 -15 -99 -15
q-95 0 -166 38zM302 691q48 42 141 109l57 -49q-128 -55 -184 -82z" />
    <glyph glyph-name="florin.osf" unicode="&#x107;" horiz-adv-x="445" 
d="M104 51q-60 65 -60 171q0 69 32 128q32 57 87 90q56 32 128 32q81 0 132 -36l-23 -42q-43 34 -96 34q-54 0 -92 -29q-38 -30 -54 -75q-17 -46 -17 -93q0 -89 39 -141q38 -54 120 -54q60 0 104 38l22 -37q-28 -25 -65 -37q-42 -14 -86 -14q-112 0 -171 65zM226 538
q34 36 123 119l59 -45q-69 -35 -166 -95z" />
    <glyph glyph-name="acutecomb.case.loclPLK" unicode="&#x108;" horiz-adv-x="567" 
d="M205 24q-71 38 -108 108q-38 71 -38 169q0 99 43 173q44 76 118 116q73 40 166 40q98 0 168 -42l-28 -48q-59 41 -138 41q-72 0 -123 -36q-52 -37 -77 -97q-27 -62 -27 -137q0 -121 57 -197q56 -77 163 -77q89 0 151 48l25 -40q-40 -31 -87 -44q-48 -15 -99 -15
q-95 0 -166 38zM467 675l-108 66l-107 -66l-19 22q72 64 114 104h28q42 -40 114 -104z" />
    <glyph glyph-name="FS Siena Regular" unicode="&#x109;" horiz-adv-x="445" 
d="M104 51q-60 65 -60 171q0 69 32 128q32 57 87 90q56 32 128 32q81 0 132 -36l-23 -42q-43 34 -96 34q-54 0 -92 -29q-38 -30 -54 -75q-17 -46 -17 -93q0 -89 39 -141q38 -54 120 -54q60 0 104 38l22 -37q-28 -25 -65 -37q-42 -14 -86 -14q-112 0 -171 65zM381 532
q-45 28 -90 60l-17 12q-64 -46 -108 -72l-19 23q59 53 114 111h28q55 -58 114 -111z" />
    <glyph glyph-name="acutecomb.loclPLK" unicode="&#x10a;" horiz-adv-x="567" 
d="M205 24q-71 38 -108 108q-38 71 -38 169q0 99 43 173q44 76 118 116q73 40 166 40q98 0 168 -42l-28 -48q-59 41 -138 41q-72 0 -123 -36q-52 -37 -77 -97q-27 -62 -27 -137q0 -121 57 -197q56 -77 163 -77q89 0 151 48l25 -40q-40 -31 -87 -44q-48 -15 -99 -15
q-95 0 -166 38zM317 696q-16 13 -16 37t15 39t44 15q28 0 45 -15q15 -15 15 -38t-16 -38t-44 -15t-43 15z" />
    <glyph glyph-name="gbreve" unicode="&#x10b;" horiz-adv-x="445" 
d="M104 51q-60 65 -60 171q0 69 32 128q32 57 87 90q56 32 128 32q81 0 132 -36l-23 -42q-43 34 -96 34q-54 0 -92 -29q-38 -30 -54 -75q-17 -46 -17 -93q0 -89 39 -141q38 -54 120 -54q60 0 104 38l22 -37q-28 -25 -65 -37q-42 -14 -86 -14q-112 0 -171 65zM231 555
q-16 13 -16 37t15 39t44 15q28 0 45 -15q15 -15 15 -38t-16 -38t-44 -15t-43 15z" />
    <glyph glyph-name="acutecomb.case" unicode="&#x10c;" horiz-adv-x="567" 
d="M205 24q-71 38 -108 108q-38 71 -38 169q0 99 43 173q44 76 118 116q73 40 166 40q98 0 168 -42l-28 -48q-59 41 -138 41q-72 0 -123 -36q-52 -37 -77 -97q-27 -62 -27 -137q0 -121 57 -197q56 -77 163 -77q89 0 151 48l25 -40q-40 -31 -87 -44q-48 -15 -99 -15
q-95 0 -166 38zM488 774l-32 -29q-16 -13 -82 -74h-28q-66 61 -82 74l-32 29l22 23l108 -66l107 66z" />
    <glyph glyph-name="four.osf" unicode="&#x10d;" horiz-adv-x="445" 
d="M104 51q-60 65 -60 171q0 69 32 128q32 57 87 90q56 32 128 32q81 0 132 -36l-23 -42q-43 34 -96 34q-54 0 -92 -29q-38 -30 -54 -75q-17 -46 -17 -93q0 -89 39 -141q38 -54 120 -54q60 0 104 38l22 -37q-28 -25 -65 -37q-42 -14 -86 -14q-112 0 -171 65zM402 644
q-58 -52 -114 -111h-28q-56 59 -114 111l22 22q38 -22 107 -72q78 54 108 72z" />
    <glyph glyph-name="aeacute" unicode="&#x10e;" horiz-adv-x="686" 
d="M549 541q86 -84 86 -223q0 -89 -37 -162q-38 -74 -120 -119q-83 -46 -216 -46q-89 0 -163 11v612q66 10 167 10q195 0 283 -83zM475 116q60 80 60 200q0 118 -63 192q-63 73 -215 73q-37 0 -65 -5v-535q50 -5 75 -5q146 0 208 80zM439 774l-32 -29q-16 -13 -82 -74h-28
q-66 61 -82 74l-32 29l22 23l108 -66l107 66z" />
    <glyph glyph-name="Gbreve" unicode="&#x10f;" horiz-adv-x="572" 
d="M483 661v-661h-58l-23 83q-20 -46 -61 -71q-44 -26 -97 -26q-92 0 -146 63t-54 176q0 74 30 131q30 56 81 86t112 30q81 0 127 -52v241h89zM360 88q34 49 34 135v136q-42 65 -115 65q-69 0 -104 -56q-36 -56 -36 -139q0 -78 32 -134q31 -57 92 -57q62 0 97 50zM537 509
q2 70 10 152h75q-31 -87 -47 -152h-38z" />
    <glyph glyph-name="AEacute" unicode="&#x110;" horiz-adv-x="699" 
d="M562 541q86 -84 86 -223q0 -89 -37 -162q-38 -74 -120 -119q-83 -46 -216 -46q-89 0 -163 11v297h-77v42h77v273q66 10 167 10q195 0 283 -83zM488 116q60 80 60 200q0 118 -63 192q-63 73 -215 73q-37 0 -65 -5v-235h147v-42h-147v-258q50 -5 75 -5q146 0 208 80z" />
    <glyph glyph-name="gcircumflex" unicode="&#x111;" horiz-adv-x="562" 
d="M562 540h-79v-540h-58l-23 83q-20 -46 -61 -71q-44 -26 -97 -26q-92 0 -146 63t-54 176q0 74 30 131q30 56 81 86t112 30q81 0 127 -52v120h-132v39h132v82h89v-82h79v-39zM360 88q34 49 34 135v136q-42 65 -115 65q-69 0 -104 -56q-36 -56 -36 -139q0 -78 32 -134
q31 -57 92 -57q62 0 97 50z" />
    <glyph glyph-name="Aogonek" unicode="&#x112;" horiz-adv-x="503" 
d="M463 56v-56h-364v616h359v-55q-88 8 -183 8h-84v-235h36q97 0 182 5v-55q-85 5 -182 5h-36v-241h89q95 0 183 8zM166 754h234v-49h-234v49z" />
    <glyph glyph-name="gdotaccent" unicode="&#x113;" horiz-adv-x="498" 
d="M456 229h-317q2 -87 42 -139q41 -54 116 -54q35 0 64 9t57 30l23 -37q-64 -52 -161 -52q-117 0 -176 68q-60 68 -60 174q0 68 28 123q29 56 80 88q51 33 117 33q95 0 143 -57q47 -58 47 -148q0 -20 -3 -38zM177 388q-34 -47 -38 -119h223q2 12 2 25q0 57 -23 100
q-23 41 -77 41t-87 -47zM144 618h234v-49h-234v49z" />
    <glyph glyph-name="amacron" unicode="&#x114;" horiz-adv-x="503" 
d="M463 56v-56h-364v616h359v-55q-88 8 -183 8h-84v-235h36q97 0 182 5v-55q-85 5 -182 5h-36v-241h89q95 0 183 8zM208 699q-37 22 -54 65l27 14q43 -48 105 -48q58 0 101 49l25 -13q-17 -45 -51 -67q-35 -24 -77 -24q-40 0 -76 24z" />
    <glyph glyph-name="Gcircumflex" unicode="&#x115;" horiz-adv-x="498" 
d="M456 229h-317q2 -87 42 -139q41 -54 116 -54q35 0 64 9t57 30l23 -37q-64 -52 -161 -52q-117 0 -176 68q-60 68 -60 174q0 68 28 123q29 56 80 88q51 33 117 33q95 0 143 -57q47 -58 47 -148q0 -20 -3 -38zM177 388q-34 -47 -38 -119h223q2 12 2 25q0 57 -23 100
q-23 41 -77 41t-87 -47zM188 554q-35 26 -51 77l26 14q22 -34 46 -47q25 -14 55 -14t53 14q21 13 44 48l24 -14q-17 -53 -49 -78t-74 -25q-40 0 -74 25z" />
    <glyph glyph-name="aogonek" unicode="&#x116;" horiz-adv-x="503" 
d="M463 56v-56h-364v616h359v-55q-88 8 -183 8h-84v-235h36q97 0 182 5v-55q-85 5 -182 5h-36v-241h89q95 0 183 8zM239 696q-16 13 -16 37t15 39t44 15q28 0 45 -15q15 -15 15 -38t-16 -38t-44 -15t-43 15z" />
    <glyph glyph-name="Gcommaaccent" unicode="&#x117;" horiz-adv-x="498" 
d="M456 229h-317q2 -87 42 -139q41 -54 116 -54q35 0 64 9t57 30l23 -37q-64 -52 -161 -52q-117 0 -176 68q-60 68 -60 174q0 68 28 123q29 56 80 88q51 33 117 33q95 0 143 -57q47 -58 47 -148q0 -20 -3 -38zM177 388q-34 -47 -38 -119h223q2 12 2 25q0 57 -23 100
q-23 41 -77 41t-87 -47zM217 555q-16 13 -16 37t15 39t44 15q28 0 45 -15q15 -15 15 -38t-16 -38t-44 -15t-43 15z" />
    <glyph glyph-name="approxequal" unicode="&#x118;" horiz-adv-x="503" 
d="M409 -56q-19 -28 -19 -56q0 -16 8 -24q8 -9 23 -9t28 7l13 -30q-31 -23 -72 -23q-32 0 -49 16q-19 15 -19 45q0 25 23 59q22 33 76 71h-322v616h359v-55q-88 8 -183 8h-84v-235h36q97 0 182 5v-55q-85 5 -182 5h-36v-241h89q95 0 183 8v-56q-35 -27 -54 -56z" />
    <glyph glyph-name="Gdotaccent" unicode="&#x119;" horiz-adv-x="498" 
d="M456 229h-317q2 -87 42 -139q41 -54 116 -54q35 0 64 9t57 30l23 -37q-41 -39 -63 -78q-24 -39 -24 -72q0 -16 9 -24q7 -9 22 -9t29 7l13 -30q-16 -13 -30 -17q-16 -6 -37 -6q-35 0 -54 16q-20 17 -20 45q0 50 69 125q-33 -9 -75 -9q-117 0 -176 68q-60 68 -60 174
q0 68 28 123q29 56 80 88q51 33 117 33q95 0 143 -57q47 -58 47 -148q0 -20 -3 -38zM177 388q-34 -47 -38 -119h223q2 12 2 25q0 57 -23 100q-23 41 -77 41t-87 -47z" />
    <glyph glyph-name="Amacron" unicode="&#x11a;" horiz-adv-x="503" 
d="M463 56v-56h-364v616h359v-55q-88 8 -183 8h-84v-235h36q97 0 182 5v-55q-85 5 -182 5h-36v-241h89q95 0 183 8zM410 774l-32 -29q-16 -13 -82 -74h-28q-66 61 -82 74l-32 29l22 23l108 -66l107 66z" />
    <glyph glyph-name="gcommaaccent" unicode="&#x11b;" horiz-adv-x="498" 
d="M456 229h-317q2 -87 42 -139q41 -54 116 -54q35 0 64 9t57 30l23 -37q-64 -52 -161 -52q-117 0 -176 68q-60 68 -60 174q0 68 28 123q29 56 80 88q51 33 117 33q95 0 143 -57q47 -58 47 -148q0 -20 -3 -38zM177 388q-34 -47 -38 -119h223q2 12 2 25q0 57 -23 100
q-23 41 -77 41t-87 -47zM388 644q-58 -52 -114 -111h-28q-56 59 -114 111l22 22q38 -22 107 -72q78 54 108 72z" />
    <glyph glyph-name="arrowleft" unicode="&#x11c;" horiz-adv-x="655" 
d="M595 316v-264q-41 -32 -101 -48q-62 -18 -125 -18q-90 0 -161 38q-70 37 -109 108q-40 70 -40 168t43 172q42 75 117 117q76 41 170 41q119 0 194 -51l-29 -48q-71 51 -161 51q-74 0 -127 -35t-80 -96q-28 -60 -28 -141q0 -74 27 -136q25 -62 78 -99q52 -38 125 -38
q66 0 118 30v204h-141v45h230zM469 675l-108 66l-107 -66l-19 22q72 64 114 104h28q42 -40 114 -104z" />
    <glyph glyph-name="germandbls.calt" unicode="&#x11d;" horiz-adv-x="544" 
d="M483 458v-418q0 -116 -57 -180q-59 -65 -172 -65q-83 0 -149 36l24 47q61 -35 127 -35q74 0 106 45q32 46 32 130v64q-16 -39 -59 -64q-41 -25 -95 -25q-93 0 -144 64q-52 62 -52 172q0 74 29 130q28 55 80 84t113 29q98 0 144 -72l16 58h57zM359 93q35 47 35 131v130
q-43 70 -115 70q-71 0 -105 -55q-35 -56 -35 -140q0 -75 32 -130q31 -54 93 -54q59 0 95 48zM383 532q-45 28 -90 60l-17 12q-64 -46 -108 -72l-19 23q59 53 114 111h28q55 -58 114 -111z" />
    <glyph glyph-name="arrowdown" unicode="&#x11e;" horiz-adv-x="655" 
d="M595 316v-264q-41 -32 -101 -48q-62 -18 -125 -18q-90 0 -161 38q-70 37 -109 108q-40 70 -40 168t43 172q42 75 117 117q76 41 170 41q119 0 194 -51l-29 -48q-71 51 -161 51q-74 0 -127 -35t-80 -96q-28 -60 -28 -141q0 -74 27 -136q25 -62 78 -99q52 -38 125 -38
q66 0 118 30v204h-141v45h230zM288 699q-37 22 -54 65l27 14q43 -48 105 -48q58 0 101 49l25 -13q-17 -45 -51 -67q-35 -24 -77 -24q-40 0 -76 24z" />
    <glyph glyph-name="Germandbls" unicode="&#x11f;" horiz-adv-x="544" 
d="M483 458v-418q0 -116 -57 -180q-59 -65 -172 -65q-83 0 -149 36l24 47q61 -35 127 -35q74 0 106 45q32 46 32 130v64q-16 -39 -59 -64q-41 -25 -95 -25q-93 0 -144 64q-52 62 -52 172q0 74 29 130q28 55 80 84t113 29q98 0 144 -72l16 58h57zM359 93q35 47 35 131v130
q-43 70 -115 70q-71 0 -105 -55q-35 -56 -35 -140q0 -75 32 -130q31 -54 93 -54q59 0 95 48zM204 554q-35 26 -51 77l26 14q22 -34 46 -47q25 -14 55 -14t53 14q21 13 44 48l24 -14q-17 -53 -49 -78t-74 -25q-40 0 -74 25z" />
    <glyph glyph-name="arrowup" unicode="&#x120;" horiz-adv-x="655" 
d="M595 316v-264q-41 -32 -101 -48q-62 -18 -125 -18q-90 0 -161 38q-70 37 -109 108q-40 70 -40 168t43 172q42 75 117 117q76 41 170 41q119 0 194 -51l-29 -48q-71 51 -161 51q-74 0 -127 -35t-80 -96q-28 -60 -28 -141q0 -74 27 -136q25 -62 78 -99q52 -38 125 -38
q66 0 118 30v204h-141v45h230zM319 696q-16 13 -16 37t15 39t44 15q28 0 45 -15q15 -15 15 -38t-16 -38t-44 -15t-43 15z" />
    <glyph glyph-name="gravecomb" unicode="&#x121;" horiz-adv-x="544" 
d="M483 458v-418q0 -116 -57 -180q-59 -65 -172 -65q-83 0 -149 36l24 47q61 -35 127 -35q74 0 106 45q32 46 32 130v64q-16 -39 -59 -64q-41 -25 -95 -25q-93 0 -144 64q-52 62 -52 172q0 74 29 130q28 55 80 84t113 29q98 0 144 -72l16 58h57zM359 93q35 47 35 131v130
q-43 70 -115 70q-71 0 -105 -55q-35 -56 -35 -140q0 -75 32 -130q31 -54 93 -54q59 0 95 48zM233 555q-16 13 -16 37t15 39t44 15q28 0 45 -15q15 -15 15 -38t-16 -38t-44 -15t-43 15z" />
    <glyph glyph-name="arrowright" unicode="&#x122;" horiz-adv-x="655" 
d="M595 316v-264q-41 -32 -101 -48q-62 -18 -125 -18q-90 0 -161 38q-70 37 -109 108q-40 70 -40 168t43 172q42 75 117 117q76 41 170 41q119 0 194 -51l-29 -48q-71 51 -161 51q-74 0 -127 -35t-80 -96q-28 -60 -28 -141q0 -74 27 -136q25 -62 78 -99q52 -38 125 -38
q66 0 118 30v204h-141v45h230zM339 -191q2 58 10 138h78q-27 -69 -47 -138h-41z" />
    <glyph glyph-name="grave.case" unicode="&#x123;" horiz-adv-x="544" 
d="M307 518h-77q33 91 47 143h40q-2 -58 -10 -143zM483 458v-418q0 -116 -57 -180q-59 -65 -172 -65q-83 0 -149 36l24 47q61 -35 127 -35q74 0 106 45q32 46 32 130v64q-16 -39 -59 -64q-41 -25 -95 -25q-93 0 -144 64q-52 62 -52 172q0 74 29 130q28 55 80 84t113 29
q98 0 144 -72l16 58h57zM359 93q35 47 35 131v130q-43 70 -115 70q-71 0 -105 -55q-35 -56 -35 -140q0 -75 32 -130q31 -54 93 -54q59 0 95 48z" />
    <glyph glyph-name="c_t.dlig" unicode="&#x124;" horiz-adv-x="708" 
d="M619 616v-616h-94v296h-332v-296h-94v616h94v-273h332v273h94zM460 675l-108 66l-107 -66l-19 22q72 64 114 104h28q42 -40 114 -104z" />
    <glyph glyph-name="greaterequal" unicode="&#x125;" horiz-adv-x="552" 
d="M448 418q40 -53 40 -146v-272h-89v247q0 77 -20 126q-20 47 -80 47q-61 0 -95 -52q-36 -52 -36 -145v-223h-89v661h89v-278q23 44 64 66q43 23 89 23q87 0 127 -54zM229 720l-108 66l-107 -66l-19 22q72 64 114 104h28q42 -40 114 -104z" />
    <glyph glyph-name="breve.case" unicode="&#x126;" horiz-adv-x="708" 
d="M663 494h-44v-494h-94v296h-332v-296h-94v494h-44v40h44v82h94v-82h332v82h94v-82h44v-40zM525 494h-332v-151h332v151z" />
    <glyph glyph-name="gravecomb.case" unicode="&#x127;" horiz-adv-x="567" 
d="M463 418q40 -53 40 -146v-272h-89v247q0 77 -20 126q-20 47 -80 47q-61 0 -95 -52q-36 -52 -36 -145v-223h-89v534h-79v40h79v87h89v-87h132v-40h-132v-151q23 44 64 66q43 23 89 23q87 0 127 -54z" />
    <glyph glyph-name="caron.case" unicode="&#x128;" horiz-adv-x="282" 
d="M99 616h94v-616h-94v616zM5 700q37 88 87 88q13 0 22 -3q2 -1 4.5 -2t4 -2t3.5 -2l4 -2l4 -2l4 -2l1 -1l39 -23q19 -13 30 -13q12 0 23 11q12 12 24 35l29 -15q-15 -41 -38 -64q-22 -24 -49 -24q-16 0 -25 4q-11 5 -22 13l-38 26q-16 12 -30 12q-12 0 -23 -12
q-9 -10 -25 -39z" />
    <glyph glyph-name="i.loclTRK" unicode="&#x129;" horiz-adv-x="256" 
d="M83 458h90v-458h-90v458zM150 536q-14 6 -22 13l-38 29q-16 13 -30 13q-13 0 -23 -13q-13 -17 -25 -42l-29 17q38 92 87 92q17 0 26 -4q12 -5 21 -13l39 -25q2 -2 8 -5l8 -4q8 -5 14 -5q12 0 22 12q9 9 25 38l29 -15q-14 -42 -38 -67q-22 -25 -49 -25q-16 0 -25 4z" />
    <glyph glyph-name="cacute.loclPLK" unicode="&#x12a;" horiz-adv-x="282" 
d="M99 616h94v-616h-94v616zM28 754h234v-49h-234v49z" />
    <glyph glyph-name="Hcircumflex" unicode="&#x12b;" horiz-adv-x="256" 
d="M83 458h90v-458h-90v458zM11 618h234v-49h-234v49z" />
    <glyph glyph-name="cacute" unicode="&#x12c;" horiz-adv-x="282" 
d="M99 616h94v-616h-94v616zM70 699q-37 22 -54 65l27 14q43 -48 105 -48q58 0 101 49l25 -13q-17 -45 -51 -67q-35 -24 -77 -24q-40 0 -76 24z" />
    <glyph glyph-name="hbar" unicode="&#x12d;" horiz-adv-x="256" 
d="M83 458h90v-458h-90v458zM55 554q-35 26 -51 77l26 14q22 -34 46 -47q25 -14 55 -14t53 14q21 13 44 48l24 -14q-17 -53 -49 -78t-74 -25q-40 0 -74 25z" />
    <glyph glyph-name="Cacute.loclPLK" unicode="&#x12e;" horiz-adv-x="282" 
d="M138 -56q-19 -28 -19 -56q0 -16 8 -24q7 -9 23 -9q15 0 28 7l14 -30q-32 -23 -73 -23q-32 0 -49 16q-19 15 -19 45q0 26 24 59q22 33 76 71h-52v616h94v-616q-36 -26 -55 -56z" />
    <glyph glyph-name="hungarumlaut.case" unicode="&#x12f;" horiz-adv-x="255" 
d="M84 556q-15 14 -15 37q0 24 15 39q13 15 43 15q29 0 45 -15q15 -15 15 -38t-16 -38q-17 -15 -44 -15q-28 0 -43 15zM51 -175q-19 15 -19 45q0 25 23 59q22 33 76 71h-49v458h91v-458q-34 -26 -55 -56q-19 -29 -19 -56q0 -16 9 -24q8 -9 22 -9q15 0 29 7l13 -30
q-31 -23 -72 -23q-32 0 -49 16z" />
    <glyph glyph-name="Cacute" unicode="&#x130;" horiz-adv-x="282" 
d="M99 616h94v-616h-94v616zM101 696q-16 13 -16 37t15 39t44 15q28 0 45 -15q15 -15 15 -38t-16 -38t-44 -15t-43 15z" />
    <glyph glyph-name="dotlessi" unicode="&#x131;" horiz-adv-x="256" 
d="M83 458h90v-458h-90v458z" />
    <glyph glyph-name="c_tcaron.dlig" unicode="&#x132;" horiz-adv-x="567" 
d="M99 616h94v-616h-94v616zM310 -92q46 28 66 76q19 45 19 127v505h93v-459q0 -111 -37 -176q-36 -66 -124 -104z" />
    <glyph glyph-name="hcircumflex" unicode="&#x133;" horiz-adv-x="504" 
d="M84 556q-15 14 -15 37q0 24 15 39q13 15 43 15q29 0 45 -15q15 -15 15 -38t-16 -38q-17 -15 -44 -15q-28 0 -43 15zM82 458h91v-458h-91v458zM342 556q-15 14 -15 37q0 24 15 39q14 15 43 15t45 -15q15 -15 15 -38t-16 -38q-17 -15 -44 -15q-28 0 -43 15zM263 -150
q46 31 62 73q17 43 17 126v409h89v-347q0 -113 -32 -185q-31 -69 -115 -107z" />
    <glyph glyph-name="ccaron" unicode="&#x134;" horiz-adv-x="285" 
d="M28 -92q46 28 66 76q19 45 19 127v505h93v-459q0 -111 -37 -176q-36 -66 -124 -104zM266 675l-108 66l-107 -66l-19 22q72 64 114 104h28q42 -40 114 -104z" />
    <glyph glyph-name="Iacute_J.loclNLD" unicode="&#x135;" horiz-adv-x="249" 
d="M8 -150q46 31 62 73q17 43 17 126v409h89v-347q0 -113 -33 -184q-35 -71 -117 -108zM237 532q-45 28 -90 60l-17 12q-64 -46 -108 -72l-19 23q59 53 114 111h28q55 -58 114 -111z" />
    <glyph glyph-name="Ccaron" unicode="&#x136;" horiz-adv-x="583" 
d="M238 298h-45v-298h-94v616h94v-271h51q57 60 114 135q58 76 94 136h99q-41 -56 -111 -134q-81 -90 -130 -136l253 -346h-110zM259 -191q2 58 10 138h78q-27 -69 -47 -138h-41z" />
    <glyph glyph-name="ibreve" unicode="&#x137;" horiz-adv-x="489" 
d="M215 224h-47v-224h-89v661h89v-391h52q64 64 146 188h88q-85 -109 -178 -193l203 -265h-100zM215 -191q2 58 10 138h78q-27 -69 -47 -138h-41z" />
    <glyph glyph-name="Ibreve" unicode="&#x138;" horiz-adv-x="492" 
d="M218 214h-48v-214h-89v458h89v-198h53q58 63 145 198h89q-104 -136 -179 -203l203 -255h-100z" />
    <glyph glyph-name="ccedilla_t.dlig" unicode="&#x139;" horiz-adv-x="441" 
d="M432 59v-59h-333v616h94v-565h48q85 0 191 8zM91 691q48 42 141 109l57 -49q-128 -55 -184 -82z" />
    <glyph glyph-name="Idotaccent" unicode="&#x13a;" horiz-adv-x="246" 
d="M79 661h89v-661h-89v661zM64 736q48 42 141 109l57 -49q-128 -55 -184 -82z" />
    <glyph glyph-name="Ccircumflex" unicode="&#x13b;" horiz-adv-x="441" 
d="M432 59v-59h-333v616h94v-565h48q85 0 191 8zM230 -191q2 58 10 138h78q-27 -69 -47 -138h-41z" />
    <glyph glyph-name="IJ" unicode="&#x13c;" horiz-adv-x="246" 
d="M79 661h89v-661h-89v661zM75 -191q2 58 10 138h78q-27 -69 -47 -138h-41z" />
    <glyph glyph-name="ccircumflex" unicode="&#x13d;" horiz-adv-x="441" 
d="M432 59v-59h-333v616h94v-565h48q85 0 191 8zM281 464q2 70 10 152h75q-31 -87 -47 -152h-38z" />
    <glyph glyph-name="ij" unicode="&#x13e;" horiz-adv-x="256" 
d="M79 661h89v-661h-89v661zM221 509q2 70 10 152h75q-31 -87 -47 -152h-38z" />
    <glyph glyph-name="cdotaccent" unicode="&#x13f;" horiz-adv-x="441" 
d="M432 59v-59h-333v616h94v-565h48q85 0 191 8zM287 284q-16 15 -16 39t17 41q16 15 43 15t42 -15q15 -17 15 -41q0 -23 -15 -39q-16 -16 -43 -16t-43 16z" />
    <glyph glyph-name="imacron" unicode="&#x140;" horiz-adv-x="343" 
d="M79 661h89v-661h-89v661zM244 288q-16 16 -16 43t16 42q15 15 40 15q22 0 39 -15q16 -16 16 -43q0 -26 -15 -43q-16 -16 -40 -16q-25 0 -40 17z" />
    <glyph glyph-name="Lslash" unicode="&#x141;" horiz-adv-x="443" 
d="M434 59v-59h-333v272l-81 -42v50l81 42v294h94v-245l107 56v-51l-107 -55v-270h48q85 0 191 8z" />
    <glyph glyph-name="lslash" unicode="&#x142;" horiz-adv-x="288" 
d="M277 408l-79 -45v-363h-89v312l-79 -45v50l79 45v299h89v-249l79 45v-49z" />
    <glyph glyph-name="Cdotaccent" unicode="&#x143;" horiz-adv-x="673" 
d="M589 616v-616h-49l-390 466v-466h-56v616h50l390 -468v468h55zM287 691q48 42 141 109l57 -49q-128 -55 -184 -82z" />
    <glyph glyph-name="Imacron" unicode="&#x144;" horiz-adv-x="563" 
d="M452 418q40 -53 40 -146v-272h-89v247q0 79 -19 126q-20 47 -80 47q-62 0 -96 -52q-36 -52 -36 -142v-226h-91v458h59l23 -84q26 48 68 73q43 25 95 25q86 0 126 -54zM248 538q34 36 123 119l59 -45q-69 -35 -166 -95z" />
    <glyph glyph-name="circumflex.case" unicode="&#x145;" horiz-adv-x="673" 
d="M589 616v-616h-49l-390 466v-466h-56v616h50l390 -468v468h55zM299 -191q2 58 10 138h78q-27 -69 -47 -138h-41z" />
    <glyph glyph-name="integral" unicode="&#x146;" horiz-adv-x="563" 
d="M452 418q40 -53 40 -146v-272h-89v247q0 79 -19 126q-20 47 -80 47q-62 0 -96 -52q-36 -52 -36 -142v-226h-91v458h59l23 -84q26 48 68 73q43 25 95 25q86 0 126 -54zM242 -191q2 58 10 138h78q-27 -69 -47 -138h-41z" />
    <glyph glyph-name="cent.osf" unicode="&#x147;" horiz-adv-x="673" 
d="M589 616v-616h-49l-390 466v-466h-56v616h50l390 -468v468h55zM473 774l-32 -29q-16 -13 -82 -74h-28q-66 61 -82 74l-32 29l22 23l108 -66l107 66z" />
    <glyph glyph-name="infinity" unicode="&#x148;" horiz-adv-x="563" 
d="M452 418q40 -53 40 -146v-272h-89v247q0 79 -19 126q-20 47 -80 47q-62 0 -96 -52q-36 -52 -36 -142v-226h-91v458h59l23 -84q26 48 68 73q43 25 95 25q86 0 126 -54zM424 644q-58 -52 -114 -111h-28q-56 59 -114 111l22 22q38 -22 107 -72q78 54 108 72z" />
    <glyph glyph-name="Copyright (c) 2016 by Fontsmith Ltd. All rights reserved. This font may not be altered in any way without prior permission of Fontsmith Ltd." unicode="&#x14a;" horiz-adv-x="674" 
d="M590 616v-505q0 -116 -40 -189t-137 -103l-18 31q114 49 129 169l-374 444v-463h-56v616h50l390 -466v466h56z" />
    <glyph glyph-name="iogonek" unicode="&#x14b;" horiz-adv-x="563" 
d="M452 418q40 -53 40 -146v-161q0 -115 -42 -189q-42 -73 -146 -103l-19 31q55 26 87 75q31 49 31 134v188q0 79 -19 126q-20 47 -80 47q-62 0 -96 -52q-36 -52 -36 -142v-226h-91v458h59l23 -84q26 48 68 73q43 25 95 25q86 0 126 -54z" />
    <glyph glyph-name="dcroat" unicode="&#x14c;" horiz-adv-x="734" 
d="M203 25q-69 37 -107 110q-37 70 -37 168q0 94 43 168q44 76 116 117q72 42 156 42q97 0 168 -38q69 -38 107 -110q37 -71 37 -169q0 -95 -43 -168q-44 -75 -115 -117q-74 -42 -158 -42q-96 0 -167 39zM484 71q49 39 76 103q26 64 26 133q0 74 -23 138q-22 62 -70 102
q-49 38 -117 38q-66 0 -115 -39q-51 -40 -76 -102q-27 -64 -27 -135q0 -74 23 -138q23 -63 71 -101q46 -39 116 -39q67 0 116 40zM258 754h234v-49h-234v49z" />
    <glyph glyph-name="Itilde" unicode="&#x14d;" horiz-adv-x="545" 
d="M105 50q-61 64 -61 179q0 70 32 126q31 55 83 86t113 31q106 0 168 -63q61 -64 61 -179q0 -71 -31 -126q-32 -56 -84 -87t-114 -31q-106 0 -167 64zM371 86q35 61 35 144q0 85 -32 144q-33 58 -101 58q-65 0 -99 -60q-35 -61 -35 -143q0 -85 33 -144q32 -59 100 -59
q64 0 99 60zM155 618h234v-49h-234v49z" />
    <glyph glyph-name="dcaron" unicode="&#x14e;" horiz-adv-x="734" 
d="M203 25q-69 37 -107 110q-37 70 -37 168q0 94 43 168q44 76 116 117q72 42 156 42q97 0 168 -38q69 -38 107 -110q37 -71 37 -169q0 -95 -43 -168q-44 -75 -115 -117q-74 -42 -158 -42q-96 0 -167 39zM484 71q49 39 76 103q26 64 26 133q0 74 -23 138q-22 62 -70 102
q-49 38 -117 38q-66 0 -115 -39q-51 -40 -76 -102q-27 -64 -27 -135q0 -74 23 -138q23 -63 71 -101q46 -39 116 -39q67 0 116 40zM300 699q-37 22 -54 65l27 14q43 -48 105 -48q58 0 101 49l25 -13q-17 -45 -51 -67q-35 -24 -77 -24q-40 0 -76 24z" />
    <glyph glyph-name="Iogonek" unicode="&#x14f;" horiz-adv-x="545" 
d="M105 50q-61 64 -61 179q0 70 32 126q31 55 83 86t113 31q106 0 168 -63q61 -64 61 -179q0 -71 -31 -126q-32 -56 -84 -87t-114 -31q-106 0 -167 64zM371 86q35 61 35 144q0 85 -32 144q-33 58 -101 58q-65 0 -99 -60q-35 -61 -35 -143q0 -85 33 -144q32 -59 100 -59
q64 0 99 60zM199 554q-35 26 -51 77l26 14q22 -34 46 -47q25 -14 55 -14t53 14q21 13 44 48l24 -14q-17 -53 -49 -78t-74 -25q-40 0 -74 25z" />
    <glyph glyph-name="Dcaron" unicode="&#x150;" horiz-adv-x="734" 
d="M203 25q-69 37 -107 110q-37 70 -37 168q0 94 43 168q44 76 116 117q72 42 156 42q97 0 168 -38q69 -38 107 -110q37 -71 37 -169q0 -95 -43 -168q-44 -75 -115 -117q-74 -42 -158 -42q-96 0 -167 39zM484 71q49 39 76 103q26 64 26 133q0 74 -23 138q-22 62 -70 102
q-49 38 -117 38q-66 0 -115 -39q-51 -40 -76 -102q-27 -64 -27 -135q0 -74 23 -138q23 -63 71 -101q46 -39 116 -39q67 0 116 40zM256 683q25 31 88 85l35 31l60 -34q-101 -59 -165 -99zM404 683q43 39 132 101l61 -39q-121 -51 -177 -80z" />
    <glyph glyph-name="itilde" unicode="&#x151;" horiz-adv-x="545" 
d="M105 50q-61 64 -61 179q0 70 32 126q31 55 83 86t113 31q106 0 168 -63q61 -64 61 -179q0 -71 -31 -126q-32 -56 -84 -87t-114 -31q-106 0 -167 64zM371 86q35 61 35 144q0 85 -32 144q-33 58 -101 58q-65 0 -99 -60q-35 -61 -35 -143q0 -85 33 -144q32 -59 100 -59
q64 0 99 60zM179 528q45 68 99 129l62 -28q-68 -51 -140 -115zM319 532q39 45 115 112l63 -32q-93 -54 -159 -98z" />
    <glyph glyph-name="OE" unicode="&#x152;" horiz-adv-x="904" 
d="M601 568v-234h35q61 0 174 5v-55q-113 5 -174 5h-35v-241h81q94 0 182 8v-56h-371q-61 -14 -124 -14q-96 0 -165 39q-69 37 -107 110t-38 169q0 103 45 176q46 75 122 112q78 38 172 38q55 0 109 -14h357v-56q-88 8 -182 8h-81zM218 111q55 -79 176 -79q65 0 114 28v495
q-22 15 -47 22q-24 7 -64 7q-77 0 -129 -39q-55 -40 -80 -103q-27 -64 -27 -136q0 -117 57 -195z" />
    <glyph glyph-name="oe" unicode="&#x153;" horiz-adv-x="860" 
d="M818 229h-317q1 -85 42 -139t116 -54q37 0 65 9t57 30l22 -37q-64 -52 -161 -52q-66 0 -115 23q-48 23 -77 65q-33 -42 -78 -64q-46 -24 -99 -24q-107 0 -168 64t-61 179q0 70 32 126q31 54 84 86q52 31 113 31q63 0 108 -22q47 -23 77 -63q28 40 74 63q44 22 99 22
q95 0 143 -57q48 -59 48 -148q0 -23 -4 -38zM540 388q-33 -45 -38 -119h223q2 12 2 25q0 57 -23 100q-24 41 -78 41q-53 0 -86 -47zM372 86q34 59 34 144t-32 144q-33 58 -101 58q-65 0 -99 -60q-35 -61 -35 -143q0 -85 33 -144t101 -59q65 0 99 60z" />
    <glyph glyph-name="Delta" unicode="&#x154;" horiz-adv-x="573" 
d="M422 0l-155 260h-15q-6 0 -60 2v-262h-93v615q54 9 138 9q123 0 191 -45q67 -45 67 -136q0 -60 -37 -103q-39 -45 -99 -64l176 -276h-113zM356 339q41 39 41 105q0 69 -36 105t-114 36q-33 0 -55 -3v-280q18 -2 38 -2q86 0 126 39zM212 691q48 42 141 109l57 -49
q-128 -55 -184 -82z" />
    <glyph glyph-name="Jcircumflex" unicode="&#x155;" horiz-adv-x="338" 
d="M333 463v-68q-16 3 -35 3q-60 0 -93 -37t-33 -113v-248h-91v458h59l24 -87q20 43 56 69q38 26 84 26q14 0 29 -3zM153 538q34 36 123 119l59 -45q-69 -35 -166 -95z" />
    <glyph glyph-name="dollar.osf" unicode="&#x156;" horiz-adv-x="573" 
d="M422 0l-155 260h-15q-6 0 -60 2v-262h-93v615q54 9 138 9q123 0 191 -45q67 -45 67 -136q0 -60 -37 -103q-39 -45 -99 -64l176 -276h-113zM356 339q41 39 41 105q0 69 -36 105t-114 36q-33 0 -55 -3v-280q18 -2 38 -2q86 0 126 39zM251 -191q2 58 10 138h78
q-27 -69 -47 -138h-41z" />
    <glyph glyph-name="Kcommaaccent" unicode="&#x157;" horiz-adv-x="338" 
d="M333 463v-68q-16 3 -35 3q-60 0 -93 -37t-33 -113v-248h-91v458h59l24 -87q20 43 56 69q38 26 84 26q14 0 29 -3zM80 -191q2 58 10 138h78q-27 -69 -47 -138h-41z" />
    <glyph glyph-name="dieresis.case" unicode="&#x158;" horiz-adv-x="573" 
d="M422 0l-155 260h-15q-6 0 -60 2v-262h-93v615q54 9 138 9q123 0 191 -45q67 -45 67 -136q0 -60 -37 -103q-39 -45 -99 -64l176 -276h-113zM356 339q41 39 41 105q0 69 -36 105t-114 36q-33 0 -55 -3v-280q18 -2 38 -2q86 0 126 39zM398 774l-32 -29q-16 -13 -82 -74h-28
q-66 61 -82 74l-32 29l22 23l108 -66l107 66z" />
    <glyph glyph-name="kcommaaccent" unicode="&#x159;" horiz-adv-x="338" 
d="M333 463v-68q-16 3 -35 3q-60 0 -93 -37t-33 -113v-248h-91v458h59l24 -87q20 43 56 69q38 26 84 26q14 0 29 -3zM329 644q-59 -52 -114 -111h-28q-55 59 -114 111l22 22q38 -22 107 -72q78 54 108 72z" />
    <glyph glyph-name="dotaccent.case" unicode="&#x15a;" horiz-adv-x="492" 
d="M134 2q-50 16 -84 45l31 48q34 -30 77 -45q40 -15 83 -15q57 0 92 30q34 28 34 77q0 43 -28 71t-88 58l-75 38q-61 31 -86 71q-25 38 -25 89q0 73 56 117t149 44q52 0 96 -12t74 -33l-25 -47q-64 46 -137 46q-58 0 -93 -24t-35 -68q0 -39 22 -61q25 -25 84 -55l76 -40
q63 -32 91 -71q28 -40 28 -98q0 -82 -58 -131q-59 -50 -157 -50q-55 0 -102 16zM209 691q48 42 141 109l57 -49q-128 -55 -184 -82z" />
    <glyph glyph-name="kgreenlandic" unicode="&#x15b;" horiz-adv-x="416" 
d="M125 -3q-43 11 -81 39l24 44q65 -46 137 -46q44 0 70 18t26 52q0 30 -19 48q-21 18 -65 37l-60 27q-100 45 -100 126q0 62 48 96q47 34 122 34q82 0 138 -34l-20 -45q-53 35 -116 35q-43 0 -69 -17t-26 -46q0 -25 17 -42t54 -35l73 -34q52 -24 76 -55q23 -32 23 -73
q0 -65 -48 -103q-47 -37 -121 -37q-37 0 -83 11zM171 538q34 36 123 119l59 -45q-69 -35 -166 -95z" />
    <glyph glyph-name="ebreve" unicode="&#x15c;" horiz-adv-x="492" 
d="M134 2q-50 16 -84 45l31 48q34 -30 77 -45q40 -15 83 -15q57 0 92 30q34 28 34 77q0 43 -28 71t-88 58l-75 38q-61 31 -86 71q-25 38 -25 89q0 73 56 117t149 44q52 0 96 -12t74 -33l-25 -47q-64 46 -137 46q-58 0 -93 -24t-35 -68q0 -39 22 -61q25 -25 84 -55l76 -40
q63 -32 91 -71q28 -40 28 -98q0 -82 -58 -131q-59 -50 -157 -50q-55 0 -102 16zM374 675l-108 66l-107 -66l-19 22q72 64 114 104h28q42 -40 114 -104z" />
    <glyph glyph-name="Lacute" unicode="&#x15d;" horiz-adv-x="416" 
d="M125 -3q-43 11 -81 39l24 44q65 -46 137 -46q44 0 70 18t26 52q0 30 -19 48q-21 18 -65 37l-60 27q-100 45 -100 126q0 62 48 96q47 34 122 34q82 0 138 -34l-20 -45q-53 35 -116 35q-43 0 -69 -17t-26 -46q0 -25 17 -42t54 -35l73 -34q52 -24 76 -55q23 -32 23 -73
q0 -65 -48 -103q-47 -37 -121 -37q-37 0 -83 11zM326 532q-45 28 -90 60l-17 12q-65 -46 -108 -72l-19 23q58 53 114 111h28q56 -58 114 -111z" />
    <glyph glyph-name="dotmath" unicode="&#x15e;" horiz-adv-x="492" 
d="M404 45q-48 -48 -131 -57l-11 -36h3q31 0 53 -17q20 -18 20 -49q0 -35 -26 -56t-69 -21q-34 0 -61 12l11 37q20 -11 48 -11q16 0 27 7q12 8 12 23q0 14 -11 22q-10 7 -27 7q-24 0 -34 -3l24 83q-57 2 -100 17q-49 17 -82 44l31 48q34 -30 77 -45q40 -15 83 -15
q57 0 92 30q34 28 34 77q0 43 -28 71t-88 58l-75 38q-61 31 -86 71q-25 38 -25 89q0 73 56 117t149 44q52 0 96 -12t74 -33l-25 -47q-64 46 -137 46q-58 0 -93 -24t-35 -68q0 -39 22 -61q25 -25 84 -55l76 -40q63 -32 91 -71q28 -40 28 -98q0 -73 -47 -122z" />
    <glyph glyph-name="lacute" unicode="&#x15f;" horiz-adv-x="416" 
d="M337 29q-41 -36 -105 -42l-11 -35h3q31 0 53 -17q20 -18 20 -49q0 -35 -26 -56q-25 -21 -69 -21q-34 0 -61 12l11 37q20 -11 48 -11q16 0 27 7q12 8 12 23q0 14 -11 22q-10 7 -27 7q-23 0 -34 -3l24 83q-86 6 -147 50l24 44q65 -46 137 -46q44 0 70 18t26 52q0 30 -19 48
q-21 18 -65 37l-60 27q-100 45 -100 126q0 62 48 96q47 34 122 34q82 0 138 -34l-20 -45q-53 35 -116 35q-43 0 -69 -17t-26 -46q0 -25 17 -42t54 -35l73 -34q52 -24 76 -55q23 -32 23 -73q0 -61 -40 -97z" />
    <glyph glyph-name="Scaron" unicode="&#x160;" horiz-adv-x="492" 
d="M134 2q-50 16 -84 45l31 48q34 -30 77 -45q40 -15 83 -15q57 0 92 30q34 28 34 77q0 43 -28 71t-88 58l-75 38q-61 31 -86 71q-25 38 -25 89q0 73 56 117t149 44q52 0 96 -12t74 -33l-25 -47q-64 46 -137 46q-58 0 -93 -24t-35 -68q0 -39 22 -61q25 -25 84 -55l76 -40
q63 -32 91 -71q28 -40 28 -98q0 -82 -58 -131q-59 -50 -157 -50q-55 0 -102 16zM395 774l-32 -29q-16 -13 -82 -74h-28q-66 61 -82 74l-32 29l22 23l108 -66l107 66z" />
    <glyph glyph-name="scaron" unicode="&#x161;" horiz-adv-x="416" 
d="M125 -3q-43 11 -81 39l24 44q65 -46 137 -46q44 0 70 18t26 52q0 30 -19 48q-21 18 -65 37l-60 27q-100 45 -100 126q0 62 48 96q47 34 122 34q82 0 138 -34l-20 -45q-53 35 -116 35q-43 0 -69 -17t-26 -46q0 -25 17 -42t54 -35l73 -34q52 -24 76 -55q23 -32 23 -73
q0 -65 -48 -103q-47 -37 -121 -37q-37 0 -83 11zM347 644q-59 -52 -114 -111h-28q-55 59 -114 111l22 22q38 -22 107 -72q78 54 108 72z" />
    <glyph glyph-name="Edotaccent" unicode="&#x162;" horiz-adv-x="490" 
d="M490 616v-55q-11 1 -27 3t-26.5 3t-18.5 1q-18 1 -68 1h-54v-569h-93v569h-54q-50 0 -67 -1q-4 0 -72 -7v55h480zM202 -191q2 58 10 138h78q-27 -69 -47 -138h-41z" />
    <glyph glyph-name="ldot" unicode="&#x163;" horiz-adv-x="364" 
d="M344 27q-24 -21 -53 -31q-26 -10 -59 -10q-72 0 -100 49t-28 139v244h-89v40h89v125h88v-125h133v-40h-133v-232q0 -77 13 -113q12 -39 52 -39q16 0 33 7q19 8 33 19zM183 -191q2 58 10 138h78q-27 -69 -47 -138h-41z" />
    <glyph glyph-name="edotaccent" unicode="&#x164;" horiz-adv-x="490" 
d="M490 616v-55q-11 1 -27 3t-26.5 3t-18.5 1q-18 1 -68 1h-54v-569h-93v569h-54q-50 0 -67 -1q-4 0 -72 -7v55h480zM376 774l-32 -29q-16 -13 -82 -74h-28q-66 61 -82 74l-32 29l22 23l108 -66l107 66z" />
    <glyph glyph-name="Lcommaaccent" unicode="&#x165;" horiz-adv-x="364" 
d="M306 520h-38q1 17 10 141h75q-36 -103 -47 -141zM290 41q19 8 33 19l21 -33q-24 -21 -53 -31q-26 -10 -59 -10q-72 0 -100 49t-28 139v244h-89v40h89v125h88v-125h133v-40h-133v-232q0 -77 13 -113q12 -39 52 -39q16 0 33 7z" />
    <glyph glyph-name="Ecaron" unicode="&#x166;" horiz-adv-x="490" 
d="M296 569v-227h138v-45h-138v-297h-93v297h-136v45h136v227h-54q-50 0 -67 -1q-4 0 -72 -7v55h480v-55q-11 1 -27 3t-26.5 3t-18.5 1q-18 1 -68 1h-54z" />
    <glyph glyph-name="lcommaaccent" unicode="&#x167;" horiz-adv-x="364" 
d="M344 27q-24 -21 -53 -31q-26 -10 -59 -10q-72 0 -100 49t-28 139v64h-89v40h89v140h-89v40h89v125h88v-125h133v-40h-133v-140h133v-40h-133v-52q0 -77 13 -113q12 -39 52 -39q16 0 33 7q19 8 33 19z" />
    <glyph glyph-name="Eogonek" unicode="&#x168;" horiz-adv-x="643" 
d="M151 56q-62 71 -62 192v368h93v-338q0 -107 39 -173q37 -67 123 -67q96 0 134 57q38 56 38 160v361h58v-373q0 -119 -60 -188t-177 -69q-125 0 -186 70zM211 700q37 88 87 88q13 0 22 -3q2 -1 4.5 -2t4 -2t3.5 -2l4 -2l4 -2l4 -2l1 -1l39 -23q19 -13 30 -13q12 0 23 11
q12 12 24 35l29 -15q-15 -41 -38 -64q-22 -24 -49 -24q-16 0 -25 4q-11 5 -22 13l-38 26q-16 12 -30 12q-12 0 -23 -12q-9 -10 -25 -39z" />
    <glyph glyph-name="Nacute" unicode="&#x169;" horiz-adv-x="561" 
d="M482 458v-458h-59l-24 85q-22 -47 -66 -73t-93 -26q-84 0 -125 54q-41 53 -41 145v273h89v-248q0 -76 20 -124q20 -47 79 -47q60 0 94 52q35 52 35 139v228h91zM301 536q-14 6 -22 13l-38 29q-16 13 -30 13q-13 0 -23 -13q-13 -17 -25 -42l-29 17q38 92 87 92q17 0 26 -4
q12 -5 21 -13l39 -25q3 -2 8 -5t8 -4q8 -5 14 -5q11 0 22 12q9 9 25 38l29 -15q-14 -42 -38 -67q-22 -25 -49 -25q-16 0 -25 4z" />
    <glyph glyph-name="eng" unicode="&#x16a;" horiz-adv-x="643" 
d="M151 56q-62 71 -62 192v368h93v-338q0 -107 39 -173q37 -67 123 -67q96 0 134 57q38 56 38 160v361h58v-373q0 -119 -60 -188t-177 -69q-125 0 -186 70zM234 754h234v-49h-234v49z" />
    <glyph glyph-name="lozenge" unicode="&#x16b;" horiz-adv-x="561" 
d="M482 458v-458h-59l-24 85q-22 -47 -66 -73t-93 -26q-84 0 -125 54q-41 53 -41 145v273h89v-248q0 -76 20 -124q20 -47 79 -47q60 0 94 52q35 52 35 139v228h91zM162 618h234v-49h-234v49z" />
    <glyph glyph-name="emacron" unicode="&#x16c;" horiz-adv-x="643" 
d="M151 56q-62 71 -62 192v368h93v-338q0 -107 39 -173q37 -67 123 -67q96 0 134 57q38 56 38 160v361h58v-373q0 -119 -60 -188t-177 -69q-125 0 -186 70zM276 699q-37 22 -54 65l27 14q43 -48 105 -48q58 0 101 49l25 -13q-17 -45 -51 -67q-35 -24 -77 -24q-40 0 -76 24z
" />
    <glyph glyph-name="lessequal" unicode="&#x16d;" horiz-adv-x="561" 
d="M482 458v-458h-59l-24 85q-22 -47 -66 -73t-93 -26q-84 0 -125 54q-41 53 -41 145v273h89v-248q0 -76 20 -124q20 -47 79 -47q60 0 94 52q35 52 35 139v228h91zM206 554q-35 26 -51 77l26 14q22 -34 46 -47q25 -14 55 -14t53 14q21 13 44 48l24 -14q-17 -53 -49 -78
t-74 -25q-40 0 -74 25z" />
    <glyph glyph-name="eogonek" unicode="&#x16e;" horiz-adv-x="643" 
d="M151 56q-62 71 -62 192v368h93v-338q0 -107 39 -173q37 -67 123 -67q96 0 134 57q38 56 38 160v361h58v-373q0 -119 -60 -188t-177 -69q-125 0 -186 70zM283 689q-25 19 -25 53q0 36 27 58q27 21 65 21q45 0 70 -19q24 -20 24 -57q0 -33 -27 -54q-29 -21 -66 -21
q-45 0 -68 19zM381 711q11 14 11 35t-9 36q-11 15 -32 15q-20 0 -30 -16q-11 -17 -11 -36q0 -49 41 -49q19 0 30 15z" />
    <glyph glyph-name="nacute" unicode="&#x16f;" horiz-adv-x="561" 
d="M482 458v-458h-59l-24 85q-22 -47 -66 -73t-93 -26q-84 0 -125 54q-41 53 -41 145v273h89v-248q0 -76 20 -124q20 -47 79 -47q60 0 94 52q35 52 35 139v228h91zM211 536q-25 19 -25 53q0 35 27 58q27 21 65 21q45 0 70 -19q24 -19 24 -57q0 -33 -27 -54q-29 -21 -66 -21
q-45 0 -68 19zM309 558q11 14 11 35t-9 36q-10 15 -32 15q-20 0 -30 -16q-11 -17 -11 -36q0 -49 41 -49q19 0 30 15z" />
    <glyph glyph-name="Emacron" unicode="&#x170;" horiz-adv-x="643" 
d="M151 56q-62 71 -62 192v368h93v-338q0 -107 39 -173q37 -67 123 -67q96 0 134 57q38 56 38 160v361h58v-373q0 -119 -60 -188t-177 -69q-125 0 -186 70zM232 683q25 31 88 85l35 31l60 -34q-101 -59 -165 -99zM380 683q43 39 132 101l61 -39q-121 -51 -177 -80z" />
    <glyph glyph-name="longs" unicode="&#x171;" horiz-adv-x="561" 
d="M482 458v-458h-59l-24 85q-22 -47 -66 -73t-93 -26q-84 0 -125 54q-41 53 -41 145v273h89v-248q0 -76 20 -124q20 -47 79 -47q60 0 94 52q35 52 35 139v228h91zM186 528q45 68 99 129l62 -28q-68 -51 -140 -115zM326 532q39 45 115 112l63 -32q-93 -54 -159 -98z" />
    <glyph glyph-name="Eng" unicode="&#x172;" horiz-adv-x="643" 
d="M574 616v-373q0 -165 -115 -229q-58 -35 -81 -62q-23 -26 -23 -58q0 -16 9 -27q8 -11 24 -11q11 0 26 6l13 -30q-31 -23 -72 -23q-32 0 -49 16q-19 16 -19 45q0 30 17 58t60 59q-6 -1 -27 -1q-125 0 -186 70q-62 71 -62 192v368h93v-338q0 -107 39 -173q37 -67 123 -67
q96 0 134 57q38 56 38 160v361h58z" />
    <glyph glyph-name="macron.case" unicode="&#x173;" horiz-adv-x="561" 
d="M427 -56q-19 -28 -19 -56q0 -16 9 -24q7 -9 22 -9t28 7l14 -30q-32 -23 -73 -23q-32 0 -49 16q-19 15 -19 45q0 26 24 59q22 33 76 71h-17l-24 85q-22 -47 -66 -73t-93 -26q-84 0 -125 54q-41 53 -41 145v273h89v-248q0 -76 20 -124q20 -47 79 -47q60 0 94 52
q35 52 35 139v228h91v-458q-36 -26 -55 -56z" />
    <glyph glyph-name="Euro" unicode="&#x174;" horiz-adv-x="876" 
d="M857 616q-61 -208 -105 -345q-43 -135 -96 -271h-51l-151 464q-34 -117 -78 -247q-46 -135 -83 -217h-51l-213 616h102l158 -487q63 170 150 487h54l161 -481q74 244 118 481h85zM574 675l-108 66l-107 -66l-19 22q72 64 114 104h28q42 -40 114 -104z" />
    <glyph glyph-name="Nacute.loclPLK" unicode="&#x175;" horiz-adv-x="687" 
d="M677 458q-75 -268 -159 -458h-62l-107 323q-57 -184 -121 -323h-61l-158 458h93l119 -364q53 138 118 364h48l120 -363q53 151 93 363h77zM473 532q-45 28 -90 60l-17 12q-64 -46 -108 -72l-19 23q59 53 114 111h28q55 -58 114 -111z" />
    <glyph glyph-name="f_f.liga" unicode="&#x176;" horiz-adv-x="537" 
d="M329 272v-272h-94v267l-221 349h105l186 -297q103 199 147 297h81q-99 -180 -204 -344zM392 675l-108 66l-107 -66l-19 22q72 64 114 104h28q42 -40 114 -104z" />
    <glyph glyph-name="Ncaron" unicode="&#x177;" horiz-adv-x="547" 
d="M481 458v-409q0 -254 -232 -254q-83 0 -144 36l23 47q64 -35 127 -35q75 0 106 45q31 44 31 131v66q-16 -41 -57 -67q-40 -25 -91 -25q-170 0 -170 201v264h89v-242q0 -76 21 -122q21 -48 81 -48q56 0 92 51q35 52 35 136v225h89zM379 532q-45 28 -90 60l-17 12
q-64 -46 -108 -72l-19 23q59 53 114 111h28q55 -58 114 -111z" />
    <glyph glyph-name="Ydieresis" unicode="&#x178;" horiz-adv-x="537" 
d="M329 272v-272h-94v267l-221 349h105l186 -297q103 199 147 297h81q-99 -180 -204 -344zM161 695q-13 13 -13 35t14 38q14 14 36 14t35 -15q14 -16 14 -36q0 -19 -14 -35q-15 -16 -37 -16t-35 15zM339 695q-14 14 -14 35t14 37q13 15 37 15q21 0 35 -14q13 -14 13 -37
q0 -19 -14 -35q-13 -16 -36 -16q-22 0 -35 15z" />
    <glyph glyph-name="f_f_h.liga" unicode="&#x179;" horiz-adv-x="545" 
d="M501 574l-342 -528h139q124 0 201 6v-52h-445v41l333 530h-130q-127 0 -201 -6v51h445v-42zM216 691q48 42 141 109l57 -49q-128 -55 -184 -82z" />
    <glyph glyph-name="Ncommaaccent" unicode="&#x17a;" horiz-adv-x="429" 
d="M390 420l-240 -376l238 1v-45h-341v38l241 377l-243 -2v45h345v-38zM167 538q34 36 123 119l59 -45q-69 -35 -166 -95z" />
    <glyph glyph-name="f_f_i.liga" unicode="&#x17b;" horiz-adv-x="545" 
d="M501 574l-342 -528h139q124 0 201 6v-52h-445v41l333 530h-130q-127 0 -201 -6v51h445v-42zM231 696q-16 13 -16 37t15 39t44 15q28 0 45 -15q15 -15 15 -38t-16 -38t-44 -15t-43 15z" />
    <glyph glyph-name="nine.osf" unicode="&#x17c;" horiz-adv-x="429" 
d="M390 420l-240 -376l238 1v-45h-341v38l241 377l-243 -2v45h345v-38zM172 555q-16 13 -16 37t15 39t44 15t45 -15q15 -15 15 -38t-16 -38t-44 -15t-43 15z" />
    <glyph glyph-name="Zcaron" unicode="&#x17d;" horiz-adv-x="545" 
d="M501 574l-342 -528h139q124 0 201 6v-52h-445v41l333 530h-130q-127 0 -201 -6v51h445v-42zM402 774l-32 -29q-16 -13 -82 -74h-28q-66 61 -82 74l-32 29l22 23l108 -66l107 66z" />
    <glyph glyph-name="zcaron" unicode="&#x17e;" horiz-adv-x="429" 
d="M390 420l-240 -376l238 1v-45h-341v38l241 377l-243 -2v45h345v-38zM343 644q-59 -52 -114 -111h-28q-55 59 -114 111l22 22q38 -22 107 -72q78 54 108 72z" />
    <glyph glyph-name="Lcaron" unicode="&#x17f;" horiz-adv-x="310" 
d="M333 670q18 -5 42 -20l-20 -36q-35 21 -64 21q-54 0 -76 -40q-23 -41 -23 -116v-479h-88v418h-89v40h89v8q0 100 46 155q46 54 136 54q25 0 47 -5z" />
    <glyph glyph-name="florin" unicode="&#x192;" horiz-adv-x="403" 
d="M429 622q25 -7 44 -23l-26 -36q-15 12 -32 20q-17 6 -37 6q-35 0 -54 -19t-28 -54q-9 -30 -19 -97l-11 -76h108v-40h-114l-29 -198q-17 -115 -59 -169q-44 -57 -133 -57q-21 0 -48 8q-26 8 -43 23l24 36q18 -14 33 -20q14 -7 37 -7q33 0 53 20q19 19 28 54q8 31 19 98
l30 212h-90v40h96l9 62q16 112 60 169q44 56 132 56q23 0 50 -8z" />
    <glyph glyph-name="Abreve" unicode="&#x1cd;" horiz-adv-x="589" 
d="M398 184h-231l-66 -184h-72l249 616h56l231 -616h-103zM383 227l-98 284l-102 -284h200zM428 774l-32 -29q-16 -13 -82 -74h-28q-66 61 -82 74l-32 29l22 23l108 -66l107 66z" />
    <glyph glyph-name="f_k.liga" unicode="&#x1ce;" horiz-adv-x="498" 
d="M390 424q44 -49 44 -145v-279h-59l-21 77q-22 -46 -64 -68q-43 -23 -96 -23q-65 0 -112 35t-47 102q0 77 58 117q59 39 158 39q50 0 96 -8v16q0 67 -24 102q-26 35 -88 35q-37 0 -73 -13q-37 -13 -70 -39l-23 42q33 26 85 43q50 15 96 15q95 0 140 -48zM310 80
q37 40 37 120v34q-32 7 -70 7q-72 0 -112 -28t-40 -82q0 -42 26 -68q25 -25 66 -25q55 0 93 42zM372 644q-58 -52 -114 -111h-28q-56 59 -114 111l22 22q38 -22 107 -72q78 54 108 72z" />
    <glyph glyph-name="acute.case" unicode="&#x1fc;" horiz-adv-x="811" 
d="M771 56v-56h-356v186h-219l-106 -186h-81l372 616h389v-55q-67 6 -85 7q-25 1 -96 1h-82v-235h28q70 0 182 5v-55q-112 5 -182 5h-28v-241h82q94 0 182 8zM415 228v341h-2l-194 -341h196zM445 691q48 42 141 109l57 -49q-128 -55 -184 -82z" />
    <glyph glyph-name="five.osf" unicode="&#x1fd;" horiz-adv-x="788" 
d="M746 230h-311q1 -85 42 -139q39 -55 115 -55q34 0 61 9q28 9 56 30l22 -37q-33 -27 -70 -39q-36 -13 -86 -13q-74 0 -123 28q-51 27 -78 76q-24 -52 -72 -78q-49 -26 -108 -26q-65 0 -112 35t-47 102q0 72 58 109t158 37h96v18q0 67 -24 102q-26 35 -88 35q-37 0 -73 -13
q-37 -13 -70 -39l-23 42q33 26 85 43q50 15 96 15q113 0 155 -68q30 32 71 50q40 18 89 18q93 0 139 -57q46 -58 46 -148q0 -22 -4 -37zM474 389q-34 -47 -39 -120h218q2 12 2 25q0 59 -22 100q-23 41 -71 41q-55 0 -88 -46zM310 80q37 40 37 120v30h-70q-72 0 -112 -26
q-40 -25 -40 -78q0 -40 26 -64q25 -24 66 -24q55 0 93 42zM378 538q34 36 123 119l59 -45q-69 -35 -166 -95z" />
    <glyph glyph-name="Dcroat" unicode="&#x1fe;" horiz-adv-x="734" 
d="M608 540q39 -42 58 -98q20 -60 20 -129q0 -95 -43 -168q-44 -75 -115 -117q-74 -42 -158 -42q-120 0 -196 57l-49 -57h-66l77 90q-38 40 -57 99q-20 58 -20 128q0 94 43 168q44 76 116 117q72 42 156 42q120 0 196 -57l50 57h66zM194 141l328 377q-55 67 -146 67
q-66 0 -116 -39q-51 -40 -76 -102q-27 -64 -27 -135q0 -98 37 -168zM550 475l-328 -377q55 -67 146 -67q68 0 117 39t76 103q26 64 26 134q0 101 -37 168zM308 691q48 42 141 109l57 -49q-128 -55 -184 -82z" />
    <glyph glyph-name="jcircumflex" unicode="&#x1ff;" horiz-adv-x="545" 
d="M447 401q54 -63 54 -171q0 -71 -31 -126q-32 -56 -84 -87t-114 -31q-83 0 -142 42l-36 -42h-56l60 71q-54 65 -54 172q0 70 32 126q31 55 83 86t113 31q84 0 143 -42l36 42h56zM154 123l217 256q-35 54 -98 54q-65 0 -100 -60q-35 -61 -35 -144q0 -61 16 -106zM391 335
l-217 -256q35 -53 98 -53q66 0 100 60q35 61 35 144q0 61 -16 105zM223 538q34 36 123 119l59 -45q-69 -35 -166 -95z" />
    <glyph glyph-name="Ebreve" unicode="&#x218;" horiz-adv-x="492" 
d="M134 2q-50 16 -84 45l31 48q34 -30 77 -45q40 -15 83 -15q57 0 92 30q34 28 34 77q0 43 -28 71t-88 58l-75 38q-61 31 -86 71q-25 38 -25 89q0 73 56 117t149 44q52 0 96 -12t74 -33l-25 -47q-64 46 -137 46q-58 0 -93 -24t-35 -68q0 -39 22 -61q25 -25 84 -55l76 -40
q63 -32 91 -71q28 -40 28 -98q0 -82 -58 -131q-59 -50 -157 -50q-55 0 -102 16zM211 -191q2 58 10 138h78q-27 -69 -47 -138h-41z" />
    <glyph glyph-name="lcaron" unicode="&#x219;" horiz-adv-x="416" 
d="M125 -3q-43 11 -81 39l24 44q65 -46 137 -46q44 0 70 18t26 52q0 30 -19 48q-21 18 -65 37l-60 27q-100 45 -100 126q0 62 48 96q47 34 122 34q82 0 138 -34l-20 -45q-53 35 -116 35q-43 0 -69 -17t-26 -46q0 -25 17 -42t54 -35l73 -34q52 -24 76 -55q23 -32 23 -73
q0 -65 -48 -103q-47 -37 -121 -37q-37 0 -83 11zM170 -191q2 58 10 138h78q-27 -69 -47 -138h-41z" />
    <glyph glyph-name="eight.osf" unicode="&#x21a;" horiz-adv-x="490" 
d="M490 616v-55q-11 1 -27 3t-26.5 3t-18.5 1q-18 1 -68 1h-54v-569h-93v569h-54q-50 0 -67 -1q-4 0 -72 -7v55h480zM202 -191q2 58 10 138h78q-27 -69 -47 -138h-41z" />
    <glyph glyph-name="Ldot" unicode="&#x21b;" horiz-adv-x="364" 
d="M344 27q-24 -21 -53 -31q-26 -10 -59 -10q-72 0 -100 49t-28 139v244h-89v40h89v125h88v-125h133v-40h-133v-232q0 -77 13 -113q12 -39 52 -39q16 0 33 7q19 8 33 19zM183 -191q2 58 10 138h78q-27 -69 -47 -138h-41z" />
    <glyph glyph-name="iacute_j.loclNLD" unicode="&#x237;" horiz-adv-x="249" 
d="M8 -150q46 31 62 73q17 43 17 126v409h89v-347q0 -113 -33 -184q-35 -71 -117 -108z" />
    <glyph glyph-name="circumflex" unicode="&#x2c6;" horiz-adv-x="543" 
d="M356 532q-45 28 -90 60l-17 12q-65 -46 -108 -72l-19 23q58 53 114 111h28q56 -58 114 -111z" />
    <glyph glyph-name="caron" unicode="&#x2c7;" horiz-adv-x="543" 
d="M378 644q-58 -52 -114 -111h-28q-56 59 -114 111l22 22q38 -22 107 -72q78 54 108 72z" />
    <glyph glyph-name="breve" unicode="&#x2d8;" horiz-adv-x="543" 
d="M177 554q-35 26 -51 77l26 14q22 -34 46 -47q25 -14 55 -14t53 14q21 13 44 48l24 -14q-17 -53 -49 -78t-74 -25q-40 0 -74 25z" />
    <glyph glyph-name="dotaccent" unicode="&#x2d9;" horiz-adv-x="543" 
d="M207 555q-16 13 -16 37t15 39t44 15q28 0 45 -15q15 -15 15 -38t-16 -38t-44 -15t-43 15z" />
    <glyph glyph-name="ring" unicode="&#x2da;" horiz-adv-x="543" 
d="M182 536q-25 19 -25 53q0 35 27 58q27 21 65 21q45 0 70 -19q24 -19 24 -57q0 -33 -27 -54q-28 -21 -66 -21q-45 0 -68 19zM280 558q11 14 11 35t-9 36q-10 15 -32 15q-20 0 -30 -16q-11 -17 -11 -36q0 -49 41 -49q20 0 30 15z" />
    <glyph glyph-name="ogonek" unicode="&#x2db;" horiz-adv-x="543" 
d="M172 -175q-19 15 -19 45q0 25 23 59q22 33 76 71h42q-34 -26 -55 -56q-19 -29 -19 -56q0 -16 9 -24q7 -9 22 -9t29 7l13 -30q-31 -23 -72 -23q-32 0 -49 16z" />
    <glyph glyph-name="tilde" unicode="&#x2dc;" horiz-adv-x="543" 
d="M278 536q-14 6 -22 13l-38 29q-16 13 -30 13q-13 0 -23 -13q-13 -17 -25 -42l-29 17q38 92 87 92q17 0 26 -4q12 -5 21 -13l39 -25q3 -2 8 -5t8 -4q8 -5 14 -5q12 0 22 12q9 9 25 38l29 -15q-14 -42 -38 -67q-22 -25 -49 -25q-16 0 -25 4z" />
    <glyph glyph-name="hungarumlaut" unicode="&#x2dd;" horiz-adv-x="543" 
d="M87 528q45 68 99 129l62 -28q-68 -51 -140 -115zM227 532q39 45 115 112l63 -32q-93 -54 -159 -98z" />
    <glyph glyph-name="uni030C.case" unicode="&#x300;" 
d="M-343 602l52 58q64 -47 146 -119l-17 -24q-54 27 -181 85z" />
    <glyph glyph-name="uni0315" unicode="&#x301;" 
d="M-330 538q34 36 123 119l59 -45q-69 -35 -166 -95z" />
    <glyph glyph-name="uni0327" unicode="&#x302;" 
d="M-144 532q-45 28 -90 60l-17 12q-65 -46 -108 -72l-19 23q58 53 114 111h28q56 -58 114 -111z" />
    <glyph glyph-name="uni03BC" unicode="&#x303;" 
d="M-222 536q-14 6 -22 13l-38 29q-16 13 -30 13q-13 0 -23 -13q-13 -17 -25 -42l-29 17q38 92 87 92q17 0 26 -4q12 -5 21 -13l39 -25q3 -2 8.5 -5t7.5 -4q8 -5 14 -5q12 0 22 12q9 9 25 38l29 -15q-14 -42 -38 -67q-22 -25 -49 -25q-16 0 -25 4z" />
    <glyph glyph-name="uni2002" unicode="&#x304;" 
d="M-367 618h234v-49h-234v49z" />
    <glyph glyph-name="uni0394" unicode="&#x306;" 
d="M-323 554q-35 26 -51 77l26 14q22 -34 46 -47q25 -14 55 -14t53 14q21 13 44 48l24 -14q-17 -53 -49 -78t-74 -25q-40 0 -74 25z" />
    <glyph glyph-name="uni030C" unicode="&#x307;" 
d="M-293 555q-16 13 -16 37t15 39t44 15q28 0 45 -15q15 -15 15 -38t-16 -38t-44 -15t-43 15z" />
    <glyph glyph-name="uni030B.case" unicode="&#x308;" 
d="M-375 553q-13 13 -13 35t14 38q14 14 36 14t35 -15q14 -16 14 -36q0 -19 -14 -35q-15 -16 -37 -16t-35 15zM-197 553q-14 14 -14 35t14 37q13 15 37 15q21 0 35 -14q13 -14 13 -37q0 -19 -14 -35q-13 -16 -36 -16q-22 0 -35 15z" />
    <glyph glyph-name="uni03A9" unicode="&#x30a;" 
d="M-318 536q-25 19 -25 53q0 35 27 58q27 21 65 21q45 0 70 -19q24 -19 24 -57q0 -33 -27 -54q-28 -21 -66 -21q-45 0 -68 19zM-220 558q11 14 11 35t-9 36q-10 15 -32 15q-20 0 -30 -16q-11 -17 -11 -36q0 -49 41 -49q20 0 30 15z" />
    <glyph glyph-name="uni0326" unicode="&#x30b;" 
d="M-413 528q45 68 99 129l62 -28q-68 -51 -140 -115zM-273 532q39 45 115 112l63 -32q-93 -54 -159 -98z" />
    <glyph glyph-name="uni0328" unicode="&#x30c;" 
d="M-122 644q-58 -52 -114 -111h-28q-56 59 -114 111l22 22q38 -22 107 -72q78 54 108 72z" />
    <glyph glyph-name="uni2003" unicode="&#x315;" 
d="M-168 509q2 70 10 152h75q-31 -87 -47 -152h-38z" />
    <glyph glyph-name="uni2009" unicode="&#x326;" 
d="M-296 -191q2 58 10 138h78q-27 -69 -47 -138h-41z" />
    <glyph glyph-name="uni200A" unicode="&#x327;" 
d="M-191 -65q20 -18 20 -49q0 -35 -26 -56q-25 -21 -69 -21q-34 0 -61 12l11 37q20 -11 48 -11q16 0 27 7q12 8 12 23q0 14 -11 22q-10 7 -27 7q-23 0 -34 -3l28 97h41l-15 -48h3q31 0 53 -17z" />
    <glyph glyph-name="uni2113" unicode="&#x328;" 
d="M-328 -175q-19 15 -19 45q0 25 23 59q22 33 76 71h42q-34 -26 -55 -56q-19 -29 -19 -56q0 -16 9 -24q7 -9 22 -9t29 7l13 -30q-31 -23 -72 -23q-32 0 -49 16z" />
    <glyph glyph-name="sacute" unicode="&#x394;" horiz-adv-x="605" 
d="M586 45v-45h-567v45l265 571h54zM289 513l-196 -455h383z" />
    <glyph glyph-name="Sacute" unicode="&#x3a9;" horiz-adv-x="690" 
d="M660 72v-72h-241v128q53 31 88 103q33 71 33 145q0 91 -47 150q-48 58 -138 58q-64 0 -108 -29q-45 -30 -67 -79q-22 -48 -22 -108q0 -76 33 -141t90 -99v-128h-241v72h200v29q-77 33 -131 103q-52 67 -52 162q0 78 40 139q39 60 107 93q69 32 151 32q80 0 146 -30
q67 -33 103 -89q38 -59 38 -136q0 -93 -52 -164q-53 -72 -130 -104v-35h200z" />
    <glyph glyph-name="sacute.loclPLK" unicode="&#x3bc;" horiz-adv-x="591" 
d="M586 20q-40 -34 -90 -34q-34 0 -56 19q-22 17 -28 65q-25 -42 -65 -63q-39 -21 -88 -21q-50 0 -90 29v-206h-90v649h90v-240q0 -84 24 -132q23 -48 85 -48q58 0 94 48q35 49 35 121v251h91v-354q0 -32 7 -46q7 -16 23 -16q18 0 37 15z" />
    <glyph glyph-name="Sacute.loclPLK" unicode="&#x3c0;" horiz-adv-x="627" 
d="M581 20q-25 -19 -42 -25q-21 -9 -48 -9q-43 0 -65 27q-24 27 -24 98v301h-185v-412h-91v412h-64v46h499v-46h-68v-309q0 -32 7 -46q7 -16 24 -16t37 14z" />
    <glyph glyph-name="f_b.liga" unicode="&#x1e80;" horiz-adv-x="876" 
d="M857 616q-61 -208 -105 -345q-43 -135 -96 -271h-51l-151 464q-34 -117 -78 -247q-46 -135 -83 -217h-51l-213 616h102l158 -487q63 170 150 487h54l161 -481q74 244 118 481h85zM337 747l46 56q100 -61 155 -109l-18 -24q-67 32 -183 77z" />
    <glyph glyph-name="ncaron" unicode="&#x1e81;" horiz-adv-x="687" 
d="M677 458q-75 -268 -159 -458h-62l-107 323q-57 -184 -121 -323h-61l-158 458h93l119 -364q53 138 118 364h48l120 -363q53 151 93 363h77zM226 602l52 58q64 -47 146 -119l-17 -24q-54 27 -181 85z" />
    <glyph glyph-name="estimated" unicode="&#x1e82;" horiz-adv-x="876" 
d="M857 616q-61 -208 -105 -345q-43 -135 -96 -271h-51l-151 464q-34 -117 -78 -247q-46 -135 -83 -217h-51l-213 616h102l158 -487q63 170 150 487h54l161 -481q74 244 118 481h85zM409 691q48 42 141 109l57 -49q-128 -55 -184 -82z" />
    <glyph glyph-name="nacute.loclPLK" unicode="&#x1e83;" horiz-adv-x="687" 
d="M677 458q-75 -268 -159 -458h-62l-107 323q-57 -184 -121 -323h-61l-158 458h93l119 -364q53 138 118 364h48l120 -363q53 151 93 363h77zM318 538q34 36 123 119l59 -45q-69 -35 -166 -95z" />
    <glyph glyph-name="Euro.osf" unicode="&#x1e84;" horiz-adv-x="876" 
d="M857 616q-61 -208 -105 -345q-43 -135 -96 -271h-51l-151 464q-34 -117 -78 -247q-46 -135 -83 -217h-51l-213 616h102l158 -487q63 170 150 487h54l161 -481q74 244 118 481h85zM343 695q-13 13 -13 35t14 38q14 14 36 14t35 -15q14 -16 14 -36q0 -19 -14 -35
q-15 -16 -37 -16t-35 15zM521 695q-14 14 -14 35t14 37q13 15 37 15q21 0 35 -14q13 -14 13 -37q0 -19 -14 -35q-13 -16 -36 -16q-22 0 -35 15z" />
    <glyph glyph-name="nbspace" unicode="&#x1e85;" horiz-adv-x="687" 
d="M677 458q-75 -268 -159 -458h-62l-107 323q-57 -184 -121 -323h-61l-158 458h93l119 -364q53 138 118 364h48l120 -363q53 151 93 363h77zM242 553q-13 13 -13 35t14 38q14 14 36 14q21 0 35 -15q14 -16 14 -36q0 -19 -14 -35q-15 -16 -37 -16q-21 0 -35 15zM420 553
q-14 14 -14 35t14 37q14 15 37 15q21 0 35 -14q13 -14 13 -37q0 -19 -14 -35q-13 -16 -36 -16q-21 0 -35 15z" />
    <glyph glyph-name="ecaron" unicode="&#x1e9e;" horiz-adv-x="630" 
d="M544 305q46 -47 46 -126q0 -57 -26 -101q-27 -44 -72 -68q-46 -24 -102 -24q-77 0 -142 49l30 43q26 -23 55 -35q27 -11 58 -11q47 0 75 39q28 38 28 98q0 59 -31 97q-31 39 -91 39q-37 0 -76 -15v44q40 52 157 200l28 35h-290v-569h-92v616h449v-58l-172 -208q17 3 34 3
q87 0 134 -48z" />
    <glyph glyph-name="f_f_b.liga" unicode="&#x1ef2;" horiz-adv-x="537" 
d="M329 272v-272h-94v267l-221 349h105l186 -297q103 199 147 297h81q-99 -180 -204 -344zM155 747l46 56q100 -61 155 -109l-18 -24q-67 32 -183 77z" />
    <glyph glyph-name="ncommaaccent" unicode="&#x1ef3;" horiz-adv-x="547" 
d="M481 458v-409q0 -254 -232 -254q-83 0 -144 36l23 47q64 -35 127 -35q75 0 106 45q31 44 31 131v66q-16 -41 -57 -67q-40 -25 -91 -25q-170 0 -170 201v264h89v-242q0 -76 21 -122q21 -48 81 -48q56 0 92 51q35 52 35 136v225h89zM132 602l52 58q64 -47 146 -119l-17 -24
q-54 27 -181 85z" />
    <glyph glyph-name="tbar" unicode="&#x2002;" horiz-adv-x="524" 
 />
    <glyph glyph-name="summation" unicode="&#x2003;" horiz-adv-x="884" 
 />
    <glyph glyph-name="Tcaron" unicode="&#x2009;" horiz-adv-x="177" 
 />
    <glyph glyph-name="Tbar" unicode="&#x200a;" horiz-adv-x="55" 
 />
    <glyph glyph-name="endash" unicode="&#x2013;" horiz-adv-x="524" 
d="M40 257h444v-55h-444v55z" />
    <glyph glyph-name="emdash" unicode="&#x2014;" horiz-adv-x="884" 
d="M40 257h804v-57h-804v57z" />
    <glyph glyph-name="quoteleft" unicode="&#x2018;" horiz-adv-x="149" 
d="M120 487q13 -14 13 -37t-17 -40q-16 -16 -42 -16q-30 0 -47 21q-17 22 -17 58q0 49 27 90q26 39 78 68l19 -26q-33 -24 -49 -50q-16 -25 -16 -52v-5q8 3 16 3q21 0 35 -14z" />
    <glyph glyph-name="quoteright" unicode="&#x2019;" horiz-adv-x="149" 
d="M123 609q16 -20 16 -58q0 -49 -27 -89t-78 -69l-19 26q33 24 50 51q15 24 15 51v5q-8 -3 -16 -3q-20 0 -34 15q-14 14 -14 36q0 23 17 40q16 16 42 16q31 0 48 -21z" />
    <glyph glyph-name="quotesinglbase" unicode="&#x201a;" horiz-adv-x="149" 
d="M123 71q16 -20 16 -58q0 -49 -27 -89t-78 -69l-19 26q33 24 50 51q15 24 15 51v5q-8 -3 -16 -3q-20 0 -34 15q-14 14 -14 36q0 23 17 40q16 16 42 16q31 0 48 -21z" />
    <glyph glyph-name="quotedblleft" unicode="&#x201c;" horiz-adv-x="306" 
d="M84 555q-16 -25 -16 -52v-5q8 3 16 3q21 0 35 -14q13 -14 13 -37t-17 -40q-16 -16 -42 -16q-31 0 -47 21q-17 22 -17 58q0 49 27 90q26 39 78 68l19 -26q-33 -24 -49 -50zM277 487q13 -14 13 -37t-17 -40q-16 -16 -42 -16q-31 0 -47 21q-17 22 -17 58q0 49 27 90
q26 39 78 68l19 -26q-33 -24 -49 -50q-16 -25 -16 -52v-5q7 3 16 3q21 0 35 -14z" />
    <glyph glyph-name="quotedblright" unicode="&#x201d;" horiz-adv-x="306" 
d="M123 609q16 -20 16 -58q0 -49 -27 -89t-78 -69l-19 26q33 24 50 51q15 24 15 51v5q-8 -3 -16 -3q-20 0 -34 15q-14 14 -14 36q0 23 17 40q16 16 42 16q31 0 48 -21zM281 609q16 -20 16 -58q0 -49 -27 -89t-78 -69l-19 26q33 24 50 51q15 24 15 51v5q-7 -3 -16 -3
q-20 0 -34 15q-14 14 -14 36q0 23 17 40q16 16 42 16q31 0 48 -21z" />
    <glyph glyph-name="quotedblbase" unicode="&#x201e;" horiz-adv-x="306" 
d="M123 71q16 -20 16 -58q0 -49 -27 -89t-78 -69l-19 26q33 24 50 51q15 24 15 51v5q-8 -3 -16 -3q-20 0 -34 15q-14 14 -14 36q0 23 17 40q16 16 42 16q31 0 48 -21zM281 71q16 -20 16 -58q0 -49 -27 -89t-78 -69l-19 26q33 24 50 51q15 24 15 51v5q-7 -3 -16 -3
q-20 0 -34 15q-14 14 -14 36q0 23 17 40q16 16 42 16q31 0 48 -21z" />
    <glyph glyph-name="dagger" unicode="&#x2020;" horiz-adv-x="430" 
d="M410 347q-115 27 -175 35q16 -92 35 -160q-34 -160 -34 -371v-9h-42v9q0 202 -35 371q20 64 36 160q-60 -8 -175 -35v108q105 -25 177 -36q-18 122 -38 197h111q-17 -62 -37 -197q72 11 177 36v-108z" />
    <glyph glyph-name="daggerdbl" unicode="&#x2021;" horiz-adv-x="430" 
d="M410 347q-115 27 -175 35q18 -92 35 -145q-9 -32 -35 -161q94 15 175 35v-108q-97 24 -177 37q21 -147 37 -198h-111q12 41 20 84q7 46 18 114q-80 -13 -177 -37v108q81 -20 175 -35q-23 113 -36 161q20 58 36 145q-60 -8 -175 -35v108q105 -25 177 -36q-21 139 -38 197
h111q-19 -67 -37 -197q72 11 177 36v-108z" />
    <glyph glyph-name="bullet" unicode="&#x2022;" horiz-adv-x="472" 
d="M138 155q-40 40 -40 101q0 62 40 102q39 41 98 41q39 0 70 -19q32 -20 50 -51q18 -33 18 -72q0 -41 -18 -72q-18 -33 -49 -52t-70 -19q-60 0 -99 41z" />
    <glyph glyph-name="ellipsis" unicode="&#x2026;" horiz-adv-x="696" 
d="M51 2q-16 15 -16 39t17 41q16 15 43 15t42 -15q15 -16 15 -41q0 -23 -15 -39q-16 -16 -43 -16t-43 16zM306 2q-16 15 -16 39t17 41q17 15 43 15q27 0 42 -15q15 -16 15 -41q0 -23 -15 -39q-16 -16 -43 -16t-43 16zM559 2q-16 15 -16 39t17 41q16 15 43 15t42 -15
q15 -16 15 -41q0 -23 -15 -39q-16 -16 -43 -16t-43 16z" />
    <glyph glyph-name="perthousand" unicode="&#x2030;" horiz-adv-x="933" 
d="M90 384q-31 20 -45 50q-15 30 -15 63t16 64q15 31 45 50q29 19 71 19q62 0 95 -39q33 -41 33 -93q0 -33 -15 -63q-14 -30 -44 -50q-31 -20 -70 -20q-43 0 -71 19zM476 616h67l-402 -616h-66zM207 425q14 30 14 73q0 44 -15 73t-45 29q-29 0 -46 -30q-16 -29 -16 -73
q0 -43 17 -72q17 -30 46 -30q30 0 45 30zM397 6q-31 20 -45 50q-15 30 -15 63t16 64q15 31 45 50q29 19 71 19q62 0 95 -39q33 -41 33 -93q0 -34 -15 -64q-14 -30 -44 -50q-31 -20 -70 -20q-40 0 -71 20zM714 5q-31 20 -45 50q-15 32 -15 64q0 33 16 64q15 31 45 50
q29 19 71 19q62 0 95 -39q33 -41 33 -93q0 -34 -15 -64q-14 -30 -44 -50q-31 -20 -70 -20q-43 0 -71 19zM514 47q15 29 15 73q0 43 -15 73q-17 29 -46 29q-30 0 -46 -30q-16 -29 -16 -73q0 -43 17 -72q17 -30 46 -30q30 0 45 30zM830 47q15 28 15 73q0 43 -15 73
q-15 29 -45 29q-29 0 -46 -30q-16 -29 -16 -73t16 -72q17 -30 47 -30q29 0 44 30z" />
    <glyph glyph-name="guilsinglleft" unicode="&#x2039;" horiz-adv-x="191" 
d="M100 230q54 -78 86 -138l-31 -18q-54 64 -144 150v2q79 76 144 149l31 -15q-26 -50 -86 -130z" />
    <glyph glyph-name="guilsinglright" unicode="&#x203a;" horiz-adv-x="191" 
d="M180 225v-2q-79 -76 -144 -149l-31 15q26 50 86 130q-54 78 -86 138l31 18q54 -65 144 -150z" />
    <glyph glyph-name="fraction" unicode="&#x2044;" horiz-adv-x="488" 
d="M411 616h67l-402 -616h-66z" />
    <glyph glyph-name="tcedilla" unicode="&#x20ac;" horiz-adv-x="577" 
d="M567 45q-38 -31 -86 -44q-48 -15 -100 -15q-126 0 -206 65q-80 64 -100 180h-70v39h65q-1 7 -1 31q0 5 2 37h-66v38h71q15 77 61 135q44 56 113 88q66 31 147 31q97 0 167 -42l-28 -48q-59 41 -138 41q-90 0 -148 -56q-57 -56 -74 -149h193v-38h-197q-1 -6 -1 -27
q0 -7 2 -41h196v-39h-191q16 -89 72 -141q55 -53 141 -53q89 0 151 48z" />
    <glyph glyph-name="uni030A" unicode="&#x2113;" horiz-adv-x="412" 
d="M347 66l25 -33q-49 -47 -129 -47q-81 0 -121 45q-40 44 -40 152v10q-47 0 -68 3v46q31 -4 68 -5v188q0 93 37 149q38 56 125 56q70 0 108 -42q36 -42 36 -109t-26 -130q-27 -61 -76 -101q-51 -42 -117 -52v-25q0 -138 94 -138q49 0 84 33zM185 554q-16 -33 -16 -103v-210
q67 15 101 78q34 61 34 157q0 56 -17 85q-16 28 -48 28q-39 0 -54 -35z" />
    <glyph glyph-name="uni030B" unicode="&#x2116;" horiz-adv-x="1004" 
d="M589 616v-616h-49l-390 466v-466h-56v616h50l390 -468v468h55zM697 340q-42 44 -42 122q0 49 23 89q23 38 60 59q38 20 83 20q76 0 118 -42q41 -44 41 -124q0 -50 -22 -87q-22 -38 -61 -60q-37 -22 -83 -22q-75 0 -117 45zM877 368q22 41 22 97q0 59 -18 97
q-19 37 -60 37t-63 -39q-22 -40 -22 -97t19 -96q20 -41 59 -41q40 0 63 42zM672 253h283v-42h-283v42z" />
    <glyph glyph-name="trademark" unicode="&#x2122;" horiz-adv-x="731" 
d="M11 675h271v-42q-45 5 -83 5h-18v-283h-70v283h-17q-38 0 -83 -5v42zM630 355l-13 239l-104 -214h-36l-105 214l-10 -239h-48l24 320h63l110 -217l106 217h62l18 -320h-67z" />
    <glyph glyph-name="Umacron" unicode="&#x2126;" horiz-adv-x="690" 
d="M660 72v-72h-241v128q53 31 88 103q33 71 33 145q0 91 -47 150q-48 58 -138 58q-64 0 -108 -29q-45 -30 -67 -79q-22 -48 -22 -108q0 -76 33 -141t90 -99v-128h-241v72h200v29q-77 33 -131 103q-52 67 -52 162q0 78 40 139q39 60 107 93q69 32 151 32q80 0 146 -30
q67 -33 103 -89q38 -59 38 -136q0 -93 -52 -164q-53 -72 -130 -104v-35h200z" />
    <glyph glyph-name="uni030A.case" unicode="&#x212e;" horiz-adv-x="798" 
d="M220 30q-83 44 -131 117q-49 73 -49 162t49 162q48 73 131 117q82 43 180 43t180 -43q81 -43 131 -117q48 -73 48 -162v-8h-581q-7 0 -7 -5v-176q0 -9 10 -20q43 -44 99 -68q56 -25 121 -25q70 0 129 28q62 30 101 77h54q-52 -58 -126 -91q-74 -34 -159 -34
q-98 0 -180 43zM621 319q7 0 7 5v177q0 11 -11 22q-44 43 -98 66q-57 23 -118 23q-65 0 -120 -24q-55 -23 -100 -68q-10 -11 -10 -23v-173q0 -5 7 -5h443z" />
    <glyph glyph-name="uni0307.case" unicode="&#x2190;" horiz-adv-x="718" 
d="M680 191q-215 10 -456 11q28 -25 52 -57q32 -43 59 -85l-31 -26q-61 67 -132 113q-75 47 -153 71v30q81 24 153 72q70 45 129 112l34 -26q-64 -100 -112 -142q262 0 457 9v-82z" />
    <glyph glyph-name="uni0306" unicode="&#x2191;" horiz-adv-x="514" 
d="M344 508q45 -70 112 -129l-26 -34q-100 64 -142 112q0 -262 9 -457h-82q10 215 11 456q-25 -28 -57 -52q-43 -32 -85 -59l-26 31q68 62 113 133q47 73 71 152h30q24 -81 72 -153z" />
    <glyph glyph-name="uni0306.case" unicode="&#x2192;" horiz-adv-x="718" 
d="M547 313q73 -47 152 -71v-30q-80 -24 -153 -71q-71 -47 -129 -113l-34 26q64 100 112 142q-262 0 -457 -9v82q215 -10 456 -11q-28 25 -52 57q-32 43 -59 85l31 26q62 -68 133 -113z" />
    <glyph glyph-name="uni0307" unicode="&#x2193;" horiz-adv-x="510" 
d="M452 284q-67 -61 -113 -132q-47 -75 -71 -153h-30q-24 80 -71 153q-47 71 -113 129l26 34q100 -64 142 -112q0 262 -9 457h82q-10 -215 -11 -456q25 28 57 52q43 32 85 59z" />
    <glyph glyph-name="uni0302.case" unicode="&#x2202;" horiz-adv-x="540" 
d="M416 551q80 -107 80 -271q0 -92 -29 -159q-28 -64 -82 -100q-55 -35 -125 -35q-96 0 -156 62t-60 176q0 69 32 125q31 53 84 85q53 30 113 30q33 0 66 -11q28 -10 52 -32q-18 93 -76 148t-176 76l13 30q185 -20 264 -124zM368 95q34 61 34 179q0 11 -2 75q-24 35 -55 51
t-63 16q-72 0 -107 -57q-36 -59 -36 -134q0 -82 34 -137q33 -55 89 -55q71 0 106 62z" />
    <glyph glyph-name="uni0063021B.dlig" unicode="&#x2206;" horiz-adv-x="605" 
d="M586 45v-45h-567v45l265 571h54zM289 513l-196 -455h383z" />
    <glyph glyph-name="uni0073021B.dlig" unicode="&#x220f;" horiz-adv-x="704" 
d="M666 570h-69v-761h-91v761h-308v-761h-90v761h-70v46h628v-46z" />
    <glyph glyph-name="uni0237" unicode="&#x2211;" horiz-adv-x="494" 
d="M479 570h-334l185 -329l-202 -357h351v-75h-439v52l200 355l-200 354v46h439v-46z" />
    <glyph glyph-name="minus" unicode="&#x2212;" horiz-adv-x="534" 
d="M60 255h414v-50h-414v50z" />
    <glyph glyph-name="uni0302" unicode="&#x221a;" horiz-adv-x="553" 
d="M563 595l-278 -693h-50l-141 320h-84v49h127l126 -281l242 605h58z" />
    <glyph glyph-name="Uhungarumlaut" unicode="&#x221e;" horiz-adv-x="665" 
d="M599 335q37 -38 37 -102q0 -63 -39 -103q-39 -41 -96 -41q-47 0 -88 27q-40 25 -84 77q-39 -51 -79 -78q-38 -26 -86 -26q-60 0 -97 40q-38 40 -38 101q0 64 39 104q37 40 96 40q48 0 89 -26q41 -28 83 -79q41 53 79 79t86 26q61 0 98 -39zM567 168q23 25 23 66
q0 40 -26 69q-26 27 -66 27q-35 0 -66 -25q-35 -27 -68 -70q47 -52 76 -71q30 -21 64 -21q39 0 63 25zM301 227q-50 56 -76 74q-28 19 -63 19q-40 0 -62 -24q-24 -26 -24 -67q0 -40 26 -68q25 -27 65 -27q63 0 134 93z" />
    <glyph glyph-name="umacron" unicode="&#x222b;" horiz-adv-x="340" 
d="M-21 -177l23 37q23 -22 53 -22t45 19q15 21 19 56q5 40 5 102v426q0 119 37 177q37 57 117 57q49 0 83 -26l-23 -38q-26 22 -54 22q-30 0 -43 -19q-16 -20 -20 -56q-5 -42 -5 -102v-427q0 -120 -37 -176q-37 -58 -118 -58q-48 0 -82 28z" />
    <glyph glyph-name="uhungarumlaut" unicode="&#x2248;" horiz-adv-x="534" 
d="M40 283q21 43 51 65q29 22 76 22q18 0 35 -3q24 -6 42 -14l77 -31q26 -9 33 -11q10 -3 23 -3q23 0 41 12q15 10 39 46l37 -23q-26 -46 -53 -66q-29 -21 -73 -21q-26 0 -63 15l-71 27q-8 3 -21 9q-14 5 -26 9q-11 3 -21 3q-30 0 -50 -12q-21 -13 -40 -46zM40 111
q22 43 52 64q29 22 75 22q18 0 35 -3q24 -6 42 -14l77 -31q24 -9 31 -11q12 -3 25 -3q22 0 40 12t40 46l37 -24q-24 -44 -53 -65t-73 -21q-27 0 -63 14l-71 28q-8 3 -21 9q-14 6 -26 9q-11 3 -21 3q-31 0 -50 -13q-21 -13 -40 -46z" />
    <glyph glyph-name="two.osf" unicode="&#x2260;" horiz-adv-x="534" 
d="M391 351h83v-48h-121l-112 -144h233v-48h-270l-87 -111h-57l87 111h-87v48h124l112 144h-236v48h274l83 107h57z" />
    <glyph glyph-name="Ubreve" unicode="&#x2264;" horiz-adv-x="534" 
d="M464 442l-332 -142l332 -144v-59l-414 180v46l414 177v-58zM50 50h414v-50h-414v50z" />
    <glyph glyph-name="ubreve" unicode="&#x2265;" horiz-adv-x="534" 
d="M484 323v-46l-414 -180v59l332 144l-332 142v58zM70 50h414v-50h-414v50z" />
    <glyph glyph-name="tildecomb.case" unicode="&#x22c5;" horiz-adv-x="534" 
d="M224 186q-16 15 -16 39t17 41q17 15 43 15q27 0 42 -15q15 -17 15 -41q0 -23 -15 -39q-16 -16 -43 -16t-43 16z" />
    <glyph glyph-name="uni0308" unicode="&#x25ca;" horiz-adv-x="534" 
d="M492 332l-210 -332h-55l-185 295l210 321h57zM270 66l154 243l-159 245l-154 -236z" />
    <glyph glyph-name="uni0308.case" unicode="&#xf8ff;" horiz-adv-x="541" 
d="M108 552q-8 8 -8 21q0 11 8 19t19 8q10 0 20 -8q8 -10 8 -19q0 -12 -8 -20q-9 -9 -20 -9t-19 8zM167 553q-8 8 -8 20q0 11 9 19q8 8 18 8q12 0 20 -8t8 -19q0 -13 -8 -21t-20 -8t-19 9zM226 553q-9 7 -9 20q0 10 9 19q10 8 20 8q11 0 19 -8t8 -19q0 -13 -8 -21t-19 -8
q-12 0 -20 9zM287 552q-8 8 -8 21q0 11 8 19t18 8t20 -8q9 -9 9 -19q0 -12 -8 -20q-9 -9 -21 -9q-10 0 -18 8zM345 552q-8 8 -8 21q0 11 9 19q8 8 20 8q9 0 19 -8q8 -10 8 -19q0 -12 -8 -20q-9 -9 -19 -9q-13 0 -21 8zM405 553q-9 8 -9 20q0 10 9 19q8 8 19 8q12 0 20 -8
q7 -7 7 -19q0 -14 -7 -21q-8 -8 -20 -8t-19 9zM108 493q-8 8 -8 20q0 11 8 19q7 7 19 7t20 -7q8 -8 8 -19t-8 -19q-9 -9 -20 -9t-19 8zM108 434q-8 8 -8 20q0 11 8 19q7 7 19 7q10 0 20 -8q8 -8 8 -18q0 -12 -8 -20q-9 -9 -20 -9t-19 9zM226 434q-9 8 -9 20q0 10 9 18
q10 8 20 8q12 0 19 -7q8 -8 8 -19q0 -12 -8 -20q-7 -9 -19 -9q-11 0 -20 9zM287 434q-8 8 -8 20q0 11 8 19q7 7 18 7q10 0 20 -8q9 -8 9 -18q0 -12 -9 -20q-9 -9 -20 -9t-18 9zM345 434q-8 8 -8 20q0 11 8 19q7 7 21 7q9 0 19 -8q8 -8 8 -18q0 -12 -8 -20q-9 -9 -19 -9
q-14 0 -21 9zM405 434q-9 8 -9 20q0 10 9 18q8 8 19 8q13 0 20 -7t7 -19q0 -13 -7 -20q-7 -9 -20 -9q-12 0 -19 9zM108 375q-8 8 -8 19t8 19t19 8q10 0 20 -8q8 -8 8 -19t-8 -19q-10 -8 -20 -8q-11 0 -19 8zM226 375q-9 7 -9 19t9 19q10 8 20 8q11 0 19 -8t8 -19t-8 -19
t-19 -8q-10 0 -20 8zM108 315q-8 8 -8 19q0 12 8 20t19 8q10 0 20 -8q8 -10 8 -20q0 -11 -8 -19q-10 -8 -20 -8q-11 0 -19 8zM226 315q-9 7 -9 19q0 11 9 20q10 8 20 8q11 0 19 -8q8 -10 8 -20q0 -11 -8 -19t-19 -8q-12 0 -20 8zM287 315q-8 8 -8 19q0 10 8 20q8 8 18 8
t20 -8q9 -9 9 -20t-8 -19q-10 -8 -21 -8q-10 0 -18 8zM345 315q-8 8 -8 19q0 12 9 20q8 8 20 8q9 0 19 -8q8 -10 8 -20q0 -11 -8 -19q-10 -8 -19 -8q-13 0 -21 8zM405 315q-9 7 -9 19q0 11 9 20q8 8 19 8q12 0 20 -8q7 -7 7 -20q0 -12 -7 -19q-8 -8 -20 -8q-11 0 -19 8z
M108 255q-8 8 -8 20q0 11 8 19t19 8q10 0 20 -8q8 -8 8 -19t-8 -19q-9 -9 -20 -9t-19 8zM405 256q-9 8 -9 19t9 19q8 8 19 8q12 0 20 -8q7 -7 7 -19q0 -13 -7 -20q-8 -8 -20 -8t-19 9zM108 197q-8 8 -8 19t8 19q7 7 19 7q10 0 20 -8q8 -8 8 -18q0 -11 -8 -19q-10 -8 -20 -8
q-11 0 -19 8zM226 197q-9 8 -9 19q0 10 9 18q10 8 20 8q12 0 19 -7q8 -8 8 -19t-8 -19t-19 -8q-10 0 -20 8zM287 197q-8 8 -8 19t8 19q7 7 18 7q10 0 20 -8q9 -8 9 -18q0 -12 -9 -19q-10 -8 -20 -8t-18 8zM345 197q-8 8 -8 19t8 19q7 7 21 7q9 0 19 -8q8 -8 8 -18
q0 -11 -8 -19q-10 -8 -19 -8q-13 0 -21 8zM405 197q-9 8 -9 19q0 10 9 18q8 8 19 8q13 0 20 -7t7 -19t-7 -19q-8 -8 -20 -8q-11 0 -19 8zM108 137q-8 8 -8 19t8 19t19 8q10 0 20 -8q8 -8 8 -19t-8 -19q-10 -8 -20 -8q-11 0 -19 8zM108 77q-8 8 -8 19q0 12 8 20t19 8
q10 0 20 -8q8 -8 8 -20q0 -11 -8 -19q-10 -8 -20 -8q-11 0 -19 8zM226 77q-9 7 -9 19q0 13 9 20q8 8 20 8q11 0 19 -8t8 -20q0 -11 -8 -19t-19 -8q-12 0 -20 8zM108 18q-8 8 -8 19q0 12 8 20t19 8q10 0 20 -8q8 -10 8 -20q0 -11 -8 -19q-10 -8 -20 -8q-11 0 -19 8zM167 18
q-8 8 -8 19q0 10 8 20q8 8 19 8q12 0 20 -8q8 -10 8 -20q0 -11 -8 -19t-20 -8q-11 0 -19 8zM226 18q-9 8 -9 19t9 20q10 8 20 8q11 0 19 -8q8 -10 8 -20q0 -11 -8 -19t-19 -8q-10 0 -20 8z" />
    <glyph glyph-name="1.001" horiz-adv-x="218" 
 />
    <glyph glyph-name="f_f_j.liga" horiz-adv-x="567" 
d="M99 616h94v-616h-94v616zM86 691q48 42 141 109l57 -49q-128 -55 -184 -82zM310 -92q46 28 66 76q19 45 19 127v505h93v-459q0 -111 -37 -176q-36 -66 -124 -104zM383 691q48 42 141 109l57 -49q-128 -55 -184 -82z" />
    <glyph glyph-name="f_f_k.liga" horiz-adv-x="567" 
d="M205 24q-71 38 -108 108q-38 71 -38 169q0 99 43 173q44 76 118 116q73 40 166 40q98 0 168 -42l-28 -48q-59 41 -138 41q-72 0 -123 -36q-52 -37 -77 -97q-27 -62 -27 -137q0 -121 57 -197q56 -77 163 -77q89 0 151 48l25 -40q-40 -31 -87 -44q-48 -15 -99 -15
q-95 0 -166 38zM335 682q25 64 36 120l84 -17q-43 -66 -89 -114z" />
    <glyph glyph-name="f_f_l.liga" horiz-adv-x="673" 
d="M589 616v-616h-49l-390 466v-466h-56v616h50l390 -468v468h55zM320 682q26 64 36 120l84 -17q-43 -66 -89 -114z" />
    <glyph glyph-name="f_f_t.liga" horiz-adv-x="734" 
d="M203 25q-69 37 -107 110q-37 70 -37 168q0 94 43 168q44 76 116 117q72 42 156 42q97 0 168 -38q69 -38 107 -110q37 -71 37 -169q0 -95 -43 -168q-44 -75 -115 -117q-74 -42 -158 -42q-96 0 -167 39zM484 71q49 39 76 103q26 64 26 133q0 74 -23 138q-22 62 -70 102
q-49 38 -117 38q-66 0 -115 -39q-51 -40 -76 -102q-27 -64 -27 -135q0 -74 23 -138q23 -63 71 -101q46 -39 116 -39q67 0 116 40zM349 682q25 64 36 120l84 -17q-43 -66 -89 -114z" />
    <glyph glyph-name="f_h.liga" horiz-adv-x="492" 
d="M134 2q-50 16 -84 45l31 48q34 -30 77 -45q40 -15 83 -15q57 0 92 30q34 28 34 77q0 43 -28 71t-88 58l-75 38q-61 31 -86 71q-25 38 -25 89q0 73 56 117t149 44q52 0 96 -12t74 -33l-25 -47q-64 46 -137 46q-58 0 -93 -24t-35 -68q0 -39 22 -61q25 -25 84 -55l76 -40
q63 -32 91 -71q28 -40 28 -98q0 -82 -58 -131q-59 -50 -157 -50q-55 0 -102 16zM242 682q26 64 36 120l84 -17q-43 -66 -89 -114z" />
    <glyph glyph-name="f_imacron.liga" horiz-adv-x="545" 
d="M501 574l-342 -528h139q124 0 201 6v-52h-445v41l333 530h-130q-127 0 -201 -6v51h445v-42zM249 682q25 64 36 120l84 -17q-43 -66 -89 -114z" />
    <glyph glyph-name="Hbar" horiz-adv-x="255" 
d="M84 556q-15 14 -15 37q0 24 15 39q13 15 43 15q29 0 45 -15q15 -15 15 -38t-16 -38q-17 -15 -44 -15q-28 0 -43 15zM82 458h91v-458h-91v458z" />
    <glyph glyph-name="notequal" horiz-adv-x="505" 
d="M83 458h90v-458h-90v458zM79 538q34 36 123 119l59 -45q-69 -35 -166 -95zM264 -150q46 31 62 73q17 43 17 126v409h89v-347q0 -113 -33 -184q-35 -71 -117 -108zM338 538q34 36 123 119l59 -45q-69 -35 -166 -95z" />
    <glyph glyph-name="numbersign.osf" horiz-adv-x="445" 
d="M104 51q-60 65 -60 171q0 69 32 128q32 57 87 90q56 32 128 32q81 0 132 -36l-23 -42q-43 34 -96 34q-54 0 -92 -29q-38 -30 -54 -75q-17 -46 -17 -93q0 -89 39 -141q38 -54 120 -54q60 0 104 38l22 -37q-28 -25 -65 -37q-42 -14 -86 -14q-112 0 -171 65zM234 527
q29 62 49 135l86 -20q-56 -81 -103 -128z" />
    <glyph glyph-name="numero" horiz-adv-x="563" 
d="M452 418q40 -53 40 -146v-272h-89v247q0 79 -19 126q-20 47 -80 47q-62 0 -96 -52q-36 -52 -36 -142v-226h-91v458h59l23 -84q26 48 68 73q43 25 95 25q86 0 126 -54zM256 527q29 62 49 135l86 -20q-56 -81 -103 -128z" />
    <glyph glyph-name="oacute.loclPLK" horiz-adv-x="545" 
d="M105 50q-61 64 -61 179q0 70 32 126q31 55 83 86t113 31q106 0 168 -63q61 -64 61 -179q0 -71 -31 -126q-32 -56 -84 -87t-114 -31q-106 0 -167 64zM371 86q35 61 35 144q0 85 -32 144q-33 58 -101 58q-65 0 -99 -60q-35 -61 -35 -143q0 -85 33 -144q32 -59 100 -59
q64 0 99 60zM231 527q29 62 49 135l86 -20q-56 -81 -103 -128z" />
    <glyph glyph-name="Oacute.loclPLK" horiz-adv-x="416" 
d="M125 -3q-43 11 -81 39l24 44q65 -46 137 -46q44 0 70 18t26 52q0 30 -19 48q-21 18 -65 37l-60 27q-100 45 -100 126q0 62 48 96q47 34 122 34q82 0 138 -34l-20 -45q-53 35 -116 35q-43 0 -69 -17t-26 -46q0 -25 17 -42t54 -35l73 -34q52 -24 76 -55q23 -32 23 -73
q0 -65 -48 -103q-47 -37 -121 -37q-37 0 -83 11zM179 527q29 62 49 135l86 -20q-56 -81 -103 -128z" />
    <glyph glyph-name="obreve" horiz-adv-x="429" 
d="M390 420l-240 -376l238 1v-45h-341v38l241 377l-243 -2v45h345v-38zM175 527q29 62 49 135l86 -20q-56 -81 -103 -128z" />
    <glyph glyph-name="Obreve" horiz-adv-x="807" 
d="M787 27q-49 -41 -111 -41q-72 0 -100 49q-29 50 -29 139v244h-78v40h78v21q0 83 -22 118q-23 35 -74 35q-36 0 -65 -23t-29 -68q0 -68 64 -104l-23 -41q-44 32 -94 32q-54 0 -92 -29q-38 -30 -54 -75q-17 -46 -17 -93q0 -89 39 -141q38 -54 120 -54q60 0 104 38l22 -37
q-28 -25 -65 -37q-42 -14 -86 -14q-112 0 -171 65q-60 65 -60 171q0 70 32 128q32 57 87 90q56 32 127 32q26 0 43 -4q-22 29 -22 73q0 66 47 101q46 33 110 33q83 0 125 -47q42 -48 42 -135v-35h134v-40h-134v-232q0 -77 13 -113q12 -39 52 -39q16 0 33 7q19 8 33 19z" />
    <glyph glyph-name="ohungarumlaut" horiz-adv-x="807" 
d="M733 41q19 8 33 19l21 -33q-49 -41 -111 -41q-72 0 -100 49q-29 50 -29 139v244h-78v40h78v21q0 83 -22 118q-23 35 -74 35q-36 0 -65 -23t-29 -68q0 -68 64 -104l-23 -41q-44 32 -94 32q-54 0 -92 -29q-38 -30 -54 -75q-17 -46 -17 -93q0 -89 39 -141q38 -54 120 -54
q60 0 104 38l22 -37q-28 -25 -65 -37q-42 -14 -86 -14q-112 0 -171 65q-60 65 -60 171q0 70 32 128q32 57 87 90q56 32 127 32q26 0 43 -4q-22 29 -22 73q0 66 47 101q46 33 110 33q83 0 125 -47q42 -48 42 -135v-35h134v-40h-134v-232q0 -77 13 -113q12 -39 52 -39
q16 0 33 7zM749 520h-38q1 17 10 141h75q-36 -103 -47 -141z" />
    <glyph glyph-name="Ohungarumlaut" horiz-adv-x="807" 
d="M787 27q-49 -41 -111 -41q-72 0 -100 49q-29 50 -29 139v244h-78v40h78v21q0 83 -22 118q-23 35 -74 35q-36 0 -65 -23t-29 -68q0 -68 64 -104l-23 -41q-44 32 -94 32q-54 0 -92 -29q-38 -30 -54 -75q-17 -46 -17 -93q0 -89 39 -141q38 -54 120 -54q60 0 104 38l22 -37
q-28 -25 -65 -37q-42 -14 -86 -14q-112 0 -171 65q-60 65 -60 171q0 70 32 128q32 57 87 90q56 32 127 32q26 0 43 -4q-22 29 -22 73q0 66 47 101q46 33 110 33q83 0 125 -47q42 -48 42 -135v-35h134v-40h-134v-232q0 -77 13 -113q12 -39 52 -39q16 0 33 7q19 8 33 19z
M626 -191q2 58 10 138h78q-27 -69 -47 -138h-41z" />
    <glyph glyph-name="omacron" horiz-adv-x="807" 
d="M787 27q-49 -41 -111 -41q-72 0 -100 49q-29 50 -29 139v244h-78v40h78v21q0 83 -22 118q-23 35 -74 35q-36 0 -65 -23t-29 -68q0 -68 64 -104l-23 -41q-44 32 -94 32q-54 0 -92 -29q-38 -30 -54 -75q-17 -46 -17 -93q0 -89 39 -141q38 -54 120 -54q60 0 104 38l22 -37
q-20 -20 -61 -35t-81 -16l-11 -34h3q31 0 53 -17q20 -18 20 -49q0 -35 -26 -56q-25 -21 -69 -21q-34 0 -61 12l11 37q20 -11 48 -11q16 0 27 7q12 8 12 23q0 14 -11 22q-10 7 -27 7q-24 0 -34 -3l24 84q-97 10 -148 73t-51 162q0 70 32 128q32 57 87 90q56 32 127 32
q26 0 43 -4q-22 29 -22 73q0 66 47 101q46 33 110 33q83 0 125 -47q42 -48 42 -135v-35h134v-40h-134v-232q0 -77 13 -113q12 -39 52 -39q16 0 33 7q19 8 33 19z" />
    <glyph glyph-name="Omacron" horiz-adv-x="779" 
d="M759 27q-50 -41 -112 -41q-72 0 -100 49q-29 50 -29 139v244h-77v40h77v24q0 80 -24 115t-78 35q-44 0 -73 -25q-31 -25 -31 -74q0 -29 12 -55t41 -40l-20 -45q-53 35 -116 35q-43 0 -69 -17t-26 -46q0 -25 17 -42t54 -35l73 -34q52 -24 76 -55q23 -32 23 -73
q0 -65 -48 -103q-47 -37 -121 -37q-37 0 -83 11q-43 11 -81 39l24 44q65 -46 137 -46q44 0 70 18t26 52q0 30 -19 48q-21 18 -65 37l-60 27q-100 45 -100 126q0 62 48 96q47 34 122 34q35 0 56 -4q-16 25 -16 65q0 71 50 107q50 35 117 35q86 0 130 -47q43 -46 43 -141v-29
h133v-40h-133v-232q0 -78 13 -114q12 -38 52 -38q16 0 33 7q19 8 33 19z" />
    <glyph glyph-name="Omega" horiz-adv-x="779" 
d="M705 41q19 8 33 19l21 -33q-50 -41 -112 -41q-72 0 -100 49q-29 50 -29 139v244h-77v40h77v24q0 80 -24 115t-78 35q-44 0 -73 -25q-31 -25 -31 -74q0 -29 12 -55t41 -40l-20 -45q-53 35 -116 35q-43 0 -69 -17t-26 -46q0 -25 17 -42t54 -35l73 -34q52 -24 76 -55
q23 -32 23 -73q0 -65 -48 -103q-47 -37 -121 -37q-37 0 -83 11q-43 11 -81 39l24 44q65 -46 137 -46q44 0 70 18t26 52q0 30 -19 48q-21 18 -65 37l-60 27q-100 45 -100 126q0 62 48 96q47 34 122 34q35 0 56 -4q-16 25 -16 65q0 71 50 107q50 35 117 35q86 0 130 -47
q43 -46 43 -141v-29h133v-40h-133v-232q0 -78 13 -114q12 -38 52 -38q16 0 33 7zM720 520h-38q1 17 10 141h75q-36 -103 -47 -141z" />
    <glyph glyph-name="one.osf" horiz-adv-x="779" 
d="M759 27q-50 -41 -112 -41q-72 0 -100 49q-29 50 -29 139v244h-77v40h77v24q0 80 -24 115t-78 35q-44 0 -73 -25q-31 -25 -31 -74q0 -29 12 -55t41 -40l-20 -45q-53 35 -116 35q-43 0 -69 -17t-26 -46q0 -25 17 -42t54 -35l73 -34q52 -24 76 -55q23 -32 23 -73
q0 -65 -48 -103q-47 -37 -121 -37q-37 0 -83 11q-43 11 -81 39l24 44q65 -46 137 -46q44 0 70 18t26 52q0 30 -19 48q-21 18 -65 37l-60 27q-100 45 -100 126q0 62 48 96q47 34 122 34q35 0 56 -4q-16 25 -16 65q0 71 50 107q50 35 117 35q86 0 130 -47q43 -46 43 -141v-29
h133v-40h-133v-232q0 -78 13 -114q12 -38 52 -38q16 0 33 7q19 8 33 19zM598 -191q2 58 10 138h78q-27 -69 -47 -138h-41z" />
    <glyph glyph-name="oslashacute" horiz-adv-x="779" 
d="M759 27q-50 -41 -112 -41q-72 0 -100 49q-29 50 -29 139v244h-77v40h77v24q0 80 -24 115t-78 35q-44 0 -73 -25q-31 -25 -31 -74q0 -29 12 -55t41 -40l-20 -45q-53 35 -116 35q-43 0 -69 -17t-26 -46q0 -25 17 -42t54 -35l73 -34q52 -24 76 -55q23 -32 23 -73
q0 -61 -40 -97q-41 -36 -105 -42l-11 -35h3q31 0 53 -17q20 -18 20 -49q0 -35 -26 -56q-25 -21 -69 -21q-34 0 -61 12l11 37q20 -11 48 -11q16 0 27 7q12 8 12 23q0 14 -11 22q-10 7 -27 7q-23 0 -34 -3l24 83q-86 6 -147 50l24 44q65 -46 137 -46q44 0 70 18t26 52
q0 30 -19 48q-21 18 -65 37l-60 27q-100 45 -100 126q0 62 48 96q47 34 122 34q35 0 56 -4q-16 25 -16 65q0 71 50 107q50 35 117 35q86 0 130 -47q43 -46 43 -141v-29h133v-40h-133v-232q0 -78 13 -114q12 -38 52 -38q16 0 33 7q19 8 33 19z" />
    <glyph glyph-name="Oslashacute" horiz-adv-x="779" 
d="M759 27q-50 -41 -112 -41q-72 0 -100 49q-29 50 -29 139v244h-77v40h77v24q0 80 -24 115t-78 35q-44 0 -73 -25q-31 -25 -31 -74q0 -29 12 -55t41 -40l-20 -45q-53 35 -116 35q-43 0 -69 -17t-26 -46q0 -25 17 -42t54 -35l73 -34q52 -24 76 -55q23 -32 23 -73
q0 -65 -48 -103q-47 -37 -121 -37q-37 0 -83 11q-43 11 -81 39l24 44q65 -46 137 -46q44 0 70 18t26 52q0 30 -19 48q-21 18 -65 37l-60 27q-100 45 -100 126q0 62 48 96q47 34 122 34q35 0 56 -4q-16 25 -16 65q0 71 50 107q50 35 117 35q86 0 130 -47q43 -46 43 -141v-29
h133v-40h-133v-232q0 -78 13 -114q12 -38 52 -38q16 0 33 7q19 8 33 19zM170 -191q2 58 10 138h78q-27 -69 -47 -138h-41z" />
    <glyph glyph-name="scedilla" horiz-adv-x="530" 
d="M138 22q-48 35 -71 94q-23 60 -23 129t28 125q28 58 79 92q52 34 123 34q105 0 159 -70q53 -71 53 -178q0 -69 -27 -129q-29 -61 -80 -96q-52 -37 -122 -37q-71 0 -119 36zM361 95q30 65 30 153q0 86 -27 144q-27 59 -93 59q-71 0 -101 -60q-31 -61 -31 -145
q0 -90 28 -152q27 -63 93 -63q70 0 101 64z" />
    <glyph glyph-name="Scedilla" horiz-adv-x="345" 
d="M252 482v-482h-89v377q-64 -30 -128 -44l-11 31q92 42 187 118h41z" />
    <glyph glyph-name="scedilla_t.dlig" horiz-adv-x="452" 
d="M329 225q-70 -70 -193 -150h260v-75h-361v49q270 179 270 303q0 40 -26 68q-25 27 -72 27q-36 0 -72 -14q-31 -12 -70 -43l-26 38q40 32 87 50q48 18 98 18q86 0 130 -39q43 -39 43 -97q0 -67 -68 -135z" />
    <glyph glyph-name="scircumflex" horiz-adv-x="457" 
d="M368 156q49 -49 49 -129q0 -58 -29 -104q-30 -46 -81 -70q-51 -25 -116 -25q-56 0 -98 13q-46 13 -82 40l29 44q34 -26 69 -38q33 -13 78 -13q61 0 98 40q36 39 36 104q0 64 -33 102q-34 37 -102 37q-40 0 -77 -15v48q45 49 211 222h-286v70h354v-68q-82 -78 -212 -216
q21 7 48 7q95 0 144 -49z" />
    <glyph glyph-name="Scircumflex" horiz-adv-x="525" 
d="M497 0h-68v-158h-87v158h-322v60q96 84 158 195q61 107 79 227h109q-15 -61 -58 -145q-41 -78 -100 -152q-56 -70 -122 -122h256v171h87v-171h68v-63z" />
    <glyph glyph-name="scommaaccent" horiz-adv-x="487" 
d="M354 216q46 -27 70 -73q23 -48 23 -102q0 -61 -29 -110q-29 -48 -80 -76q-51 -27 -114 -27q-56 0 -98 13q-46 13 -82 40l29 44q60 -51 146 -51q62 0 96 43q35 43 35 118q0 71 -38 114q-38 41 -103 41q-69 0 -123 -24v316h342v-70h-290v-185q45 16 103 16q67 0 113 -27z
" />
    <glyph glyph-name="Scommaaccent" horiz-adv-x="547" 
d="M447 345q51 -53 51 -140q0 -66 -29 -116q-31 -51 -79 -76q-50 -27 -107 -27q-122 0 -175 80q-54 79 -54 211q0 104 34 182q35 80 101 126q67 45 160 45q75 0 125 -29l-28 -45q-38 26 -101 26q-91 0 -145 -66q-53 -65 -58 -188q29 29 77 50q42 19 91 19q85 0 137 -52z
M379 77q32 49 32 115q0 65 -31 109q-31 45 -92 45q-40 0 -78 -18t-68 -54q1 -127 37 -187q35 -59 107 -59q62 0 93 49z" />
    <glyph glyph-name="scommaaccent_t.dlig" horiz-adv-x="412" 
d="M387 482v-72q-91 -101 -140 -234q-50 -135 -50 -291v-43h-90v39q0 128 58 268q58 143 169 260h-328v73h381z" />
    <glyph glyph-name="seven.osf" horiz-adv-x="542" 
d="M457 253q31 -38 31 -96q0 -47 -28 -85q-28 -40 -78 -63q-52 -23 -115 -23q-97 0 -155 44q-57 44 -57 116q0 54 38 101q38 45 103 65q-54 28 -85 64q-32 37 -32 92q0 45 25 82t71 59q47 21 105 21q86 0 138 -39t52 -106q0 -47 -37 -87q-37 -41 -96 -61l25 -13
q63 -33 95 -71zM192 425q29 -29 79 -54l28 -14q40 25 62 58q23 35 23 72q0 43 -29 75q-29 30 -82 30q-51 0 -79 -28q-30 -28 -30 -72q0 -40 28 -67zM366 57q34 28 34 76q0 46 -29 75q-26 26 -94 61l-44 24q-42 -20 -64 -56q-22 -37 -22 -84q0 -57 37 -91q38 -35 94 -35
q54 0 88 30z" />
    <glyph glyph-name="six.osf" horiz-adv-x="532" 
d="M441 413q51 -84 51 -223q0 -105 -31 -186q-32 -84 -92 -129q-62 -47 -150 -47q-41 0 -80 9q-41 7 -66 24l22 46q31 -16 62 -23q33 -9 66 -9q81 0 131 75q48 75 51 203q-27 -36 -72 -56t-95 -20q-87 0 -140 53t-53 145q0 68 31 117q32 51 83 77q51 27 110 27
q119 0 172 -83zM405 207q-1 129 -35 188q-33 58 -105 58q-42 0 -73 -23q-31 -24 -46 -61q-16 -36 -16 -80q0 -66 33 -113t96 -47q87 0 146 78z" />
    <glyph glyph-name="softhyphen" horiz-adv-x="624" 
d="M482 369l-46 -175h119l-13 -48h-119l-39 -146h-57l39 146h-167l-39 -146h-57l39 146h-113l13 48h112l46 175h-120l13 48h120l33 125h58l-33 -125h166l33 125h58l-33 -125h110l-12 -48h-111zM424 369h-166l-46 -175h166z" />
    <glyph glyph-name="Tcedilla" horiz-adv-x="461" 
d="M381 66q-41 -14 -84 -17v-90h-41v91q-105 8 -158 68q-54 60 -54 157q0 58 27 106q26 47 74 77t111 36v72h41v-70q91 -1 142 -36l-23 -42q-48 33 -119 34v-353q39 0 69 10q33 11 54 28l22 -37q-22 -20 -61 -34zM164 163q30 -49 92 -61v347q-61 -13 -92 -61
q-31 -47 -31 -104q0 -72 31 -121z" />
    <glyph glyph-name="tcommaaccent" horiz-adv-x="467" 
d="M378 38q-41 -41 -116 -50v-72h-41v70q-48 1 -101 18q-54 17 -84 44l29 43q33 -28 78 -43q42 -15 78 -15v202l-58 28q-106 51 -106 140q0 64 43 104q44 41 121 48v71h41v-70q42 -1 84 -14q41 -14 67 -34l-24 -47q-25 22 -58 35t-69 16v-202l48 -24q55 -29 81 -65
q27 -37 27 -87q0 -56 -40 -96zM156 378q16 -20 65 -47v181q-41 -4 -63 -26q-21 -21 -21 -53q0 -33 19 -55zM318 66q18 21 18 50q0 32 -18 55q-17 21 -56 43v-177q37 7 56 29z" />
    <glyph glyph-name="Tcommaaccent" horiz-adv-x="559" 
d="M549 45q-73 -59 -176 -59q-111 0 -178 54q-69 53 -85 156h-75v39h70q-1 7 -1 33q0 24 3 46h-72v39h79q26 95 99 149t176 54q93 0 157 -42l-27 -48q-28 21 -61 32q-30 10 -69 10q-69 0 -116 -42q-48 -43 -64 -113h163v-39h-170q-2 -34 -2 -40q0 -5 2 -39h170v-39h-164
q16 -73 61 -116q43 -43 114 -43q43 0 78 12q32 10 64 37z" />
    <glyph glyph-name="three.osf" horiz-adv-x="399" 
d="M291 497q-18 -21 -25 -53q-10 -44 -16 -99l-6 -47h104v-40h-109l-18 -133q-11 -82 -29 -126q-20 -50 -56 -75q-38 -26 -100 -26q-21 0 -45 9q-25 7 -42 23l25 36q22 -15 35 -20q14 -7 37 -7q29 0 46 17q14 15 22 46q6 21 14 87l3 22l19 147h-92v40h98l4 33q15 113 56 169
t122 56q21 0 48 -8q25 -7 43 -24l-26 -36q-16 13 -32 21q-14 7 -34 7q-30 0 -46 -19z" />
    <glyph glyph-name="tilde.case" horiz-adv-x="455" 
d="M214 128q-23 -34 -63 -53h280v-75h-374v64q51 20 72 47q23 28 23 70q0 41 -13 77h-78v40h60q-13 31 -16 46q-6 20 -6 49q0 44 22 81q21 38 64 60t105 22q88 0 144 -40l-25 -42q-55 42 -124 42q-51 0 -78 -27q-27 -28 -27 -80q0 -30 7 -48q6 -22 15 -38q10 -20 12 -25h157
v-40h-142q7 -27 7 -54q0 -44 -22 -76z" />
    <glyph glyph-name="tildecomb" horiz-adv-x="493" 
d="M301 268h108v-38h-113v-64h113v-39h-113v-127h-86v127h-113v39h113v64h-113v38h103l-176 274h102l147 -236q75 135 120 236h81q-81 -141 -173 -274z" />
    <glyph glyph-name="uni0304" horiz-adv-x="597" 
d="M66 351q-32 37 -32 84q0 29 15 58q13 27 41 46q28 17 64 17q56 0 87 -36q31 -37 31 -85q0 -29 -14 -57q-13 -28 -41 -45q-27 -18 -64 -18q-55 0 -87 36zM455 542h61l-379 -542h-61zM195 369q13 25 13 66t-13 67q-14 26 -42 26q-27 0 -41 -27q-14 -28 -14 -66
q0 -39 15 -66q13 -27 41 -27t41 27zM358 23q-32 37 -32 84q0 28 14 58q13 28 42 46q28 17 64 17q56 0 87 -36q30 -36 30 -84q0 -29 -14 -59q-13 -28 -40 -45q-27 -18 -64 -18q-56 0 -87 37zM487 42q13 25 13 66q0 38 -14 66q-14 27 -41 27t-41 -27q-15 -27 -15 -67
q0 -38 15 -65t42 -27q28 0 41 27z" />
    <glyph glyph-name="uni0304.case" horiz-adv-x="873" 
d="M66 351q-32 37 -32 84q0 29 15 58q13 27 41 46q28 17 64 17q56 0 87 -36q31 -37 31 -85q0 -29 -14 -57q-13 -28 -41 -45q-27 -18 -64 -18q-55 0 -87 36zM455 542h61l-379 -542h-61zM195 369q13 25 13 66t-13 67q-14 26 -42 26q-27 0 -41 -27q-14 -28 -14 -66
q0 -39 15 -66q13 -27 41 -27t41 27zM358 23q-32 37 -32 84q0 28 14 58q13 28 42 46q28 17 64 17q56 0 87 -36q30 -36 30 -84q0 -29 -14 -59q-13 -28 -40 -45q-27 -18 -64 -18q-56 0 -87 37zM648 23q-32 37 -32 84q0 28 14 58q13 28 42 46q28 17 64 17q56 0 87 -36
q30 -36 30 -84q0 -29 -14 -59q-13 -28 -40 -45q-27 -18 -64 -18q-56 0 -87 37zM487 42q13 25 13 66q0 38 -14 66q-14 27 -41 27t-41 -27q-15 -27 -15 -67q0 -38 15 -65t42 -27q28 0 41 27zM777 42q13 25 13 66q0 38 -14 66q-14 27 -41 27t-41 -27q-15 -27 -15 -67
q0 -38 15 -65t42 -27q28 0 41 27z" />
    <glyph glyph-name="uniF8FF" 
d="M-375 695q-13 13 -13 35t14 38q14 14 36 14t35 -15q14 -16 14 -36q0 -19 -14 -35q-15 -16 -37 -16t-35 15zM-197 695q-14 14 -14 35t14 37q13 15 37 15q21 0 35 -14q13 -14 13 -37q0 -19 -14 -35q-13 -16 -36 -16q-22 0 -35 15z" />
    <glyph glyph-name="uogonek" 
d="M-332 696q-16 13 -16 37t15 39t44 15t45 -15q15 -15 15 -38t-16 -38q-17 -15 -44 -15q-28 0 -43 15z" />
    <glyph glyph-name="Uogonek" 
d="M-347 747l46 56q100 -61 155 -109l-18 -24q-67 32 -183 77z" />
    <glyph glyph-name="uring" 
d="M-368 691q48 42 141 109l57 -49q-128 -55 -184 -82z" />
    <glyph glyph-name="Uring" 
d="M-443 683q25 31 88 85l35 31l60 -34q-100 -59 -165 -99zM-295 683q43 39 132 101l61 -39q-121 -51 -177 -80z" />
    <glyph glyph-name="utilde" 
d="M-146 675l-108 66l-107 -66l-19 22q72 64 114 104h28q42 -40 114 -104z" />
    <glyph glyph-name="Utilde" 
d="M-122 774l-32 -29q-16 -13 -82 -74h-28q-66 61 -82 74l-32 29l22 23l108 -66l107 66z" />
    <glyph glyph-name="wacute" 
d="M-355 699q-37 22 -54 65l27 14q44 -48 105 -48q58 0 101 49l25 -13q-17 -45 -51 -67q-34 -24 -77 -24q-40 0 -76 24z" />
    <glyph glyph-name="Wacute" 
d="M-361 689q-25 19 -25 53q0 36 27 58q27 21 65 21q45 0 70 -19q24 -20 24 -57q0 -33 -27 -54q-29 -21 -66 -21q-45 0 -68 19zM-263 711q11 14 11 35t-9 36q-11 15 -32 15q-20 0 -30 -16q-11 -17 -11 -36q0 -49 41 -49q19 0 30 15z" />
    <glyph glyph-name="wcircumflex" 
d="M-428 700q37 88 87 88q13 0 22 -3q2 -1 4.5 -2t4 -2t3.5 -2l4 -2l4 -2t3 -2l2 -1l39 -23q19 -13 30 -13q12 0 23 11q12 12 24 35l29 -15q-15 -41 -38 -64q-23 -24 -49 -24q-16 0 -25 4q-11 5 -22 13l-38 26q-17 12 -30 12t-23 -12q-9 -10 -25 -39z" />
    <glyph glyph-name="Wcircumflex" 
d="M-367 754h234v-49h-234v49z" />
    <glyph glyph-name="wdieresis" 
d="M-313 527q29 62 49 135l86 -20q-56 -81 -103 -128z" />
    <glyph glyph-name="Wdieresis" 
d="M-310 682q26 64 36 120l84 -17q-43 -66 -89 -114z" />
    <glyph glyph-name="wgrave" horiz-adv-x="543" 
d="M175 691q48 42 141 109l57 -49q-128 -55 -184 -82z" />
    <glyph glyph-name="Wgrave" horiz-adv-x="543" 
d="M184 699q-37 22 -54 65l27 14q43 -48 105 -48q58 0 101 49l25 -13q-17 -45 -51 -67q-35 -24 -77 -24q-40 0 -76 24z" />
    <glyph glyph-name="ycircumflex" horiz-adv-x="543" 
d="M378 774l-32 -29q-16 -13 -82 -74h-28q-66 61 -82 74l-32 29l22 23l108 -66l107 66z" />
    <glyph glyph-name="Ycircumflex" horiz-adv-x="543" 
d="M358 675l-108 66l-107 -66l-19 22q72 64 114 104h28q42 -40 114 -104z" />
    <glyph glyph-name="yen.osf" horiz-adv-x="543" 
d="M125 695q-13 13 -13 35t14 38q14 14 36 14t35 -15q14 -16 14 -36q0 -19 -14 -35q-15 -16 -37 -16t-35 15zM303 695q-14 14 -14 35t14 37q13 15 37 15q21 0 35 -14q13 -14 13 -37q0 -19 -14 -35q-13 -16 -36 -16q-22 0 -35 15z" />
    <glyph glyph-name="ygrave" horiz-adv-x="543" 
d="M207 696q-16 13 -16 37t15 39t44 15q28 0 45 -15q15 -15 15 -38t-16 -38t-44 -15t-43 15z" />
    <glyph glyph-name="Ygrave" horiz-adv-x="543" 
d="M157 747l46 56q100 -61 155 -109l-18 -24q-67 32 -183 77z" />
    <glyph glyph-name="zacute" horiz-adv-x="543" 
d="M100 683q25 31 88 85l35 31l60 -34q-101 -59 -165 -99zM248 683q43 39 132 101l61 -39q-121 -51 -177 -80z" />
    <glyph glyph-name="Zacute" horiz-adv-x="543" 
d="M133 754h234v-49h-234v49z" />
    <glyph glyph-name="zacute.loclPLK" horiz-adv-x="543" 
d="M182 689q-25 19 -25 53q0 36 27 58q27 21 65 21q45 0 70 -19q24 -20 24 -57q0 -33 -27 -54q-28 -21 -66 -21q-45 0 -68 19zM280 711q11 14 11 35t-9 36q-10 15 -32 15q-20 0 -30 -16q-11 -17 -11 -36q0 -49 41 -49q20 0 30 15z" />
    <glyph glyph-name="Zacute.loclPLK" horiz-adv-x="543" 
d="M111 700q37 88 87 88q13 0 22 -3q2 -1 4.5 -2t4 -2t3.5 -2l4 -2l4 -2l4 -2l1 -1l39 -23q19 -13 30 -13q12 0 23 11q12 12 24 35l29 -15q-15 -41 -38 -64q-22 -24 -49 -24q-16 0 -25 4q-11 5 -22 13l-38 26q-16 12 -30 12q-12 0 -23 -12q-9 -10 -25 -39z" />
    </font>
</defs>
</svg>
